<svg width="689" height="332" viewBox="0 0 689 332" fill="none" xmlns="http://www.w3.org/2000/svg">
<path d="M77.2292 202.842H94.632C114.541 202.842 130.681 219.864 130.681 240.86V307.72C130.681 310.501 129.633 313.169 127.768 315.136C125.903 317.103 123.374 318.208 120.736 318.208H38.7143C36.7904 318.207 34.9079 317.618 33.295 316.512C31.682 315.406 30.408 313.83 29.6272 311.976C28.8464 310.122 28.5925 308.068 28.8961 306.064C29.1998 304.061 30.0481 302.193 31.3381 300.688L41.1806 289.204V240.86C41.1806 219.864 57.3204 202.842 77.2292 202.842Z" fill="#1CB0F6"/>
<path d="M177.917 231.682C177.917 224.442 172.351 218.572 165.486 218.572C158.621 218.572 153.056 224.442 153.056 231.682V302.475C153.056 309.715 158.621 315.584 165.486 315.584C172.351 315.584 177.917 309.715 177.917 302.475V231.682Z" fill="#1CB0F6"/>
<mask id="mask0_28_14180" style="mask-type:luminance" maskUnits="userSpaceOnUse" x="153" y="218" width="25" height="98">
<path d="M177.917 231.682C177.917 224.442 172.351 218.572 165.486 218.572C158.621 218.572 153.056 224.442 153.056 231.682V302.475C153.056 309.715 158.621 315.584 165.486 315.584C172.351 315.584 177.917 309.715 177.917 302.475V231.682Z" fill="#FFB59F"/>
</mask>
<g mask="url(#mask0_28_14180)">
<path d="M179.159 215.951H154.298C150.866 215.951 148.083 218.886 148.083 222.506V248.726C148.083 252.346 150.866 255.28 154.298 255.28H179.159C182.592 255.28 185.375 252.346 185.375 248.726V222.506C185.375 218.886 182.592 215.951 179.159 215.951Z" fill="#FFB59F"/>
</g>
<path d="M127.151 225.33C123.718 219.059 116.116 216.911 110.17 220.531C104.225 224.151 102.188 232.169 105.621 238.439L141.669 304.289C145.102 310.559 152.704 312.708 158.65 309.087C164.595 305.467 166.632 297.449 163.2 291.179L127.151 225.33Z" fill="#1CB0F6"/>
<path d="M45.3761 222.707C49.4953 215.182 58.6182 212.604 65.7527 216.949C72.8872 221.293 75.3317 230.914 71.2126 238.439L33.9209 306.559C29.8018 314.083 20.6789 316.661 13.5444 312.317C6.40983 307.973 3.96535 298.351 8.08448 290.827L45.3761 222.707Z" fill="#1CB0F6"/>
<path d="M80.5946 232.303C77.237 231.551 73.9366 233.811 73.2229 237.352C72.5092 240.893 74.6525 244.374 78.0101 245.127L85.3055 246.762C88.6631 247.515 91.9635 245.254 92.6772 241.713C93.3908 238.172 91.2475 234.691 87.8899 233.939L80.5946 232.303Z" fill="#FF9D88"/>
<path d="M184.376 272.796V257.064C184.376 254.168 182.15 251.82 179.404 251.82H152.057C149.31 251.82 147.084 254.168 147.084 257.064V272.796C147.084 275.692 149.31 278.04 152.057 278.04H179.404C182.15 278.04 184.376 275.692 184.376 272.796Z" fill="#5CCBFF"/>
<path d="M58.5687 218.492L105.964 264.087C106.269 264.381 106.516 264.737 106.689 265.133C106.863 265.529 106.959 265.957 106.973 266.393C106.987 266.829 106.918 267.263 106.77 267.671C106.623 268.078 106.399 268.45 106.113 268.765L105.927 268.972C105.367 269.589 104.601 269.95 103.792 269.979C102.984 270.008 102.196 269.702 101.598 269.127L54.2006 223.531C53.8947 223.237 53.6478 222.882 53.4742 222.485C53.3007 222.089 53.2041 221.66 53.1902 221.224C53.1763 220.788 53.2454 220.353 53.3933 219.946C53.5412 219.538 53.765 219.166 54.0514 218.851L54.2379 218.646C54.7976 218.029 55.5641 217.668 56.3734 217.639C57.1828 217.61 57.9707 217.916 58.5687 218.492Z" fill="#D8D8D8"/>
<path d="M105.663 276.338L102.839 279.479L99.5944 276.388C98.6579 275.495 97.9005 274.414 97.3669 273.207C96.8334 272.001 96.5345 270.694 96.4879 269.363C96.4413 268.033 96.648 266.706 97.0957 265.461C97.5435 264.217 98.2232 263.079 99.0947 262.116C100.888 260.136 103.345 258.974 105.94 258.878C108.536 258.782 111.064 259.759 112.985 261.602L116.169 264.657L113.343 267.798L110.526 265.098C110.176 264.762 109.715 264.587 109.242 264.61C108.77 264.633 108.326 264.853 108.007 265.221C107.701 265.577 107.54 266.047 107.562 266.528C107.583 267.009 107.785 267.461 108.122 267.785L110.931 270.48L108.077 273.656L105.387 271.073C105.214 270.907 105.012 270.778 104.791 270.694C104.571 270.61 104.338 270.573 104.104 270.584C103.87 270.596 103.64 270.656 103.428 270.761C103.217 270.866 103.026 271.014 102.869 271.196C102.716 271.373 102.598 271.579 102.522 271.803C102.445 272.028 102.411 272.266 102.422 272.505C102.432 272.743 102.487 272.977 102.584 273.193C102.68 273.409 102.816 273.602 102.983 273.763L105.663 276.338Z" fill="#D8D8D8"/>
<path d="M114.3 262.862L125.219 273.337C125.416 273.527 125.576 273.756 125.688 274.012C125.8 274.267 125.862 274.544 125.87 274.825C125.879 275.107 125.834 275.387 125.738 275.65C125.642 275.913 125.496 276.153 125.311 276.355C124.928 276.773 124.406 277.016 123.856 277.035C123.305 277.054 122.77 276.845 122.362 276.455L111.446 265.98C111.249 265.79 111.089 265.561 110.978 265.306C110.866 265.05 110.804 264.774 110.795 264.493C110.787 264.212 110.832 263.931 110.928 263.669C111.024 263.407 111.169 263.167 111.354 262.965C111.736 262.547 112.257 262.303 112.807 262.284C113.357 262.265 113.892 262.473 114.3 262.862ZM104.502 275.233L115.421 285.707C115.618 285.897 115.777 286.126 115.889 286.381C116.001 286.637 116.063 286.913 116.071 287.195C116.08 287.476 116.035 287.756 115.939 288.018C115.843 288.281 115.698 288.52 115.513 288.723C115.131 289.141 114.609 289.385 114.058 289.404C113.508 289.423 112.972 289.215 112.565 288.825L101.646 278.348C101.448 278.158 101.289 277.929 101.177 277.674C101.066 277.418 101.004 277.142 100.995 276.86C100.987 276.579 101.032 276.299 101.128 276.037C101.223 275.774 101.368 275.535 101.554 275.332C101.936 274.915 102.458 274.671 103.009 274.652C103.559 274.634 104.095 274.842 104.502 275.233ZM109.661 269.249L120.545 279.693C120.745 279.885 120.907 280.117 121.021 280.376C121.135 280.635 121.199 280.915 121.208 281.201C121.218 281.486 121.174 281.771 121.078 282.037C120.982 282.304 120.836 282.548 120.649 282.755C120.266 283.179 119.742 283.428 119.187 283.449C118.632 283.47 118.092 283.262 117.681 282.868L106.797 272.425C106.596 272.233 106.435 272 106.321 271.741C106.207 271.482 106.143 271.202 106.133 270.917C106.124 270.631 106.168 270.347 106.264 270.08C106.36 269.813 106.506 269.569 106.692 269.362C107.075 268.938 107.6 268.689 108.155 268.668C108.709 268.647 109.25 268.856 109.661 269.249Z" fill="#D8D8D8"/>
<path d="M65.3774 248.322C61.9448 248.322 59.1621 251.257 59.1621 254.877C59.1621 258.497 61.9448 261.432 65.3774 261.432H90.2385C93.6711 261.432 96.4538 258.497 96.4538 254.877C96.4538 251.257 93.6711 248.322 90.2385 248.322H65.3774Z" fill="#FFB59F"/>
<path d="M62.4693 241.304L38.2913 267.709C35.43 270.834 35.5124 275.814 38.4754 278.831L45.6289 286.117C48.5919 289.134 53.3135 289.048 56.1749 285.923L80.3529 259.518C83.2143 256.393 83.1319 251.413 80.1688 248.395L73.0154 241.11C70.0523 238.092 65.3307 238.179 62.4693 241.304Z" fill="#FFB59F"/>
<path d="M70.4691 239.34C67.037 239.404 64.3033 242.389 64.3632 246.009C64.4231 249.628 67.2539 252.511 70.686 252.448L85.6004 252.174C89.0325 252.11 91.7662 249.125 91.7063 245.505C91.6464 241.886 88.8155 239.003 85.3835 239.066L70.4691 239.34Z" fill="#FFB59F"/>
<path d="M60.679 229.465C57.2469 229.529 54.5133 232.514 54.5732 236.134C54.6331 239.753 57.4639 242.636 60.896 242.573L78.2961 242.253C81.7282 242.19 84.4619 239.204 84.402 235.585C84.3421 231.965 81.5112 229.082 78.0792 229.145L60.679 229.465Z" fill="#FFB59F"/>
<path d="M112.499 203.953H74.2203C72.9016 203.953 71.6368 204.506 70.7044 205.489C69.7719 206.472 69.248 207.806 69.248 209.197V222.228C69.2479 222.862 69.3842 223.489 69.6467 224.059C69.9092 224.63 70.291 225.131 70.7634 225.524C71.2358 225.916 71.7865 226.191 72.3741 226.327C72.9616 226.463 73.5708 226.456 74.1556 226.308L100.324 219.685L115.539 225.348C116.125 225.567 116.756 225.615 117.365 225.49C117.975 225.365 118.542 225.069 119.007 224.635C119.472 224.2 119.818 223.642 120.01 223.019C120.201 222.396 120.231 221.73 120.096 221.09L117.349 208.059C117.104 206.895 116.489 205.853 115.607 205.107C114.725 204.36 113.63 203.953 112.499 203.953Z" fill="#5CCBFF"/>
<path d="M68.5524 66.7103L144.702 74.605C147.224 74.8663 149.663 75.6924 151.858 77.0281C154.052 78.3638 155.951 80.1783 157.427 82.3502C158.903 84.5221 159.922 87.0014 160.416 89.6222C160.91 92.243 160.868 94.9449 160.292 97.5471C158.987 103.45 155.804 108.704 151.274 112.434C146.743 116.164 141.138 118.145 135.392 118.048L75.5185 117.033C72.3284 116.979 69.1805 116.256 66.2585 114.904C63.3365 113.553 60.699 111.602 58.4999 109.164C56.3008 106.726 54.5842 103.851 53.4502 100.705C52.3163 97.5602 51.7878 94.2083 51.8955 90.8454L52.1839 81.8338C52.2529 79.6841 52.7393 77.5721 53.6128 75.6285C54.4863 73.6848 55.7285 71.9508 57.2626 70.5334C58.7966 69.116 60.59 68.0455 62.5318 67.3879C64.4737 66.7304 66.5227 66.4998 68.5524 66.7103Z" fill="#A56644"/>
<path d="M120.736 103.207C120.736 95.9671 126.301 90.0977 133.166 90.0977C140.031 90.0977 145.597 95.9671 145.597 103.207V116.317C145.597 123.557 140.031 129.427 133.166 129.427C126.301 129.427 120.736 123.557 120.736 116.317V103.207Z" fill="#A56644"/>
<path d="M89.2199 82.2324H61.6439C48.0523 82.2324 37.0314 93.8529 37.0314 108.19C37.032 109.568 37.1368 110.945 37.3447 112.306L47.033 175.959C47.9216 181.799 50.6746 187.144 54.8363 191.109C58.998 195.073 64.3188 197.42 69.9177 197.761L72.8762 197.939C78.6122 198.288 84.2833 196.509 88.9066 192.912C93.5299 189.314 96.8139 184.124 98.1897 178.24L113.116 114.404C114.01 110.581 114.068 106.593 113.284 102.743C112.501 98.8935 110.897 95.282 108.595 92.1823C106.292 89.0826 103.351 86.576 99.9948 84.8522C96.638 83.1283 92.9534 82.2325 89.2199 82.2324Z" fill="#A56644"/>
<path d="M119.22 102.236L79.8946 106.205C73.8006 106.82 68.1427 109.808 64.0253 114.586C59.9078 119.364 57.6265 125.588 57.6265 132.045V149.627C57.6265 163.962 68.6474 175.585 82.239 175.585H110.946C124.538 175.585 135.559 163.962 135.559 149.627V117.897C135.559 115.704 135.124 113.536 134.283 111.531C133.442 109.526 132.213 107.728 130.675 106.254C129.136 104.779 127.322 103.66 125.35 102.968C123.377 102.276 121.289 102.027 119.22 102.236Z" fill="#FFB59F"/>
<path d="M86.4946 132.842H104.68C118.274 132.842 129.293 144.463 129.293 158.799V189.995C129.293 204.331 118.274 215.952 104.68 215.952H86.4946C72.9015 215.952 61.8821 204.331 61.8821 189.995V158.799C61.8821 144.463 72.9015 132.842 86.4946 132.842Z" fill="#FFB59F"/>
<path d="M127.739 173.203C117.876 173.203 109.881 164.755 109.881 154.333C109.881 143.911 117.876 135.463 127.739 135.463C137.601 135.463 145.597 143.911 145.597 154.333C145.597 164.755 137.601 173.203 127.739 173.203Z" fill="#FFB59F"/>
<path d="M54.0661 173.203C44.2035 173.203 36.2084 164.755 36.2084 154.333C36.2084 143.911 44.2035 135.463 54.0661 135.463C63.9286 135.463 71.9238 143.911 71.9238 154.333C71.9238 164.755 63.9286 173.203 54.0661 173.203Z" fill="#FFB59F"/>
<path d="M53.6109 101.898C53.6109 96.8293 57.5066 92.7207 62.3123 92.7207C67.1179 92.7207 71.0137 96.8293 71.0137 101.898V143.849C71.0137 148.917 67.1179 153.026 62.3123 153.026C57.5066 153.026 53.6109 148.917 53.6109 143.849V101.898Z" fill="#A56644"/>
<path d="M48.6386 104.519C48.6386 95.1068 55.8735 87.4766 64.7983 87.4766C73.7231 87.4766 80.958 95.1068 80.958 104.519V109.763C80.958 119.176 73.7231 126.806 64.7983 126.806C55.8735 126.806 48.6386 119.176 48.6386 109.763V104.519Z" fill="#A56644"/>
<path d="M103.333 132.049H110.791C113.538 132.049 115.764 134.397 115.764 137.293V171.378C115.764 174.274 113.538 176.622 110.791 176.622H103.333C100.587 176.622 98.3609 174.274 98.3609 171.378V137.293C98.3609 134.397 100.587 132.049 103.333 132.049Z" fill="#FF9D88"/>
<path d="M117.007 139.26C117.007 136.726 118.954 134.672 121.357 134.672C123.76 134.672 125.708 136.726 125.708 139.26V151.059C125.708 153.593 123.76 155.647 121.357 155.647C118.954 155.647 117.007 153.593 117.007 151.059V139.26Z" fill="#E78D7C"/>
<path d="M84.6873 139.26C84.6873 136.726 86.6352 134.672 89.038 134.672C91.4408 134.672 93.3887 136.726 93.3887 139.26V151.059C93.3887 153.593 91.4408 155.647 89.038 155.647C86.6352 155.647 84.6873 153.593 84.6873 151.059V139.26Z" fill="#E78D7C"/>
<path d="M298.518 153.023H308.437C325.268 153.023 338.909 167.413 338.909 185.161C338.909 188.91 338.288 192.625 337.075 196.147L325.174 230.665C324.333 233.103 322.666 235.126 320.495 236.343C318.323 237.56 315.8 237.886 313.414 237.256L270.268 225.877C268.055 225.294 266.1 223.926 264.73 222.003C263.36 220.08 262.658 217.719 262.742 215.316L263.687 188.42C264.383 168.663 279.77 153.023 298.518 153.023ZM288.548 232.993L312.887 240.445C317.099 241.734 320.858 244.3 323.698 247.825C326.538 251.349 328.333 255.675 328.861 260.266L335.305 316.316C335.519 318.18 335.351 320.071 334.812 321.861C334.274 323.651 333.377 325.298 332.182 326.691C330.987 328.083 329.523 329.189 327.888 329.932C326.253 330.676 324.485 331.041 322.705 331.001L234.306 329.061C232.374 329.019 230.479 328.502 228.769 327.552C227.06 326.601 225.584 325.244 224.459 323.587C223.334 321.93 222.591 320.02 222.288 318.007C221.986 315.994 222.132 313.935 222.716 311.992L237.886 261.533C244.631 239.097 267.115 226.43 288.548 232.993Z" fill="#9069CD"/>
<path d="M263.926 220.492L323.058 233.749C324.267 234.02 325.337 234.756 326.059 235.814C326.781 236.871 327.103 238.175 326.964 239.47L326.442 244.318C326.363 245.041 326.143 245.739 325.795 246.367C325.447 246.995 324.979 247.541 324.42 247.968C323.862 248.395 323.225 248.695 322.55 248.848C321.876 249.002 321.178 249.005 320.502 248.859L260.505 235.886C259.834 235.74 259.199 235.451 258.639 235.035C258.08 234.618 257.608 234.085 257.253 233.467C256.897 232.849 256.667 232.161 256.576 231.445C256.485 230.73 256.536 230.002 256.724 229.307L258.111 224.181C258.457 222.903 259.25 221.812 260.33 221.127C261.41 220.442 262.694 220.215 263.926 220.492Z" fill="#CE82FF"/>
<path d="M310.343 228.929L303.021 227.428C300.326 226.876 297.716 228.732 297.192 231.575L295.294 241.87C294.77 244.713 296.531 247.466 299.227 248.019L306.548 249.519C309.243 250.072 311.853 248.215 312.377 245.372L314.275 235.077C314.799 232.234 313.038 229.482 310.343 228.929Z" fill="#CE82FF" stroke="#DCA6FF" stroke-width="3"/>
<path d="M329.734 137.166C332.082 130.362 328.756 122.839 322.305 120.363C315.854 117.886 308.721 121.394 306.373 128.198L299.57 147.909C297.222 154.712 300.548 162.235 307 164.712C313.451 167.188 320.584 163.68 322.932 156.876L329.734 137.166Z" fill="#E79B7F"/>
<path d="M324.671 149.997L301.164 141.461C298.568 140.518 295.738 141.974 294.844 144.712L291.606 154.629C290.712 157.367 292.093 160.351 294.689 161.294L318.196 169.83C320.792 170.773 323.622 169.318 324.516 166.579L327.753 156.663C328.647 153.925 327.267 150.94 324.671 149.997Z" fill="#9069CD"/>
<path d="M327.229 130.328L247.904 119.585C245.903 119.313 244.075 118.226 242.824 116.561C241.573 114.896 241 112.791 241.232 110.708C244.628 80.1782 270.144 59.7808 294.302 63.0532C318.535 66.337 338.756 93.0813 335.342 123.742C335.119 125.749 334.139 127.57 332.617 128.804C331.096 130.039 329.158 130.589 327.229 130.328Z" fill="#835032"/>
<path d="M389.371 134.115L338.828 132.816C338.205 132.8 337.588 132.656 337.015 132.392C336.441 132.129 335.921 131.75 335.484 131.279C335.048 130.808 334.704 130.253 334.471 129.646C334.239 129.039 334.122 128.392 334.129 127.742C334.324 108.499 349.036 94.0615 364.396 94.4581C379.81 94.855 394.188 110.136 393.994 129.464C393.988 130.09 393.863 130.708 393.627 131.28C393.391 131.853 393.049 132.371 392.619 132.802C392.189 133.234 391.681 133.573 391.123 133.798C390.566 134.023 389.972 134.131 389.371 134.115Z" fill="#835032"/>
<path d="M318.364 12.0608L337.431 13.5788C364.321 15.7133 384.761 40.1654 383.091 68.1896C383.074 68.4786 383.055 68.7698 383.03 69.0576L379.956 109.433C379.847 110.859 379.457 112.243 378.81 113.497C378.163 114.752 377.273 115.849 376.195 116.722C375.118 117.595 373.876 118.224 372.548 118.57C371.22 118.916 369.834 118.971 368.476 118.732L268.933 101.231C267.538 100.985 266.204 100.435 265.02 99.6147C263.835 98.7949 262.828 97.7247 262.063 96.4749C261.299 95.2251 260.795 93.8241 260.585 92.3643C260.375 90.9046 260.464 89.4194 260.845 88.0067L272.312 45.5066C275.087 35.2225 281.173 26.2921 289.554 20.2055C297.935 14.1189 308.104 11.2441 318.364 12.0608Z" fill="#835032"/>
<path d="M359.987 123.459C368.195 124.724 375.738 118.819 376.834 110.271C377.93 101.722 372.165 93.7671 363.956 92.5026C355.748 91.238 348.205 97.1428 347.109 105.691C346.013 114.24 351.778 122.195 359.987 123.459Z" fill="#E79B7F"/>
<path d="M339.269 31.53L343.005 32.1316C363.549 35.4638 377.849 55.4964 374.946 76.8829C374.757 78.2752 374.495 79.6548 374.163 81.0156L363.2 125.959C359.304 141.92 343.939 151.613 328.454 147.876C320.467 145.948 313.268 141.357 307.954 134.802C302.639 128.247 299.502 120.089 299.021 111.573L296.773 71.7498C295.56 50.2644 311.262 32.0662 331.848 31.1041C334.324 30.9846 336.811 31.1331 339.269 31.53Z" fill="#E79B7F"/>
<path d="M284.398 37.1292L329.943 23.0457C330.749 22.7964 331.598 22.7253 332.437 22.8368C333.276 22.9484 334.085 23.2402 334.815 23.6938C335.545 24.1475 336.178 24.7529 336.676 25.4719C337.173 26.1909 337.523 27.0078 337.704 27.8707C343.263 54.3484 327.349 79.063 306.039 83.6338C284.667 88.2212 285.21 72.2214 279.627 45.6241C279.249 43.8268 279.53 41.9565 280.414 40.3834C281.297 38.8103 282.719 37.649 284.398 37.1292Z" fill="#835032"/>
<path d="M290.905 85.6195L290.574 66.5956C290.129 40.8647 309.925 20.1391 334.789 20.2981C338.646 20.3234 342.497 20.8616 346.245 21.8995L391.436 34.408" stroke="#CE82FF" stroke-width="6"/>
<path d="M333.668 27.9298C335.536 25.6826 338.002 24.0637 340.763 23.273C349.436 20.7883 358.102 20.3837 366.763 22.0571C377.587 25.712 385.167 29.7223 389.498 34.0848C402.513 47.1935 399.45 73.2051 389.223 84.2398C388.511 85.0093 387.556 85.4861 386.528 85.5849C385.501 85.6837 384.468 85.3981 383.614 84.7792L337.398 51.2275C334.617 68.821 322.686 79.7377 305.945 83.3272C284.63 87.8957 277.827 92.6893 272.259 66.2017C271.845 64.2327 272.004 62.1879 272.715 60.3303C273.427 58.4727 274.658 56.8872 276.251 55.7777L315.663 28.3235C318.282 26.5005 321.363 25.5175 324.532 25.494C328.453 25.4629 331.498 26.2775 333.668 27.9298Z" fill="#835032"/>
<path d="M291.03 113.606C299.238 114.87 306.781 108.966 307.877 100.417C308.973 91.8686 303.208 83.9136 294.999 82.649C286.791 81.3845 279.248 87.2893 278.152 95.8377C277.056 104.386 282.821 112.341 291.03 113.606Z" fill="#E79B7F"/>
<path d="M351.291 79.9302L348.798 79.5472C346.044 79.1242 343.513 81.0994 343.146 83.9591L340.482 104.67C340.114 107.53 342.049 110.191 344.802 110.614L347.296 110.997C350.05 111.42 352.58 109.445 352.948 106.585L355.612 85.8739C355.979 83.0143 354.045 80.3532 351.291 79.9302Z" fill="#E08462"/>
<path d="M366.774 89.4635C367.095 86.9627 365.405 84.6355 362.999 84.2655C360.594 83.8956 358.383 85.623 358.062 88.1238L356.898 97.1801C356.577 99.6809 358.267 102.008 360.673 102.378C363.078 102.748 365.289 101.021 365.61 98.5198L366.774 89.4635Z" fill="#BC7257"/>
<path d="M339.693 85.4498C340.014 82.949 338.324 80.6218 335.918 80.2519C333.513 79.8819 331.302 81.6093 330.981 84.1102L329.817 93.1664C329.496 95.6673 331.186 97.9945 333.592 98.3644C335.997 98.7343 338.208 97.0069 338.529 94.5061L339.693 85.4498Z" fill="#BC7257"/>
<path d="M323.527 109.218L348.983 116.217C349.639 116.397 350.256 116.712 350.797 117.143C351.338 117.574 351.791 118.111 352.13 118.723C352.469 119.335 352.686 120.008 352.768 120.702C352.85 121.397 352.796 122.098 352.608 122.763L350.884 128.871C350.418 130.522 349.427 131.951 348.068 132.93C346.709 133.909 345.061 134.381 343.387 134.272L327.736 133.241C326.184 133.139 324.66 132.711 323.258 131.984C321.856 131.257 320.606 130.246 319.582 129.013C318.558 127.78 317.783 126.35 317.304 124.811C316.825 123.271 316.652 121.655 316.795 120.06L317.374 113.61C317.44 112.873 317.659 112.163 318.016 111.529C318.373 110.895 318.861 110.351 319.444 109.934C320.028 109.518 320.695 109.238 321.399 109.114C322.104 108.991 322.829 109.026 323.527 109.218Z" fill="#A34242"/>
<mask id="mask1_28_14180" style="mask-type:luminance" maskUnits="userSpaceOnUse" x="316" y="109" width="37" height="26">
<path d="M323.433 109.248L348.984 116.365C349.643 116.548 350.263 116.865 350.807 117.296C351.351 117.727 351.809 118.263 352.151 118.873C352.494 119.482 352.715 120.152 352.801 120.841C352.887 121.531 352.836 122.226 352.651 122.885L350.954 128.933C350.496 130.569 349.509 131.98 348.152 132.942C346.795 133.905 345.146 134.362 343.468 134.241L327.776 133.113C326.219 133.001 324.69 132.566 323.281 131.836C321.872 131.105 320.613 130.093 319.581 128.863C318.548 127.632 317.764 126.208 317.276 124.678C316.788 123.147 316.606 121.542 316.741 119.96L317.288 113.564C317.351 112.834 317.567 112.131 317.921 111.504C318.276 110.877 318.762 110.341 319.345 109.931C319.927 109.522 320.594 109.249 321.3 109.131C322.005 109.013 322.733 109.053 323.433 109.248Z" fill="white"/>
</mask>
<g mask="url(#mask1_28_14180)">
<path d="M345.647 105.268L318.376 100.89C316.322 100.56 314.448 101.992 314.19 104.088L312.944 114.209C312.686 116.305 314.142 118.272 316.196 118.601L343.467 122.98C345.521 123.309 347.395 121.877 347.653 119.781L348.899 109.661C349.157 107.565 347.701 105.598 345.647 105.268Z" fill="white"/>
</g>
<mask id="mask2_28_14180" style="mask-type:luminance" maskUnits="userSpaceOnUse" x="316" y="109" width="37" height="26">
<path d="M323.433 109.248L348.984 116.365C349.643 116.548 350.263 116.865 350.807 117.296C351.351 117.727 351.809 118.263 352.151 118.873C352.494 119.482 352.715 120.152 352.801 120.841C352.887 121.531 352.836 122.226 352.651 122.885L350.954 128.933C350.496 130.569 349.509 131.98 348.152 132.942C346.795 133.905 345.146 134.362 343.468 134.241L327.776 133.113C326.219 133.001 324.69 132.566 323.281 131.836C321.872 131.105 320.613 130.093 319.581 128.863C318.548 127.632 317.764 126.208 317.276 124.678C316.788 123.147 316.606 121.542 316.741 119.96L317.288 113.564C317.351 112.834 317.567 112.131 317.921 111.504C318.276 110.877 318.762 110.341 319.345 109.931C319.927 109.522 320.594 109.249 321.3 109.131C322.005 109.013 322.733 109.053 323.433 109.248Z" fill="#D25151"/>
</mask>
<g mask="url(#mask2_28_14180)">
<path d="M323.076 148.555C329.275 149.556 334.933 145.212 335.711 138.852C336.49 132.493 332.096 126.527 325.896 125.526C319.697 124.526 314.04 128.87 313.261 135.229C312.482 141.589 316.876 147.555 323.076 148.555Z" fill="#D25151"/>
</g>
<path d="M456.687 156.099C458.455 152.996 457.503 148.969 454.561 147.105C451.619 145.24 447.8 146.244 446.032 149.347L439.63 160.584C437.862 163.687 438.814 167.715 441.757 169.579C444.699 171.444 448.517 170.44 450.285 167.336L456.687 156.099Z" fill="#E79B7F"/>
<path d="M453.249 162.42L453.772 164.277C454.597 167.204 454.849 170.289 454.513 173.357C454.178 176.425 453.262 179.415 451.817 182.158C450.373 184.9 448.429 187.34 446.095 189.339C443.762 191.338 441.085 192.856 438.217 193.807L364.679 218.204C362.241 219.013 359.624 218.8 357.404 217.613C355.184 216.425 353.543 214.359 352.842 211.871L345.047 184.208C344.346 181.719 344.642 179.011 345.87 176.679C347.098 174.347 349.158 172.583 351.596 171.774L425.134 147.377C430.925 145.455 437.14 145.961 442.413 148.782C447.685 151.603 451.583 156.509 453.249 162.42Z" fill="#666161"/>
<mask id="mask3_28_14180" style="mask-type:luminance" maskUnits="userSpaceOnUse" x="344" y="146" width="111" height="73">
<path d="M453.302 162.333L453.821 164.183C454.639 167.099 454.884 170.174 454.542 173.234C454.199 176.293 453.276 179.277 451.825 182.014C450.374 184.752 448.423 187.19 446.085 189.189C443.746 191.188 441.065 192.709 438.195 193.665L364.583 218.188C362.143 219.001 359.526 218.796 357.308 217.618C355.09 216.44 353.453 214.386 352.758 211.906L345.025 184.35C344.329 181.871 344.632 179.171 345.865 176.843C347.099 174.515 349.164 172.75 351.604 171.937L425.216 147.414C431.013 145.483 437.228 145.97 442.495 148.768C447.763 151.566 451.65 156.445 453.302 162.333Z" fill="#FFCE8E"/>
</mask>
<g mask="url(#mask3_28_14180)">
<path d="M410.467 159.991L405.649 142.769C404.508 138.693 400.349 136.47 396.358 137.803L372.27 145.852C368.279 147.186 365.968 151.571 367.108 155.648L371.926 172.869C373.067 176.946 377.227 179.169 381.218 177.835L405.306 169.786C409.297 168.453 411.608 164.067 410.467 159.991Z" fill="#FFCE8E"/>
</g>
<path d="M470.172 167.383C474.637 165.9 477.216 161.002 475.933 156.442C474.649 151.882 469.989 149.387 465.524 150.87L447.452 156.871C442.987 158.354 440.408 163.252 441.691 167.812C442.975 172.372 447.636 174.866 452.101 173.383L470.172 167.383Z" fill="#666161"/>
<mask id="mask4_28_14180" style="mask-type:luminance" maskUnits="userSpaceOnUse" x="441" y="150" width="36" height="24">
<path d="M470.163 167.332C474.633 165.842 477.225 160.951 475.952 156.409C474.679 151.867 470.023 149.394 465.552 150.885L447.46 156.919C442.99 158.41 440.398 163.301 441.671 167.843C442.944 172.384 447.6 174.858 452.07 173.367L470.163 167.332Z" fill="#C85252"/>
</mask>
<g mask="url(#mask4_28_14180)">
<path d="M481.427 158.651L478.993 149.95C477.507 144.637 472.082 141.74 466.876 143.48L466.874 143.481C461.668 145.22 458.653 150.937 460.14 156.25L462.574 164.951C464.06 170.264 469.485 173.161 474.691 171.422L474.693 171.421C479.899 169.682 482.914 163.964 481.427 158.651Z" fill="#C85252"/>
</g>
<path d="M479.444 161.907L476.084 150.077C475.462 147.889 473.236 146.682 471.111 147.381C468.986 148.08 467.768 150.421 468.389 152.609L471.749 164.439C472.371 166.627 474.597 167.834 476.722 167.135C478.847 166.436 480.065 164.095 479.444 161.907Z" fill="#C85252"/>
<path d="M444.445 162.3L444.374 162.161C443.077 159.611 440.96 157.629 438.382 156.554C435.805 155.479 432.927 155.376 430.239 156.264" stroke="#887A7A" stroke-width="2.56" stroke-linecap="round"/>
<path d="M293.344 164.309C287.645 159.084 279.008 159.721 274.054 165.732C269.099 171.743 269.703 180.851 275.403 186.076L318.557 225.64C324.257 230.865 332.893 230.228 337.848 224.217C342.802 218.206 342.198 209.098 336.499 203.873L293.344 164.309Z" fill="#E79B7F"/>
<path d="M387.57 213.437C394.864 211.375 399.193 203.468 397.238 195.775C395.284 188.082 387.786 183.517 380.492 185.578L325.259 201.186C317.965 203.247 313.636 211.155 315.591 218.848C317.545 226.541 325.043 231.106 332.337 229.045L387.57 213.437Z" fill="#E79B7F"/>
<path d="M423.443 197.728L387.977 185.574C384.712 184.456 381.206 186.34 380.145 189.783C379.084 193.226 380.871 196.924 384.135 198.043L419.602 210.196C422.866 211.315 426.373 209.43 427.433 205.987C428.494 202.544 426.708 198.846 423.443 197.728Z" fill="#E79B7F"/>
<path d="M409.132 201.493L390.824 193.298C387.664 191.883 384.015 193.438 382.674 196.77C381.333 200.102 382.807 203.951 385.967 205.365L404.275 213.561C407.434 214.975 411.083 213.421 412.424 210.088C413.765 206.756 412.291 202.908 409.132 201.493Z" fill="#E79B7F"/>
<path d="M401.736 207.232L385.852 194.609C383.111 192.43 379.214 193.008 377.148 195.899C375.082 198.79 375.63 202.9 378.372 205.079L394.255 217.702C396.997 219.881 400.894 219.303 402.96 216.412C405.025 213.521 404.478 209.411 401.736 207.232Z" fill="#E79B7F"/>
<path d="M407.651 177.167L378.974 185.84C375.674 186.838 373.766 190.468 374.712 193.947C375.658 197.427 379.1 199.439 382.4 198.442L411.078 189.769C414.377 188.771 416.285 185.141 415.339 181.661C414.393 178.181 410.951 176.169 407.651 177.167Z" fill="#E79B7F"/>
<path d="M461.965 183.23C464.742 185.358 468.629 184.708 470.647 181.78C472.664 178.851 472.049 174.752 469.272 172.624L459.215 164.918C456.438 162.79 452.551 163.439 450.533 166.368C448.516 169.297 449.131 173.396 451.909 175.524L461.965 183.23Z" fill="#E79B7F"/>
<path d="M452.495 186.931C455.272 189.059 459.159 188.41 461.177 185.481C463.194 182.552 462.579 178.453 459.802 176.325L449.745 168.619C446.968 166.491 443.081 167.141 441.064 170.069C439.046 172.998 439.662 177.097 442.439 179.225L452.495 186.931Z" fill="#E79B7F"/>
<path d="M445.036 194.796C447.813 196.924 451.7 196.275 453.718 193.346C455.735 190.417 455.12 186.318 452.343 184.19L442.286 176.484C439.509 174.357 435.622 175.006 433.605 177.935C431.587 180.863 432.203 184.963 434.98 187.09L445.036 194.796Z" fill="#E79B7F"/>
<path d="M590.633 229.061H612.481C623.877 229.06 634.926 233.188 643.781 240.753C652.635 248.319 658.757 258.862 661.122 270.618L668.257 306.086C668.488 307.232 668.473 308.418 668.213 309.557C667.953 310.696 667.456 311.76 666.757 312.67C666.057 313.581 665.174 314.315 664.171 314.819C663.168 315.324 662.071 315.585 660.96 315.585H536.62C535.421 315.585 534.24 315.281 533.176 314.697C532.113 314.113 531.198 313.268 530.51 312.233C529.822 311.197 529.381 310.002 529.224 308.748C529.067 307.495 529.199 306.22 529.609 305.032L543.904 263.579C547.392 253.462 553.748 244.724 562.107 238.548C570.467 232.373 580.427 229.06 590.633 229.061Z" fill="#51AF13"/>
<path d="M585.639 221.195H617.958C619.59 221.195 621.207 221.534 622.715 222.193C624.223 222.852 625.593 223.818 626.748 225.035C627.902 226.252 628.818 227.698 629.442 229.288C630.067 230.879 630.389 232.583 630.389 234.305V242.402C630.388 244.614 629.857 246.79 628.844 248.727C627.832 250.665 626.371 252.3 624.598 253.482C622.824 254.663 620.796 255.353 618.703 255.485C616.609 255.618 614.517 255.189 612.623 254.24L599.004 247.415L590.427 252.646C588.683 253.71 586.704 254.271 584.689 254.272C582.674 254.273 580.694 253.715 578.949 252.653C577.203 251.592 575.754 250.064 574.746 248.224C573.738 246.384 573.208 244.296 573.208 242.171V234.305C573.208 230.828 574.518 227.494 576.849 225.035C579.18 222.577 582.342 221.195 585.639 221.195Z" fill="#78C800"/>
<path d="M612.986 210.707C612.986 203.467 607.421 197.598 600.556 197.598C593.69 197.598 588.125 203.467 588.125 210.707V229.061C588.125 236.301 593.69 242.171 600.556 242.171C607.421 242.171 612.986 236.301 612.986 229.061V210.707Z" fill="#A66740"/>
<path d="M573.902 88.082L632.388 96.7462C654.641 100.042 670.835 120.8 669.357 144.13L667.485 173.661C666.079 195.839 647.686 212.375 626.407 210.595C619.404 210.008 612.659 207.443 606.899 203.176L562.908 170.595C554.952 164.703 548.764 156.562 545.091 147.151C541.417 137.741 540.413 127.461 542.201 117.549L543.424 110.769C544.716 103.604 548.592 97.2647 554.258 93.0477C559.923 88.8307 566.95 87.0551 573.899 88.0842L573.902 88.082Z" fill="#2B2B2B"/>
<path d="M647.526 62.5601C636.534 55.0061 621.925 58.1643 614.894 69.6141C607.863 81.0638 611.073 96.4694 622.064 104.023L638.823 115.541C649.814 123.095 664.424 119.937 671.455 108.487C678.486 97.0376 675.275 81.632 664.284 74.0781L647.526 62.5601Z" fill="#2B2B2B"/>
<path d="M630.142 116.384C636.299 117.332 641.956 112.904 642.778 106.493C643.6 100.081 639.276 94.1149 633.12 93.1665C626.963 92.2181 621.306 96.6466 620.484 103.058C619.662 109.469 623.986 115.436 630.142 116.384Z" fill="#F49000"/>
<path d="M644.221 129.009C650.378 129.957 656.035 125.529 656.857 119.118C657.679 112.706 653.355 106.74 647.199 105.791C641.042 104.843 635.385 109.272 634.563 115.683C633.741 122.094 638.065 128.061 644.221 129.009Z" fill="#F49000"/>
<path d="M556.002 186.209C564.211 187.474 571.754 181.569 572.85 173.021C573.946 164.472 568.18 156.517 559.972 155.253C551.764 153.988 544.221 159.893 543.125 168.441C542.028 176.99 547.794 184.945 556.002 186.209Z" fill="#A66740"/>
<path d="M632.296 192.643C640.505 193.907 648.048 188.003 649.144 179.454C650.24 170.906 644.474 162.951 636.266 161.686C628.058 160.422 620.515 166.326 619.418 174.875C618.322 183.423 624.088 191.378 632.296 192.643Z" fill="#A66740"/>
<path d="M634.529 165.154L633.536 181.372C632.213 202.924 614.381 219.033 593.704 217.348C592.557 217.255 591.415 217.107 590.28 216.905L581.025 215.253C560.555 211.599 546.57 191.362 549.782 170.058C550.272 166.806 551.155 163.639 552.409 160.63L562.214 137.118C564.422 131.821 567.739 127.12 571.924 123.355C576.109 119.59 581.058 116.855 586.412 115.35L596.123 123.872C600.273 127.514 603.528 132.139 605.609 137.352C607.691 142.565 608.536 148.208 608.072 153.799C607.901 155.863 608.204 157.946 608.957 159.876C609.71 161.806 610.89 163.528 612.4 164.898C613.91 166.269 615.707 167.248 617.64 167.756C619.574 168.264 621.589 168.285 623.519 167.817L634.529 165.154Z" fill="#A66740"/>
<path d="M571.756 180.6L601.34 183.5C602.275 183.592 603.151 184.042 603.794 184.76C604.438 185.479 604.803 186.415 604.817 187.382L604.914 194.054C604.933 195.318 604.686 196.565 604.191 197.71C603.696 198.854 602.965 199.869 602.047 200.684C601.129 201.498 600.046 202.094 598.873 202.431C597.7 202.767 596.464 202.836 595.251 202.632L576.514 199.495C574.128 199.095 571.94 197.829 570.344 195.928C568.749 194.026 567.853 191.614 567.817 189.128L567.744 184.416C567.736 183.88 567.835 183.351 568.037 182.862C568.239 182.373 568.538 181.935 568.915 181.576C569.293 181.218 569.74 180.945 570.229 180.777C570.718 180.609 571.238 180.549 571.756 180.6Z" fill="#812B2B"/>
<mask id="mask5_28_14180" style="mask-type:luminance" maskUnits="userSpaceOnUse" x="567" y="180" width="38" height="23">
<path d="M571.682 180.601L601.328 183.661C602.265 183.758 603.145 184.21 603.793 184.927C604.441 185.643 604.811 186.573 604.829 187.532L604.959 194.147C604.984 195.4 604.743 196.635 604.253 197.767C603.762 198.898 603.034 199.899 602.119 200.701C601.203 201.503 600.122 202.087 598.949 202.414C597.775 202.74 596.538 202.8 595.321 202.591L576.539 199.362C574.147 198.951 571.949 197.683 570.342 195.788C568.735 193.892 567.825 191.496 567.777 189.031L567.681 184.359C567.67 183.828 567.768 183.303 567.968 182.82C568.167 182.337 568.465 181.904 568.841 181.551C569.217 181.198 569.664 180.931 570.153 180.767C570.642 180.604 571.163 180.547 571.682 180.601Z" fill="white"/>
</mask>
<g mask="url(#mask5_28_14180)">
<path d="M611.633 181.869L577.024 176.372C574.976 176.047 573.106 177.464 572.848 179.536L572.226 184.541C571.968 186.613 573.419 188.557 575.467 188.883L610.077 194.38C612.125 194.705 613.994 193.288 614.252 191.216L614.875 186.211C615.133 184.139 613.681 182.195 611.633 181.869Z" fill="white"/>
</g>
<mask id="mask6_28_14180" style="mask-type:luminance" maskUnits="userSpaceOnUse" x="567" y="180" width="38" height="23">
<path d="M571.682 180.601L601.328 183.661C602.265 183.758 603.145 184.21 603.793 184.927C604.441 185.643 604.811 186.573 604.829 187.532L604.959 194.147C604.984 195.4 604.743 196.635 604.253 197.767C603.762 198.898 603.034 199.899 602.119 200.701C601.203 201.503 600.122 202.087 598.949 202.414C597.775 202.74 596.538 202.8 595.321 202.591L576.539 199.362C574.147 198.951 571.949 197.683 570.342 195.788C568.735 193.892 567.825 191.496 567.777 189.031L567.681 184.359C567.67 183.828 567.768 183.303 567.968 182.82C568.167 182.337 568.465 181.904 568.841 181.551C569.217 181.198 569.664 180.931 570.153 180.767C570.642 180.604 571.163 180.547 571.682 180.601Z" fill="#D25151"/>
</mask>
<g mask="url(#mask6_28_14180)">
<path d="M590.577 225.344C598.152 226.564 605.067 221.25 606.021 213.475C606.975 205.7 601.607 198.408 594.032 197.188C586.456 195.968 579.542 201.281 578.588 209.056C577.634 216.832 583.002 224.124 590.577 225.344Z" fill="#D25151"/>
</g>
<path d="M582.142 146.129L574.668 144.981C573.292 144.769 572.028 145.756 571.844 147.186L568.85 170.48C568.666 171.91 569.633 173.24 571.008 173.451L578.482 174.6C579.858 174.812 581.122 173.824 581.306 172.395L584.3 149.1C584.484 147.671 583.517 146.341 582.142 146.129Z" fill="#8E4D27"/>
<path d="M597.614 152.657C597.936 150.155 596.244 147.827 593.836 147.457C591.427 147.087 589.214 148.815 588.892 151.317L587.395 162.966C587.073 165.467 588.765 167.796 591.173 168.166C593.582 168.536 595.795 166.808 596.117 164.306L597.614 152.657Z" fill="#7C482A"/>
<path d="M570.533 148.644C570.855 146.142 569.163 143.814 566.755 143.444C564.346 143.073 562.133 144.802 561.811 147.303L560.314 158.952C559.992 161.454 561.684 163.782 564.092 164.152C566.501 164.522 568.714 162.794 569.036 160.292L570.533 148.644Z" fill="#7C482A"/>
<path d="M364.747 250.036C365.608 245.595 367.897 241.604 371.227 238.737C374.556 235.871 378.722 234.305 383.02 234.304H392.965C395.732 234.3 398.466 234.947 400.965 236.2C402.713 233.965 404.908 232.165 407.394 230.931C409.879 229.697 412.593 229.058 415.34 229.061H432.743C435.191 229.058 437.615 229.565 439.878 230.551C442.14 231.538 444.196 232.985 445.928 234.81C447.66 236.635 449.033 238.803 449.97 241.188C450.907 243.573 451.389 246.13 451.388 248.712C451.388 248.717 451.388 248.72 451.376 248.725V250.036H453.874C455.507 250.036 457.123 250.375 458.631 251.034C460.14 251.693 461.51 252.659 462.664 253.876C463.818 255.093 464.734 256.538 465.359 258.129C465.983 259.72 466.305 261.424 466.305 263.146H346.972C346.972 259.669 348.281 256.334 350.613 253.876C352.944 251.417 356.105 250.036 359.402 250.036H364.747Z" fill="#FFD300"/>
<mask id="mask7_28_14180" style="mask-type:luminance" maskUnits="userSpaceOnUse" x="345" y="228" width="123" height="37">
<path d="M364.747 250.036C365.608 245.595 367.897 241.604 371.227 238.737C374.556 235.871 378.722 234.305 383.02 234.304H392.965C395.732 234.3 398.466 234.947 400.965 236.2C402.713 233.965 404.908 232.165 407.394 230.931C409.879 229.697 412.593 229.058 415.34 229.061H432.743C435.191 229.058 437.615 229.565 439.878 230.551C442.14 231.538 444.196 232.985 445.928 234.81C447.66 236.635 449.033 238.803 449.97 241.188C450.907 243.573 451.389 246.13 451.388 248.712C451.388 248.717 451.388 248.72 451.376 248.725V250.036H453.874C455.507 250.036 457.123 250.375 458.631 251.034C460.14 251.693 461.51 252.659 462.664 253.876C463.818 255.093 464.734 256.538 465.359 258.129C465.983 259.72 466.305 261.424 466.305 263.146H346.972C346.972 259.669 348.281 256.334 350.613 253.876C352.944 251.417 356.105 250.036 359.402 250.036H364.747Z" stroke="#FFB400" stroke-width="2"/>
</mask>
<g mask="url(#mask7_28_14180)">
<path d="M425.284 239.549H422.798C412.5 239.549 404.152 248.353 404.152 259.213C404.152 270.074 412.5 278.878 422.798 278.878H425.284C435.582 278.878 443.93 270.074 443.93 259.213C443.93 248.353 435.582 239.549 425.284 239.549Z" stroke="#FFB400" stroke-width="2"/>
<path d="M431.499 259.214C431.499 254.146 427.604 250.037 422.798 250.037C417.992 250.037 414.097 254.146 414.097 259.214V280.19C414.097 285.258 417.992 289.366 422.798 289.366C427.604 289.366 431.499 285.258 431.499 280.19V259.214Z" stroke="#FFB400" stroke-width="2"/>
<path d="M394.208 255.281C394.208 249.489 389.756 244.793 384.264 244.793C378.772 244.793 374.319 249.489 374.319 255.281V273.634C374.319 279.427 378.772 284.122 384.264 284.122C389.756 284.122 394.208 279.427 394.208 273.634V255.281Z" stroke="#FFB400" stroke-width="2"/>
</g>
<path d="M353.187 297.23H460.09C461.079 297.23 462.028 297.645 462.727 298.382C463.426 299.12 463.819 300.12 463.819 301.163C463.819 302.206 463.426 303.207 462.727 303.944C462.028 304.682 461.079 305.096 460.09 305.096H353.187C352.198 305.096 351.25 304.682 350.55 303.944C349.851 303.207 349.458 302.206 349.458 301.163C349.458 300.12 349.851 299.12 350.55 298.382C351.25 297.645 352.198 297.23 353.187 297.23Z" fill="#923838"/>
<path d="M345.729 263.146H467.548C469.197 263.146 470.778 263.837 471.943 265.066C473.109 266.296 473.764 267.963 473.764 269.701V281.5C473.764 286.368 471.93 291.036 468.667 294.478C465.403 297.92 460.976 299.854 456.361 299.854H356.916C352.301 299.854 347.874 297.92 344.611 294.478C341.347 291.036 339.514 286.368 339.514 281.5V269.701C339.514 267.963 340.169 266.296 341.334 265.066C342.5 263.837 344.081 263.146 345.729 263.146Z" fill="#A34242"/>
<path d="M437.626 288.327V258.951M450.226 256.633V272.897M360.726 259.255V275.519" stroke="#FFD300" stroke-width="3" stroke-linecap="round"/>
<path d="M544.669 298.884L518.992 247.953C515.446 240.921 507.167 238.252 500.499 241.991C493.831 245.73 491.3 254.462 494.845 261.494L520.523 312.425C524.068 319.457 532.348 322.126 539.015 318.387C545.683 314.648 548.214 305.917 544.669 298.884Z" fill="#A66740"/>
<path d="M498.625 244.793H481.222C477.103 244.793 473.764 248.315 473.764 252.659C473.764 257.003 477.103 260.525 481.222 260.525H498.625C502.744 260.525 506.083 257.003 506.083 252.659C506.083 248.315 502.744 244.793 498.625 244.793Z" fill="#A66740"/>
<path d="M498.624 268.39V238.963C493.681 237.774 489.267 234.849 486.105 230.668C482.944 226.487 481.222 221.298 481.222 215.951V189.731C481.222 187.645 482.007 185.644 483.406 184.169C484.805 182.694 486.702 181.865 488.68 181.865H518.513C520.491 181.865 522.388 182.694 523.787 184.169C525.186 185.644 525.972 187.645 525.972 189.731V215.951C525.971 221.298 524.25 226.487 521.088 230.668C517.926 234.849 513.512 237.774 508.569 238.963V268.39H514.784C515.773 268.39 516.722 268.804 517.421 269.542C518.12 270.279 518.513 271.279 518.513 272.323C518.513 273.366 518.12 274.366 517.421 275.104C516.722 275.841 515.773 276.255 514.784 276.255H492.409C491.42 276.255 490.472 275.841 489.772 275.104C489.073 274.366 488.68 273.366 488.68 272.323C488.68 271.279 489.073 270.279 489.772 269.542C490.472 268.804 491.42 268.39 492.409 268.39H498.624Z" fill="#BBF2FF" fill-opacity="0.8"/>
<path d="M518.513 231.682H511.055C506.936 231.682 503.597 235.203 503.597 239.547C503.597 243.892 506.936 247.413 511.055 247.413H518.513C522.632 247.413 525.972 243.892 525.972 239.547C525.972 235.203 522.632 231.682 518.513 231.682Z" fill="#A66740"/>
<path d="M493.653 221.195H486.195C482.076 221.195 478.736 224.717 478.736 229.061C478.736 233.405 482.076 236.927 486.195 236.927H493.653C497.772 236.927 501.111 233.405 501.111 229.061C501.111 224.717 497.772 221.195 493.653 221.195Z" fill="#A66740"/>
<path d="M498.625 231.682H491.166C487.047 231.682 483.708 235.203 483.708 239.547C483.708 243.892 487.047 247.413 491.166 247.413H498.625C502.744 247.413 506.083 243.892 506.083 239.547C506.083 235.203 502.744 231.682 498.625 231.682Z" fill="#A66740"/>
<path d="M160.514 271.011H167.972C171.269 271.011 174.431 272.392 176.762 274.851C179.093 277.31 180.403 280.644 180.403 284.121V286.743H105.819V284.121C105.819 280.644 107.129 277.31 109.46 274.851C111.791 272.392 114.953 271.011 118.25 271.011C118.25 268.23 119.298 265.562 121.163 263.595C123.027 261.628 125.557 260.523 128.194 260.523H150.569C153.207 260.523 155.736 261.628 157.601 263.595C159.466 265.562 160.514 268.23 160.514 271.011Z" fill="#FFD300"/>
<mask id="mask8_28_14180" style="mask-type:luminance" maskUnits="userSpaceOnUse" x="104" y="259" width="78" height="29">
<path d="M160.514 271.011H167.972C171.269 271.011 174.431 272.392 176.762 274.851C179.093 277.31 180.403 280.644 180.403 284.121V286.743H105.819V284.121C105.819 280.644 107.129 277.31 109.46 274.851C111.791 272.392 114.953 271.011 118.25 271.011C118.25 268.23 119.298 265.562 121.163 263.595C123.027 261.628 125.557 260.523 128.194 260.523H150.569C153.207 260.523 155.736 261.628 157.601 263.595C159.466 265.562 160.514 268.23 160.514 271.011Z" stroke="#FFB400" stroke-width="2"/>
</mask>
<g mask="url(#mask8_28_14180)">
<path d="M140.624 268.389H135.652C128.787 268.389 123.222 274.258 123.222 281.498C123.222 288.739 128.787 294.608 135.652 294.608H140.624C147.49 294.608 153.055 288.739 153.055 281.498C153.055 274.258 147.49 268.389 140.624 268.389Z" stroke="#FFB400" stroke-width="2"/>
</g>
<mask id="mask9_28_14180" style="mask-type:luminance" maskUnits="userSpaceOnUse" x="104" y="259" width="78" height="29">
<path d="M160.514 271.011H167.972C171.269 271.011 174.431 272.392 176.762 274.851C179.093 277.31 180.403 280.644 180.403 284.121V286.743H105.819V284.121C105.819 280.644 107.129 277.31 109.46 274.851C111.791 272.392 114.953 271.011 118.25 271.011C118.25 268.23 119.298 265.562 121.163 263.595C123.027 261.628 125.557 260.523 128.194 260.523H150.569C153.207 260.523 155.736 261.628 157.601 263.595C159.466 265.562 160.514 268.23 160.514 271.011Z" stroke="#FFB400" stroke-width="2"/>
</mask>
<g mask="url(#mask9_28_14180)">
<path d="M143.111 282.811C143.111 279.191 140.329 276.256 136.896 276.256C133.463 276.256 130.681 279.191 130.681 282.811V295.92C130.681 299.541 133.463 302.475 136.896 302.475C140.329 302.475 143.111 299.541 143.111 295.92V282.811Z" stroke="#FFB400" stroke-width="2"/>
</g>
<mask id="mask10_28_14180" style="mask-type:luminance" maskUnits="userSpaceOnUse" x="104" y="259" width="78" height="29">
<path d="M160.514 271.011H167.972C171.269 271.011 174.431 272.392 176.762 274.851C179.093 277.31 180.403 280.644 180.403 284.121V286.743H105.819V284.121C105.819 280.644 107.129 277.31 109.46 274.851C111.791 272.392 114.953 271.011 118.25 271.011C118.25 268.23 119.298 265.562 121.163 263.595C123.027 261.628 125.557 260.523 128.194 260.523H150.569C153.207 260.523 155.736 261.628 157.601 263.595C159.466 265.562 160.514 268.23 160.514 271.011Z" stroke="#FFB400" stroke-width="2"/>
</mask>
<g mask="url(#mask10_28_14180)">
<path d="M172.944 288.055C172.944 284.435 170.162 281.5 166.729 281.5C163.296 281.5 160.514 284.435 160.514 288.055V301.165C160.514 304.785 163.296 307.72 166.729 307.72C170.162 307.72 172.944 304.785 172.944 301.165V288.055Z" stroke="#FFB400" stroke-width="2"/>
</g>
<path d="M599.312 297.232H532.187C530.128 297.232 528.458 298.993 528.458 301.165C528.458 303.337 530.128 305.098 532.187 305.098H599.312C601.372 305.098 603.041 303.337 603.041 301.165C603.041 298.993 601.372 297.232 599.312 297.232Z" fill="#BAD3DB"/>
<path d="M348.215 297.232H281.09C279.031 297.232 277.361 298.993 277.361 301.165C277.361 303.337 279.031 305.098 281.09 305.098H348.215C350.275 305.098 351.945 303.337 351.945 301.165C351.945 298.993 350.275 297.232 348.215 297.232Z" fill="#BAD3DB"/>
<path d="M176.674 297.232H109.549C107.489 297.232 105.819 298.993 105.819 301.165C105.819 303.337 107.489 305.098 109.549 305.098H176.674C178.733 305.098 180.403 303.337 180.403 301.165C180.403 298.993 178.733 297.232 176.674 297.232Z" fill="#BAD3DB"/>
<path d="M604.285 286.744H527.215C523.783 286.744 521 289.679 521 293.299C521 296.919 523.783 299.854 527.215 299.854H604.285C607.717 299.854 610.5 296.919 610.5 293.299C610.5 289.679 607.717 286.744 604.285 286.744Z" fill="#DBE7EB"/>
<path d="M353.187 286.744H276.118C272.685 286.744 269.902 289.679 269.902 293.299C269.902 296.919 272.685 299.854 276.118 299.854H353.187C356.62 299.854 359.402 296.919 359.402 293.299C359.402 289.679 356.62 286.744 353.187 286.744Z" fill="#DBE7EB"/>
<path d="M181.646 286.744H104.577C101.144 286.744 98.3613 289.679 98.3613 293.299C98.3613 296.919 101.144 299.854 104.577 299.854H181.646C185.079 299.854 187.861 296.919 187.861 293.299C187.861 289.679 185.079 286.744 181.646 286.744Z" fill="#DBE7EB"/>
<path d="M677.625 305.098H6.37457C3.62848 305.098 1.40234 307.445 1.40234 310.342V326.073C1.40234 328.969 3.62848 331.317 6.37457 331.317H677.625C680.371 331.317 682.597 328.969 682.597 326.073V310.342C682.597 307.445 680.371 305.098 677.625 305.098Z" fill="#CD7900"/>
<path d="M212.722 297.231V267.805C207.779 266.616 203.365 263.691 200.203 259.51C197.041 255.329 195.32 250.14 195.319 244.792V218.573C195.319 216.487 196.105 214.486 197.504 213.011C198.903 211.536 200.8 210.707 202.778 210.707H232.611C234.589 210.707 236.486 211.536 237.885 213.011C239.284 214.486 240.069 216.487 240.069 218.573V244.792C240.069 250.14 238.347 255.329 235.186 259.51C232.024 263.691 227.61 266.616 222.667 267.805V297.231H228.882C229.871 297.231 230.819 297.646 231.519 298.383C232.218 299.121 232.611 300.121 232.611 301.164C232.611 302.207 232.218 303.208 231.519 303.945C230.819 304.683 229.871 305.097 228.882 305.097H206.507C205.518 305.097 204.569 304.683 203.87 303.945C203.171 303.208 202.778 302.207 202.778 301.164C202.778 300.121 203.171 299.121 203.87 298.383C204.569 297.646 205.518 297.231 206.507 297.231H212.722Z" fill="#BBF2FF" fill-opacity="0.8"/>
<path d="M147.686 215.631C144.404 214.573 140.929 216.522 139.926 219.983C138.922 223.445 140.769 227.11 144.052 228.168L155.939 232.001C159.222 233.06 162.697 231.111 163.7 227.649C164.704 224.187 162.856 220.523 159.574 219.464L147.686 215.631Z" fill="#FFB59F"/>
<path d="M174.66 235.316L152.671 217.198C148.738 220.575 143.835 222.443 138.765 222.496C133.695 222.55 128.757 220.787 124.761 217.495L105.171 201.351C103.613 200.067 102.602 198.183 102.361 196.113C102.12 194.043 102.669 191.957 103.886 190.313L122.253 165.517C123.471 163.873 125.258 162.807 127.221 162.553C129.185 162.299 131.163 162.877 132.722 164.162L152.313 180.305C156.308 183.597 159.126 188.223 160.303 193.425C161.481 198.627 160.948 204.096 158.794 208.937L180.781 227.052L184.607 221.887C185.217 221.068 186.11 220.539 187.09 220.414C188.07 220.288 189.056 220.578 189.834 221.219C190.612 221.86 191.117 222.799 191.239 223.832C191.361 224.865 191.089 225.907 190.484 226.729L176.709 245.324C176.099 246.142 175.206 246.672 174.226 246.797C173.246 246.922 172.259 246.633 171.482 245.992C170.704 245.351 170.199 244.411 170.077 243.378C169.955 242.345 170.226 241.304 170.832 240.481L174.66 235.316Z" fill="#BBF2FF" fill-opacity="0.8"/>
<path d="M172.075 203.877C173.136 200.434 171.35 196.736 168.085 195.617C164.82 194.499 161.314 196.383 160.253 199.826L156.412 212.294C155.351 215.737 157.138 219.435 160.402 220.554C163.667 221.672 167.173 219.788 168.234 216.345L172.075 203.877Z" fill="#FFB59F"/>
<path d="M179.533 214.363C180.594 210.92 178.808 207.222 175.543 206.104C172.278 204.985 168.772 206.869 167.711 210.312L163.87 222.78C162.809 226.223 164.596 229.921 167.86 231.04C171.125 232.159 174.631 230.274 175.692 226.831L179.533 214.363Z" fill="#FFB59F"/>
<path d="M189.478 214.363C190.538 210.92 188.752 207.222 185.487 206.104C182.223 204.985 178.716 206.869 177.656 210.312L173.814 222.78C172.754 226.223 174.54 229.921 177.805 231.04C181.069 232.159 184.576 230.274 185.636 226.831L189.478 214.363Z" fill="#FFB59F"/>
<path d="M141.707 194.018L146.841 192.353C148.176 191.919 149.602 191.911 150.942 192.33C152.281 192.748 153.473 193.575 154.368 194.706C155.263 195.837 155.821 197.222 155.972 198.687C156.123 200.152 155.86 201.631 155.216 202.938L153.056 207.33C151.858 209.764 150.159 211.885 148.083 213.537C146.006 215.188 143.606 216.329 141.057 216.874C138.509 217.42 135.877 217.357 133.354 216.69C130.831 216.023 128.483 214.769 126.479 213.019L112.097 200.46C111.686 200.102 111.395 199.614 111.267 199.068C111.139 198.523 111.181 197.948 111.386 197.429C111.591 196.91 111.95 196.474 112.408 196.186C112.865 195.899 113.399 195.774 113.93 195.83L119.2 196.386C126.777 197.185 134.429 196.38 141.707 194.018Z" fill="#A34242"/>
<path d="M38.9752 256.79L28.6132 268.107C26.7056 270.19 26.7605 273.51 28.7359 275.522L48.4078 295.557C50.3832 297.568 53.531 297.51 55.4386 295.427L65.8005 284.111C67.7081 282.027 67.6532 278.708 65.6778 276.696L46.0059 256.661C44.0305 254.649 40.8828 254.707 38.9752 256.79Z" fill="#5CCBFF"/>
</svg>
