<svg width="397" height="42" viewBox="0 0 397 42" fill="none" xmlns="http://www.w3.org/2000/svg">
<path d="M21.84 0.599998C22.64 0.599998 23.04 1.08 23.04 2.04V29.96C23.04 30.92 22.6267 31.4 21.8 31.4C21.24 31.4 20.6133 31.1733 19.92 30.72C19.2267 30.24 18.6133 29.6 18.08 28.8C17.36 29.6533 16.3467 30.3733 15.04 30.96C13.7333 31.52 12.32 31.8 10.8 31.8C7.68 31.8 5.13333 30.7733 3.16 28.72C1.18667 26.64 0.2 24 0.2 20.8C0.2 17.6533 1.18667 15.04 3.16 12.96C5.16 10.8533 7.70667 9.8 10.8 9.8C13.0133 9.8 14.96 10.3867 16.64 11.56V8.6C16.64 6.22667 17.1733 4.30666 18.24 2.84C19.3333 1.34666 20.5333 0.599998 21.84 0.599998ZM8.12 24.6C9.08 25.56 10.2667 26.04 11.68 26.04C13.0933 26.04 14.2667 25.56 15.2 24.6C16.16 23.6133 16.64 22.3467 16.64 20.8C16.64 19.2533 16.16 18 15.2 17.04C14.2667 16.0533 13.0933 15.56 11.68 15.56C10.2667 15.56 9.08 16.0533 8.12 17.04C7.16 18 6.68 19.2533 6.68 20.8C6.68 22.3467 7.16 23.6133 8.12 24.6ZM47.4816 10.6C48.2549 10.6 48.8016 10.7733 49.1216 11.12C49.4416 11.44 49.6016 11.9733 49.6016 12.72V29.96C49.6016 30.92 49.1882 31.4 48.3616 31.4C47.8016 31.4 47.1749 31.1733 46.4816 30.72C45.7882 30.24 45.1749 29.5867 44.6416 28.76C42.9082 30.7867 40.6549 31.8 37.8816 31.8C35.2416 31.8 33.0549 30.9733 31.3216 29.32C29.3749 27.4533 28.4016 24.5333 28.4016 20.56V12.72C28.4016 11.9467 28.5616 11.4 28.8816 11.08C29.2282 10.76 29.7749 10.6 30.5216 10.6H32.6816C33.4282 10.6 33.9616 10.76 34.2816 11.08C34.6282 11.4 34.8016 11.9467 34.8016 12.72V19.96C34.8016 22.2 35.2149 23.7467 36.0416 24.6C36.7349 25.3467 37.6949 25.72 38.9216 25.72C40.2016 25.72 41.2282 25.2933 42.0016 24.44C42.8016 23.56 43.2016 22.1333 43.2016 20.16V12.72C43.2016 11.9733 43.3616 11.44 43.6816 11.12C44.0016 10.7733 44.5482 10.6 45.3216 10.6H47.4816ZM73.6237 28.68C71.4637 30.76 68.7571 31.8 65.5037 31.8C62.2504 31.8 59.5437 30.76 57.3837 28.68C55.2237 26.6 54.1437 23.9733 54.1437 20.8C54.1437 17.6 55.2237 14.9733 57.3837 12.92C59.5437 10.84 62.2504 9.8 65.5037 9.8C68.7571 9.8 71.4637 10.84 73.6237 12.92C75.7838 14.9733 76.8638 17.6 76.8638 20.8C76.8638 23.9733 75.7838 26.6 73.6237 28.68ZM61.9437 24.6C62.8237 25.56 64.0104 26.04 65.5037 26.04C66.9971 26.04 68.1837 25.56 69.0637 24.6C69.9437 23.6133 70.3837 22.3467 70.3837 20.8C70.3837 19.2533 69.9437 18 69.0637 17.04C68.1837 16.0533 66.9971 15.56 65.5037 15.56C64.0104 15.56 62.8237 16.0533 61.9437 17.04C61.0637 18 60.6237 19.2533 60.6237 20.8C60.6237 22.3467 61.0637 23.6133 61.9437 24.6ZM83.5409 31C82.7676 31 82.2209 30.84 81.9009 30.52C81.5809 30.1733 81.4209 29.6267 81.4209 28.88V8.6C81.4209 6.22667 81.9543 4.30666 83.0209 2.84C84.1143 1.34666 85.3143 0.599998 86.6209 0.599998C87.4209 0.599998 87.8209 1.08 87.8209 2.04V28.88C87.8209 29.6267 87.6609 30.1733 87.3409 30.52C87.0209 30.84 86.4743 31 85.7009 31H83.5409ZM96.9444 7.36C95.931 7.36 95.0644 7.02667 94.3444 6.36C93.651 5.66667 93.3044 4.84 93.3044 3.88C93.3044 2.89333 93.651 2.06667 94.3444 1.4C95.0644 0.733332 95.931 0.399998 96.9444 0.399998C97.931 0.399998 98.7844 0.746665 99.5044 1.44C100.224 2.10667 100.584 2.92 100.584 3.88C100.584 4.84 100.224 5.66667 99.5044 6.36C98.7844 7.02667 97.931 7.36 96.9444 7.36ZM95.8644 31C95.1177 31 94.571 30.84 94.2244 30.52C93.9044 30.2 93.7444 29.6533 93.7444 28.88V12.72C93.7444 11.9467 93.9044 11.4 94.2244 11.08C94.571 10.76 95.1177 10.6 95.8644 10.6H98.0244C98.771 10.6 99.3044 10.76 99.6244 11.08C99.971 11.4 100.144 11.9467 100.144 12.72V28.88C100.144 29.6533 99.971 30.2 99.6244 30.52C99.3044 30.84 98.771 31 98.0244 31H95.8644ZM125.228 12.76C126.854 14.6533 127.668 17.4667 127.668 21.2V28.88C127.668 29.6533 127.494 30.2 127.148 30.52C126.828 30.84 126.294 31 125.548 31H123.388C122.641 31 122.094 30.84 121.748 30.52C121.428 30.2 121.268 29.6533 121.268 28.88V21.4C121.268 19.5067 120.934 18.1333 120.268 17.28C119.548 16.3467 118.468 15.88 117.028 15.88C115.588 15.88 114.468 16.3467 113.668 17.28C112.868 18.2133 112.468 19.5733 112.468 21.36V28.88C112.468 29.6267 112.308 30.1733 111.988 30.52C111.668 30.84 111.121 31 110.348 31H108.188C107.414 31 106.868 30.84 106.548 30.52C106.228 30.1733 106.068 29.6267 106.068 28.88V11.64C106.068 10.68 106.481 10.2 107.308 10.2C107.894 10.2 108.534 10.44 109.228 10.92C109.921 11.3733 110.534 12.0267 111.068 12.88C111.894 11.8933 112.921 11.1333 114.148 10.6C115.401 10.0667 116.681 9.8 117.988 9.8C121.081 9.8 123.494 10.7867 125.228 12.76ZM142.48 41.2C139.12 41.2 136.413 40.36 134.36 38.68C132.306 37 131.28 34.7733 131.28 32C131.28 30.48 131.666 29.04 132.44 27.68C133.213 26.2933 134.253 25.2667 135.56 24.6C133.453 22.8667 132.4 20.8133 132.4 18.44C132.4 15.9867 133.293 13.9733 135.08 12.4C136.866 10.8 139.226 10 142.16 10C143.466 10 144.746 10.1067 146 10.32C147.28 10.5067 148.2 10.6 148.76 10.6C150.04 10.6 151.346 10.24 152.68 9.52C153.186 9.25333 153.613 9.12 153.96 9.12C154.786 9.12 155.2 9.72 155.2 10.92C155.2 13.32 154.12 14.9067 151.96 15.68C152.36 16.5067 152.56 17.4267 152.56 18.44C152.56 20.7333 151.506 22.7867 149.4 24.6C150.706 25.24 151.746 26.2533 152.52 27.64C153.293 29 153.68 30.4533 153.68 32C153.68 34.7733 152.653 37 150.6 38.68C148.573 40.36 145.866 41.2 142.48 41.2ZM139.68 21.48C140.453 22.2 141.386 22.56 142.48 22.56C143.573 22.56 144.493 22.2 145.24 21.48C146.013 20.7333 146.4 19.84 146.4 18.8C146.4 17.68 146.04 16.7733 145.32 16.08C144.6 15.3867 143.653 15.04 142.48 15.04C141.306 15.04 140.36 15.3867 139.64 16.08C138.92 16.7733 138.56 17.68 138.56 18.8C138.56 19.84 138.933 20.7333 139.68 21.48ZM142.48 36C143.84 36 144.986 35.5867 145.92 34.76C146.88 33.96 147.36 32.9733 147.36 31.8C147.36 30.5467 146.906 29.5333 146 28.76C145.12 27.9867 143.946 27.6 142.48 27.6C141.013 27.6 139.826 27.9867 138.92 28.76C138.04 29.5333 137.6 30.5467 137.6 31.8C137.6 32.9733 138.066 33.96 139 34.76C139.933 35.5867 141.093 36 142.48 36ZM176.491 28.68C174.331 30.76 171.624 31.8 168.371 31.8C165.118 31.8 162.411 30.76 160.251 28.68C158.091 26.6 157.011 23.9733 157.011 20.8C157.011 17.6 158.091 14.9733 160.251 12.92C162.411 10.84 165.118 9.8 168.371 9.8C171.624 9.8 174.331 10.84 176.491 12.92C178.651 14.9733 179.731 17.6 179.731 20.8C179.731 23.9733 178.651 26.6 176.491 28.68ZM164.811 24.6C165.691 25.56 166.878 26.04 168.371 26.04C169.864 26.04 171.051 25.56 171.931 24.6C172.811 23.6133 173.251 22.3467 173.251 20.8C173.251 19.2533 172.811 18 171.931 17.04C171.051 16.0533 169.864 15.56 168.371 15.56C166.878 15.56 165.691 16.0533 164.811 17.04C163.931 18 163.491 19.2533 163.491 20.8C163.491 22.3467 163.931 23.6133 164.811 24.6ZM209.997 28.64C210.184 28.96 210.277 29.28 210.277 29.6C210.277 30.0533 210.117 30.44 209.797 30.76C209.477 31.0533 209.064 31.2 208.557 31.2C207.971 31.2 207.477 30.92 207.077 30.36L206.317 29.16H206.277C205.637 29.88 204.851 30.44 203.917 30.84C202.984 31.24 201.811 31.44 200.397 31.44C198.237 31.44 196.571 30.9467 195.397 29.96C194.224 28.9467 193.637 27.52 193.637 25.68C193.637 23.68 194.277 22.2 195.557 21.24C196.864 20.2533 198.717 19.76 201.117 19.76H205.477C205.637 19.76 205.717 19.68 205.717 19.52V18.6C205.717 17.24 205.371 16.2 204.677 15.48C203.984 14.76 202.797 14.4 201.117 14.4C200.371 14.4 199.637 14.5067 198.917 14.72C198.224 14.9067 197.651 15.12 197.197 15.36C196.824 15.5467 196.504 15.64 196.237 15.64C195.784 15.64 195.424 15.52 195.157 15.28C194.917 15.0133 194.797 14.6533 194.797 14.2C194.797 13.9333 194.851 13.68 194.957 13.44C195.091 13.2 195.304 13 195.597 12.84C196.211 12.44 196.997 12.1067 197.957 11.84C198.944 11.5467 200.104 11.4 201.437 11.4C204.024 11.4 205.917 12 207.117 13.2C208.344 14.4 208.957 16.1867 208.957 18.56V25.44C208.957 25.9467 208.984 26.3333 209.037 26.6C209.091 26.84 209.184 27.1067 209.317 27.4L209.997 28.64ZM200.877 28.56C202.371 28.56 203.544 28.24 204.397 27.6C205.277 26.9333 205.717 26 205.717 24.8V22.68C205.717 22.52 205.637 22.44 205.477 22.44H201.637C199.984 22.44 198.771 22.6933 197.997 23.2C197.251 23.68 196.877 24.4667 196.877 25.56C196.877 26.5733 197.224 27.3333 197.917 27.84C198.611 28.32 199.597 28.56 200.877 28.56ZM217.858 8C217.245 8 216.725 7.78667 216.298 7.36C215.872 6.93333 215.658 6.41333 215.658 5.8C215.658 5.18666 215.872 4.66666 216.298 4.24C216.725 3.81333 217.245 3.6 217.858 3.6C218.472 3.6 218.992 3.81333 219.418 4.24C219.845 4.66666 220.058 5.18666 220.058 5.8C220.058 6.41333 219.845 6.93333 219.418 7.36C218.992 7.78667 218.472 8 217.858 8ZM216.178 13.44C216.178 12.88 216.338 12.44 216.658 12.12C216.978 11.8 217.378 11.64 217.858 11.64C218.338 11.64 218.738 11.8 219.058 12.12C219.378 12.44 219.538 12.88 219.538 13.44V29.4C219.538 29.96 219.378 30.4 219.058 30.72C218.738 31.04 218.338 31.2 217.858 31.2C217.378 31.2 216.978 31.04 216.658 30.72C216.338 30.4 216.178 29.96 216.178 29.4V13.44ZM252.788 28.64C252.974 28.96 253.068 29.28 253.068 29.6C253.068 30.0533 252.908 30.44 252.588 30.76C252.268 31.0533 251.854 31.2 251.348 31.2C250.761 31.2 250.268 30.92 249.868 30.36L249.108 29.16H249.068C248.428 29.88 247.641 30.44 246.708 30.84C245.774 31.24 244.601 31.44 243.188 31.44C241.028 31.44 239.361 30.9467 238.188 29.96C237.014 28.9467 236.428 27.52 236.428 25.68C236.428 23.68 237.068 22.2 238.348 21.24C239.654 20.2533 241.508 19.76 243.908 19.76H248.268C248.428 19.76 248.508 19.68 248.508 19.52V18.6C248.508 17.24 248.161 16.2 247.468 15.48C246.774 14.76 245.588 14.4 243.908 14.4C243.161 14.4 242.428 14.5067 241.708 14.72C241.014 14.9067 240.441 15.12 239.988 15.36C239.614 15.5467 239.294 15.64 239.028 15.64C238.574 15.64 238.214 15.52 237.948 15.28C237.708 15.0133 237.588 14.6533 237.588 14.2C237.588 13.9333 237.641 13.68 237.748 13.44C237.881 13.2 238.094 13 238.388 12.84C239.001 12.44 239.788 12.1067 240.748 11.84C241.734 11.5467 242.894 11.4 244.228 11.4C246.814 11.4 248.708 12 249.908 13.2C251.134 14.4 251.748 16.1867 251.748 18.56V25.44C251.748 25.9467 251.774 26.3333 251.828 26.6C251.881 26.84 251.974 27.1067 252.108 27.4L252.788 28.64ZM243.668 28.56C245.161 28.56 246.334 28.24 247.188 27.6C248.068 26.9333 248.508 26 248.508 24.8V22.68C248.508 22.52 248.428 22.44 248.268 22.44H244.428C242.774 22.44 241.561 22.6933 240.788 23.2C240.041 23.68 239.668 24.4667 239.668 25.56C239.668 26.5733 240.014 27.3333 240.708 27.84C241.401 28.32 242.388 28.56 243.668 28.56ZM265.449 31.44C263.982 31.44 262.649 31.2267 261.449 30.8C260.276 30.3733 259.289 29.88 258.489 29.32C257.956 28.9467 257.689 28.48 257.689 27.92C257.689 27.52 257.836 27.1733 258.129 26.88C258.422 26.56 258.796 26.4 259.249 26.4C259.409 26.4 259.569 26.4267 259.729 26.48C259.916 26.5333 260.129 26.6267 260.369 26.76C261.142 27.2133 261.956 27.6133 262.809 27.96C263.662 28.28 264.636 28.44 265.729 28.44C267.116 28.44 268.156 28.1733 268.849 27.64C269.569 27.1067 269.929 26.4133 269.929 25.56C269.929 24.76 269.676 24.1467 269.169 23.72C268.689 23.2933 267.689 23 266.169 22.84L264.169 22.64C262.276 22.4267 260.849 21.8667 259.889 20.96C258.929 20.0267 258.449 18.7867 258.449 17.24C258.449 15.4 259.062 13.9733 260.289 12.96C261.516 11.92 263.262 11.4 265.529 11.4C266.649 11.4 267.689 11.5333 268.649 11.8C269.636 12.04 270.502 12.3733 271.249 12.8C271.916 13.1467 272.249 13.6133 272.249 14.2C272.249 14.6 272.102 14.9467 271.809 15.24C271.542 15.5067 271.209 15.64 270.809 15.64C270.462 15.64 270.062 15.5333 269.609 15.32C268.969 15.0267 268.289 14.7867 267.569 14.6C266.876 14.4133 266.142 14.32 265.369 14.32C264.169 14.32 263.262 14.5733 262.649 15.08C262.036 15.56 261.729 16.1867 261.729 16.96C261.729 17.7333 261.996 18.3333 262.529 18.76C263.062 19.16 264.049 19.4267 265.489 19.56L267.489 19.76C269.489 19.9733 270.942 20.5467 271.849 21.48C272.782 22.3867 273.249 23.6267 273.249 25.2C273.249 27.0933 272.582 28.6133 271.249 29.76C269.942 30.88 268.009 31.44 265.449 31.44ZM285.858 31.44C284.392 31.44 283.058 31.2267 281.858 30.8C280.685 30.3733 279.698 29.88 278.898 29.32C278.365 28.9467 278.098 28.48 278.098 27.92C278.098 27.52 278.245 27.1733 278.538 26.88C278.832 26.56 279.205 26.4 279.658 26.4C279.818 26.4 279.978 26.4267 280.138 26.48C280.325 26.5333 280.538 26.6267 280.778 26.76C281.552 27.2133 282.365 27.6133 283.218 27.96C284.072 28.28 285.045 28.44 286.138 28.44C287.525 28.44 288.565 28.1733 289.258 27.64C289.978 27.1067 290.338 26.4133 290.338 25.56C290.338 24.76 290.085 24.1467 289.578 23.72C289.098 23.2933 288.098 23 286.578 22.84L284.578 22.64C282.685 22.4267 281.258 21.8667 280.298 20.96C279.338 20.0267 278.858 18.7867 278.858 17.24C278.858 15.4 279.472 13.9733 280.698 12.96C281.925 11.92 283.672 11.4 285.938 11.4C287.058 11.4 288.098 11.5333 289.058 11.8C290.045 12.04 290.912 12.3733 291.658 12.8C292.325 13.1467 292.658 13.6133 292.658 14.2C292.658 14.6 292.512 14.9467 292.218 15.24C291.952 15.5067 291.618 15.64 291.218 15.64C290.872 15.64 290.472 15.5333 290.018 15.32C289.378 15.0267 288.698 14.7867 287.978 14.6C287.285 14.4133 286.552 14.32 285.778 14.32C284.578 14.32 283.672 14.5733 283.058 15.08C282.445 15.56 282.138 16.1867 282.138 16.96C282.138 17.7333 282.405 18.3333 282.938 18.76C283.472 19.16 284.458 19.4267 285.898 19.56L287.898 19.76C289.898 19.9733 291.352 20.5467 292.258 21.48C293.192 22.3867 293.658 23.6267 293.658 25.2C293.658 27.0933 292.992 28.6133 291.658 29.76C290.352 30.88 288.418 31.44 285.858 31.44ZM301.468 8C300.854 8 300.334 7.78667 299.908 7.36C299.481 6.93333 299.268 6.41333 299.268 5.8C299.268 5.18666 299.481 4.66666 299.908 4.24C300.334 3.81333 300.854 3.6 301.468 3.6C302.081 3.6 302.601 3.81333 303.028 4.24C303.454 4.66666 303.668 5.18666 303.668 5.8C303.668 6.41333 303.454 6.93333 303.028 7.36C302.601 7.78667 302.081 8 301.468 8ZM299.788 13.44C299.788 12.88 299.948 12.44 300.268 12.12C300.588 11.8 300.988 11.64 301.468 11.64C301.948 11.64 302.348 11.8 302.668 12.12C302.988 12.44 303.148 12.88 303.148 13.44V29.4C303.148 29.96 302.988 30.4 302.668 30.72C302.348 31.04 301.948 31.2 301.468 31.2C300.988 31.2 300.588 31.04 300.268 30.72C299.948 30.4 299.788 29.96 299.788 29.4V13.44ZM316.99 31.44C315.523 31.44 314.19 31.2267 312.99 30.8C311.816 30.3733 310.83 29.88 310.03 29.32C309.496 28.9467 309.23 28.48 309.23 27.92C309.23 27.52 309.376 27.1733 309.67 26.88C309.963 26.56 310.336 26.4 310.79 26.4C310.95 26.4 311.11 26.4267 311.27 26.48C311.456 26.5333 311.67 26.6267 311.91 26.76C312.683 27.2133 313.496 27.6133 314.35 27.96C315.203 28.28 316.176 28.44 317.27 28.44C318.656 28.44 319.696 28.1733 320.39 27.64C321.11 27.1067 321.47 26.4133 321.47 25.56C321.47 24.76 321.216 24.1467 320.71 23.72C320.23 23.2933 319.23 23 317.71 22.84L315.71 22.64C313.816 22.4267 312.39 21.8667 311.43 20.96C310.47 20.0267 309.99 18.7867 309.99 17.24C309.99 15.4 310.603 13.9733 311.83 12.96C313.056 11.92 314.803 11.4 317.07 11.4C318.19 11.4 319.23 11.5333 320.19 11.8C321.176 12.04 322.043 12.3733 322.79 12.8C323.456 13.1467 323.79 13.6133 323.79 14.2C323.79 14.6 323.643 14.9467 323.35 15.24C323.083 15.5067 322.75 15.64 322.35 15.64C322.003 15.64 321.603 15.5333 321.15 15.32C320.51 15.0267 319.83 14.7867 319.11 14.6C318.416 14.4133 317.683 14.32 316.91 14.32C315.71 14.32 314.803 14.5733 314.19 15.08C313.576 15.56 313.27 16.1867 313.27 16.96C313.27 17.7333 313.536 18.3333 314.07 18.76C314.603 19.16 315.59 19.4267 317.03 19.56L319.03 19.76C321.03 19.9733 322.483 20.5467 323.39 21.48C324.323 22.3867 324.79 23.6267 324.79 25.2C324.79 27.0933 324.123 28.6133 322.79 29.76C321.483 30.88 319.55 31.44 316.99 31.44ZM336.679 31.2C334.706 31.2 333.319 30.76 332.519 29.88C331.719 29 331.319 27.56 331.319 25.56V14.8C331.319 14.64 331.239 14.56 331.079 14.56H329.999C329.546 14.56 329.186 14.44 328.919 14.2C328.679 13.9333 328.559 13.6 328.559 13.2C328.559 12.8 328.679 12.48 328.919 12.24C329.186 11.9733 329.546 11.84 329.999 11.84H331.079C331.239 11.84 331.319 11.76 331.319 11.6V7.4C331.319 6.84 331.479 6.4 331.799 6.08C332.119 5.76 332.519 5.6 332.999 5.6C333.479 5.6 333.879 5.76 334.199 6.08C334.519 6.4 334.679 6.84 334.679 7.4V11.6C334.679 11.76 334.759 11.84 334.919 11.84H337.439C337.892 11.84 338.239 11.9733 338.479 12.24C338.746 12.48 338.879 12.8 338.879 13.2C338.879 13.6 338.746 13.9333 338.479 14.2C338.239 14.44 337.892 14.56 337.439 14.56H334.919C334.759 14.56 334.679 14.64 334.679 14.8V25.44C334.679 26.4533 334.852 27.1467 335.199 27.52C335.546 27.8933 336.226 28.08 337.239 28.08C337.772 28.08 338.172 28.2267 338.439 28.52C338.732 28.8133 338.879 29.1867 338.879 29.64C338.879 30.0933 338.732 30.4667 338.439 30.76C338.146 31.0533 337.692 31.2 337.079 31.2H336.679ZM359.853 28.64C360.04 28.96 360.133 29.28 360.133 29.6C360.133 30.0533 359.973 30.44 359.653 30.76C359.333 31.0533 358.92 31.2 358.413 31.2C357.827 31.2 357.333 30.92 356.933 30.36L356.173 29.16H356.133C355.493 29.88 354.707 30.44 353.773 30.84C352.84 31.24 351.667 31.44 350.253 31.44C348.093 31.44 346.427 30.9467 345.253 29.96C344.08 28.9467 343.493 27.52 343.493 25.68C343.493 23.68 344.133 22.2 345.413 21.24C346.72 20.2533 348.573 19.76 350.973 19.76H355.333C355.493 19.76 355.573 19.68 355.573 19.52V18.6C355.573 17.24 355.227 16.2 354.533 15.48C353.84 14.76 352.653 14.4 350.973 14.4C350.227 14.4 349.493 14.5067 348.773 14.72C348.08 14.9067 347.507 15.12 347.053 15.36C346.68 15.5467 346.36 15.64 346.093 15.64C345.64 15.64 345.28 15.52 345.013 15.28C344.773 15.0133 344.653 14.6533 344.653 14.2C344.653 13.9333 344.707 13.68 344.813 13.44C344.947 13.2 345.16 13 345.453 12.84C346.067 12.44 346.853 12.1067 347.813 11.84C348.8 11.5467 349.96 11.4 351.293 11.4C353.88 11.4 355.773 12 356.973 13.2C358.2 14.4 358.813 16.1867 358.813 18.56V25.44C358.813 25.9467 358.84 26.3333 358.893 26.6C358.947 26.84 359.04 27.1067 359.173 27.4L359.853 28.64ZM350.733 28.56C352.227 28.56 353.4 28.24 354.253 27.6C355.133 26.9333 355.573 26 355.573 24.8V22.68C355.573 22.52 355.493 22.44 355.333 22.44H351.493C349.84 22.44 348.627 22.6933 347.853 23.2C347.107 23.68 346.733 24.4667 346.733 25.56C346.733 26.5733 347.08 27.3333 347.773 27.84C348.467 28.32 349.453 28.56 350.733 28.56ZM366.035 13.44C366.035 12.88 366.195 12.44 366.515 12.12C366.835 11.8 367.235 11.64 367.715 11.64C368.195 11.64 368.595 11.8 368.915 12.12C369.235 12.44 369.395 12.88 369.395 13.44V14H369.435C369.888 13.2533 370.568 12.64 371.475 12.16C372.381 11.6533 373.488 11.4 374.795 11.4C376.875 11.4 378.501 12.0533 379.675 13.36C380.848 14.6667 381.435 16.4133 381.435 18.6V29.4C381.435 29.96 381.275 30.4 380.955 30.72C380.635 31.04 380.235 31.2 379.755 31.2C379.275 31.2 378.875 31.04 378.555 30.72C378.235 30.4 378.075 29.96 378.075 29.4V19.4C378.075 17.8533 377.715 16.6533 376.995 15.8C376.301 14.9467 375.235 14.52 373.795 14.52C372.488 14.52 371.421 14.9467 370.595 15.8C369.795 16.6267 369.395 17.76 369.395 19.2V29.4C369.395 29.96 369.235 30.4 368.915 30.72C368.595 31.04 368.195 31.2 367.715 31.2C367.235 31.2 366.835 31.04 366.515 30.72C366.195 30.4 366.035 29.96 366.035 29.4V13.44ZM394.353 31.2C392.379 31.2 390.993 30.76 390.193 29.88C389.393 29 388.993 27.56 388.993 25.56V14.8C388.993 14.64 388.913 14.56 388.753 14.56H387.673C387.219 14.56 386.859 14.44 386.593 14.2C386.353 13.9333 386.233 13.6 386.233 13.2C386.233 12.8 386.353 12.48 386.593 12.24C386.859 11.9733 387.219 11.84 387.673 11.84H388.753C388.913 11.84 388.993 11.76 388.993 11.6V7.4C388.993 6.84 389.153 6.4 389.473 6.08C389.793 5.76 390.193 5.6 390.673 5.6C391.153 5.6 391.553 5.76 391.873 6.08C392.193 6.4 392.353 6.84 392.353 7.4V11.6C392.353 11.76 392.433 11.84 392.593 11.84H395.113C395.566 11.84 395.913 11.9733 396.153 12.24C396.419 12.48 396.553 12.8 396.553 13.2C396.553 13.6 396.419 13.9333 396.153 14.2C395.913 14.44 395.566 14.56 395.113 14.56H392.593C392.433 14.56 392.353 14.64 392.353 14.8V25.44C392.353 26.4533 392.526 27.1467 392.873 27.52C393.219 27.8933 393.899 28.08 394.913 28.08C395.446 28.08 395.846 28.2267 396.113 28.52C396.406 28.8133 396.553 29.1867 396.553 29.64C396.553 30.0933 396.406 30.4667 396.113 30.76C395.819 31.0533 395.366 31.2 394.753 31.2H394.353Z" fill="#1CB0F6"/>
</svg>
