<svg width="300" height="67" viewBox="0 0 300 67" fill="none" xmlns="http://www.w3.org/2000/svg">
<path d="M37.115 0.599997C38.415 0.599997 39.065 1.38 39.065 2.94V48.31C39.065 49.87 38.3933 50.65 37.05 50.65C36.14 50.65 35.1217 50.2817 33.995 49.545C32.8683 48.765 31.8717 47.725 31.005 46.425C29.835 47.8117 28.1883 48.9817 26.065 49.935C23.9417 50.845 21.645 51.3 19.175 51.3C14.105 51.3 9.96667 49.6317 6.76 46.295C3.55333 42.915 1.95 38.625 1.95 33.425C1.95 28.3117 3.55333 24.065 6.76 20.685C10.01 17.2617 14.1483 15.55 19.175 15.55C22.7717 15.55 25.935 16.5033 28.665 18.41V13.6C28.665 9.74333 29.5317 6.62333 31.265 4.24C33.0417 1.81333 34.9917 0.599997 37.115 0.599997ZM14.82 39.6C16.38 41.16 18.3083 41.94 20.605 41.94C22.9017 41.94 24.8083 41.16 26.325 39.6C27.885 37.9967 28.665 35.9383 28.665 33.425C28.665 30.9117 27.885 28.875 26.325 27.315C24.8083 25.7117 22.9017 24.91 20.605 24.91C18.3083 24.91 16.38 25.7117 14.82 27.315C13.26 28.875 12.48 30.9117 12.48 33.425C12.48 35.9383 13.26 37.9967 14.82 39.6ZM79.2825 16.85C80.5392 16.85 81.4275 17.1317 81.9475 17.695C82.4675 18.215 82.7275 19.0817 82.7275 20.295V48.31C82.7275 49.87 82.0559 50.65 80.7125 50.65C79.8025 50.65 78.7842 50.2817 77.6575 49.545C76.5309 48.765 75.5342 47.7033 74.6675 46.36C71.8509 49.6533 68.1892 51.3 63.6825 51.3C59.3925 51.3 55.8392 49.9567 53.0225 47.27C49.8592 44.2367 48.2775 39.4917 48.2775 33.035V20.295C48.2775 19.0383 48.5375 18.15 49.0575 17.63C49.6209 17.11 50.5092 16.85 51.7225 16.85H55.2325C56.4459 16.85 57.3125 17.11 57.8325 17.63C58.3959 18.15 58.6775 19.0383 58.6775 20.295V32.06C58.6775 35.7 59.3492 38.2133 60.6925 39.6C61.8192 40.8133 63.3792 41.42 65.3725 41.42C67.4525 41.42 69.1209 40.7267 70.3775 39.34C71.6775 37.91 72.3275 35.5917 72.3275 32.385V20.295C72.3275 19.0817 72.5875 18.215 73.1075 17.695C73.6275 17.1317 74.5159 16.85 75.7725 16.85H79.2825ZM122.264 46.23C118.754 49.61 114.355 51.3 109.069 51.3C103.782 51.3 99.3836 49.61 95.8736 46.23C92.3636 42.85 90.6086 38.5817 90.6086 33.425C90.6086 28.225 92.3636 23.9567 95.8736 20.62C99.3836 17.24 103.782 15.55 109.069 15.55C114.355 15.55 118.754 17.24 122.264 20.62C125.774 23.9567 127.529 28.225 127.529 33.425C127.529 38.5817 125.774 42.85 122.264 46.23ZM103.284 39.6C104.714 41.16 106.642 41.94 109.069 41.94C111.495 41.94 113.424 41.16 114.854 39.6C116.284 37.9967 116.999 35.9383 116.999 33.425C116.999 30.9117 116.284 28.875 114.854 27.315C113.424 25.7117 111.495 24.91 109.069 24.91C106.642 24.91 104.714 25.7117 103.284 27.315C101.854 28.875 101.139 30.9117 101.139 33.425C101.139 35.9383 101.854 37.9967 103.284 39.6ZM138.879 50C137.622 50 136.734 49.74 136.214 49.22C135.694 48.6567 135.434 47.7683 135.434 46.555V13.6C135.434 9.74333 136.301 6.62333 138.034 4.24C139.811 1.81333 141.761 0.599997 143.884 0.599997C145.184 0.599997 145.834 1.38 145.834 2.94V46.555C145.834 47.7683 145.574 48.6567 145.054 49.22C144.534 49.74 143.646 50 142.389 50H138.879ZM161.16 11.585C159.513 11.585 158.105 11.0433 156.935 9.96C155.808 8.83333 155.245 7.49 155.245 5.93C155.245 4.32666 155.808 2.98333 156.935 1.9C158.105 0.816664 159.513 0.274997 161.16 0.274997C162.763 0.274997 164.15 0.838331 165.32 1.965C166.49 3.04833 167.075 4.37 167.075 5.93C167.075 7.49 166.49 8.83333 165.32 9.96C164.15 11.0433 162.763 11.585 161.16 11.585ZM159.405 50C158.191 50 157.303 49.74 156.74 49.22C156.22 48.7 155.96 47.8117 155.96 46.555V20.295C155.96 19.0383 156.22 18.15 156.74 17.63C157.303 17.11 158.191 16.85 159.405 16.85H162.915C164.128 16.85 164.995 17.11 165.515 17.63C166.078 18.15 166.36 19.0383 166.36 20.295V46.555C166.36 47.8117 166.078 48.7 165.515 49.22C164.995 49.74 164.128 50 162.915 50H159.405ZM207.62 20.36C210.264 23.4367 211.585 28.0083 211.585 34.075V46.555C211.585 47.8117 211.304 48.7 210.74 49.22C210.22 49.74 209.354 50 208.14 50H204.63C203.417 50 202.529 49.74 201.965 49.22C201.445 48.7 201.185 47.8117 201.185 46.555V34.4C201.185 31.3233 200.644 29.0917 199.56 27.705C198.39 26.1883 196.635 25.43 194.295 25.43C191.955 25.43 190.135 26.1883 188.835 27.705C187.535 29.2217 186.885 31.4317 186.885 34.335V46.555C186.885 47.7683 186.625 48.6567 186.105 49.22C185.585 49.74 184.697 50 183.44 50H179.93C178.674 50 177.785 49.74 177.265 49.22C176.745 48.6567 176.485 47.7683 176.485 46.555V18.54C176.485 16.98 177.157 16.2 178.5 16.2C179.454 16.2 180.494 16.59 181.62 17.37C182.747 18.1067 183.744 19.1683 184.61 20.555C185.954 18.9517 187.622 17.7167 189.615 16.85C191.652 15.9833 193.732 15.55 195.855 15.55C200.882 15.55 204.804 17.1533 207.62 20.36ZM236.154 66.575C230.694 66.575 226.296 65.21 222.959 62.48C219.623 59.75 217.954 56.1317 217.954 51.625C217.954 49.155 218.583 46.815 219.839 44.605C221.096 42.3517 222.786 40.6833 224.909 39.6C221.486 36.7833 219.774 33.4467 219.774 29.59C219.774 25.6033 221.226 22.3317 224.129 19.775C227.033 17.175 230.868 15.875 235.634 15.875C237.758 15.875 239.838 16.0483 241.874 16.395C243.954 16.6983 245.449 16.85 246.359 16.85C248.439 16.85 250.563 16.265 252.729 15.095C253.553 14.6617 254.246 14.445 254.809 14.445C256.153 14.445 256.824 15.42 256.824 17.37C256.824 21.27 255.069 23.8483 251.559 25.105C252.209 26.4483 252.534 27.9433 252.534 29.59C252.534 33.3167 250.823 36.6533 247.399 39.6C249.523 40.64 251.213 42.2867 252.469 44.54C253.726 46.75 254.354 49.1117 254.354 51.625C254.354 56.1317 252.686 59.75 249.349 62.48C246.056 65.21 241.658 66.575 236.154 66.575ZM231.604 34.53C232.861 35.7 234.378 36.285 236.154 36.285C237.931 36.285 239.426 35.7 240.639 34.53C241.896 33.3167 242.524 31.865 242.524 30.175C242.524 28.355 241.939 26.8817 240.769 25.755C239.599 24.6283 238.061 24.065 236.154 24.065C234.248 24.065 232.709 24.6283 231.539 25.755C230.369 26.8817 229.784 28.355 229.784 30.175C229.784 31.865 230.391 33.3167 231.604 34.53ZM236.154 58.125C238.364 58.125 240.228 57.4533 241.744 56.11C243.304 54.81 244.084 53.2067 244.084 51.3C244.084 49.2633 243.348 47.6167 241.874 46.36C240.444 45.1033 238.538 44.475 236.154 44.475C233.771 44.475 231.843 45.1033 230.369 46.36C228.939 47.6167 228.224 49.2633 228.224 51.3C228.224 53.2067 228.983 54.81 230.499 56.11C232.016 57.4533 233.901 58.125 236.154 58.125ZM291.923 46.23C288.413 49.61 284.014 51.3 278.728 51.3C273.441 51.3 269.043 49.61 265.533 46.23C262.023 42.85 260.268 38.5817 260.268 33.425C260.268 28.225 262.023 23.9567 265.533 20.62C269.043 17.24 273.441 15.55 278.728 15.55C284.014 15.55 288.413 17.24 291.923 20.62C295.433 23.9567 297.188 28.225 297.188 33.425C297.188 38.5817 295.433 42.85 291.923 46.23ZM272.943 39.6C274.373 41.16 276.301 41.94 278.728 41.94C281.154 41.94 283.083 41.16 284.513 39.6C285.943 37.9967 286.658 35.9383 286.658 33.425C286.658 30.9117 285.943 28.875 284.513 27.315C283.083 25.7117 281.154 24.91 278.728 24.91C276.301 24.91 274.373 25.7117 272.943 27.315C271.513 28.875 270.798 30.9117 270.798 33.425C270.798 35.9383 271.513 37.9967 272.943 39.6Z" fill="#58CC02"/>
</svg>
