<svg width="754" height="538" viewBox="0 0 754 538" fill="none" xmlns="http://www.w3.org/2000/svg">
<path d="M584.177 473.482L584.265 473.735C589.041 487.197 603.366 495.083 617.519 491.557L646.457 484.345L647.058 484.188C661.822 480.103 670.599 465.098 666.912 450.322L666.736 449.649C666.244 447.865 665.584 446.152 664.773 444.533L664.609 444.216L664.75 444.138C674.904 438.274 680.94 426.707 679.223 414.497L673.26 372.102L673.776 371.693C681.071 365.811 686.485 358.129 689.358 349.473L689.584 348.771L690.141 348.383C697.057 343.429 702.122 336.326 704.491 328.068L707.11 318.94L707.281 318.321L707.468 317.6L707.614 316.986C711.591 299.582 702.878 282.016 687.18 274.477L686.754 274.277L686.661 274.01C684.206 267.335 679.363 261.822 673.042 258.571L672.708 258.404L672.835 257.57L672.979 256.48L673.092 255.519L673.189 254.592C675.932 226.455 661.682 199.787 637.725 186.176L637.446 186.021L637.61 185.112C637.668 184.753 637.724 184.393 637.775 184.033L637.863 183.363L637.962 182.508L638.036 181.736C639.202 168.355 634.333 155.46 625.163 146.239L624.904 145.985L625.081 145.585L625.333 144.989L625.642 144.228L625.93 143.463L626.117 142.934L626.263 142.485L626.465 141.82L626.605 141.307C630.798 125.401 619.531 109.53 603.045 108.357L599.751 108.121L599.868 107.743L600.072 107.032C605.194 88.1324 594.635 68.6168 576.073 62.6046C572.741 61.5262 569.275 60.9315 565.778 60.8377L561.959 60.7246L559.252 60.6299L555.803 60.4899L552.57 60.3361L550.291 60.2123L546.729 59.9889L544.152 59.7992L542.371 59.6509L540.709 59.4971L539.69 59.3938L537.771 59.1764L536.541 59.0161L535.814 58.9112L535.135 58.8045L534.867 58.7563L534.807 58.6669C523.395 42.4044 501.041 38.2252 484.504 49.3033L484.253 49.4755L483.499 50.0034L482.729 50.5719L482.546 50.7117L481.932 51.1951L481.278 51.738C479.549 53.203 477.974 54.8059 476.562 56.528L476.197 56.9837L475.946 56.8767C464.324 52.0223 450.221 56.0138 443.278 67.6036L442.843 68.34L442.368 69.1736L441.958 69.9185C434.703 83.3197 432.708 98.6353 435.762 113.073L435.993 114.122L435.777 114.068C434.547 113.775 433.305 113.573 432.057 113.463L431.091 113.396L430.781 113.2C428.488 111.79 426.041 110.761 423.449 110.115L422.861 109.976L422.157 109.828L421.598 109.727C409.67 107.702 398.145 114.087 393.419 124.801L393.346 124.968L393.158 124.988C392.12 125.115 391.09 125.303 390.075 125.553L389.621 125.672L388.734 125.339L388.467 125.241L381.885 123.316L381.607 123.254L380.402 123C378.389 122.599 376.355 122.308 374.307 122.129L373.415 122.059L373.377 122.009C360.383 105.412 340.466 95.5635 319.111 95.5635H290.093L289.258 95.5687L288.264 95.5877L287.365 95.618C267.009 96.4352 248.316 106.149 235.974 121.811L235.46 122.471L234.589 122.23C210.061 115.599 184.062 119.573 162.751 132.961L161.643 133.668L161.612 133.662C150.619 131.135 139.193 137.037 134.943 148.114L134.554 149.172L134.266 150.017L133.963 150.983C132.705 155.174 132.113 159.468 132.185 163.755L132.218 164.851L131.409 166.308C128.998 170.745 126.972 175.35 125.327 180.123L122.88 187.226L122.508 188.33L122.046 189.767L121.604 191.229C121.031 193.18 120.526 195.141 120.087 197.109L120.012 197.455L110.548 190.582L115.868 174.227L116.043 173.664C119.787 160.905 112.765 147.584 100.206 143.506L74.7659 135.245L73.963 135L73.5179 134.876L72.9704 134.739C61.1047 131.913 49.0783 138.178 44.5984 149.324L44.4792 149.628L44.1995 149.733C25.3951 156.947 15.9067 177.888 22.7868 196.726L23.115 197.595L23.5049 198.567L23.8339 199.332L24.258 200.249C25.2714 202.366 26.4512 204.338 27.7946 206.173L28.0189 206.468L28.067 206.948C29.1145 216.382 35.5216 224.495 44.7724 227.5L70.2127 235.76L70.9695 235.991L71.4179 236.115L121.705 272.628L121.519 273.239L121.275 274.13L121.049 275.058L121.032 275.067C96.9878 285.321 81.0277 309 81.0277 335.542L81.0439 336.992L81.0801 338.173L81.1509 339.563C81.2351 340.946 81.3602 342.305 81.5262 343.65L81.5546 343.862L28.7142 421.353L28.4917 421.687L28.0424 422.387L27.8728 422.665L27.499 423.301L27.0941 424.044C26.701 424.789 26.3439 425.541 26.0221 426.302L25.9622 426.446L25.6943 426.483C15.7187 427.909 6.95169 434.818 3.31631 444.801C-1.9481 459.254 5.19422 475.351 19.6523 480.61L46.8425 490.501L47.4372 490.708C61.8409 495.516 77.2206 487.754 82.389 473.563L82.6749 472.739C82.857 472.189 83.0216 471.633 83.1691 471.075L83.368 470.271L83.496 470.206C87.5604 468.088 91.0944 464.995 93.7561 461.127L140.094 393.778L143.922 388.764L144.018 388.642L144.214 388.414L144.412 388.205C145.509 387.14 147.234 386.772 148.775 387.298L149.047 387.402L162.321 404.38L148.576 435.758L148.258 436.518C146.993 439.727 146.374 442.987 146.374 446.275L146.383 446.973C146.518 452.088 148.129 456.95 150.934 461.053L151.249 461.503L151.19 462.236C151.15 462.853 151.13 463.475 151.13 464.098C151.13 479.481 163.35 492.165 178.736 492.165H207.671L208.292 492.157C223.474 491.757 235.277 479.205 235.277 464.098L235.27 463.484C235.096 455.316 231.44 447.792 225.539 442.688L225.277 442.466L237.703 414.105L237.921 413.583L238.48 413.883L238.737 414.016L239.346 414.317L240.077 414.647C241.782 415.39 243.506 415.94 245.247 416.304L245.787 416.407L246.104 416.673C249.307 419.278 253.033 421.072 257.093 421.934L257.953 422.101L258.572 422.203L259.276 422.298C263.71 422.836 268.065 422.256 272.046 420.682L272.76 420.384L273.007 420.409C273.541 420.453 274.068 420.477 274.596 420.485L275.189 420.489L276.024 420.472L276.723 420.434C278.271 420.328 279.786 420.09 281.256 419.732L282.153 419.492L283.947 424.422L283.932 424.451C281.339 429.349 280.5 434.991 281.675 440.517L282.772 445.682L282.762 445.695C278.355 450.713 275.819 457.221 275.819 464.132C275.819 479.571 288.34 492.084 303.788 492.084H329.229L330.052 492.07L330.72 492.045L331.223 492.013C345.9 490.915 357.199 478.77 357.199 464.132L357.189 463.403C357.108 460.251 356.5 457.181 355.417 454.3L355.189 453.717L355.217 453.679C358.53 448.517 359.794 442.155 358.462 435.893L356.033 424.472L355.954 424.134L355.717 423.205L355.446 422.33L355.339 422.01L355.143 421.451L354.889 420.799C353.31 416.919 350.836 413.626 347.711 411.115L347.38 410.857L345.812 406.547L346.057 406.587C351.133 407.37 356.319 407.501 361.506 406.956L362.569 406.834L364.009 406.64L365.293 406.435L365.954 406.315L377.99 429.924L377.916 430.316C376.86 436.13 377.954 442.112 381.132 447.194L387.33 457.106L387.53 457.413L387.972 458.057L388.187 458.356L388.343 458.563L388.717 459.049L388.902 459.278L389.264 459.715L389.72 460.227C392.177 462.92 395.124 464.967 398.355 466.293L398.923 466.515L401.451 472.616L402.517 474.015L402.965 474.568C406.751 479.134 411.787 482.329 417.364 483.819L417.611 483.88L417.995 484.252C423.225 489.184 430.096 491.982 437.403 491.982H481.511L482.127 491.976L482.682 491.955C491.73 491.553 499.634 486.966 504.529 480.109L504.671 479.903L504.918 480.26C510.002 487.461 518.391 492.165 527.881 492.165H557.705L558.317 492.158C570.062 491.86 579.948 484.476 583.92 474.182L584.177 473.482Z" fill="white"/>
<path fill-rule="evenodd" clip-rule="evenodd" d="M489.181 76.9635L484.523 93.3228L491.212 95.2475L496.441 76.8733C498.986 67.9375 507.594 62.5735 515.671 64.8969L564.821 79.0316C572.898 81.355 577.381 90.48 574.836 99.4186L569.606 117.793L576.295 119.717L580.953 103.358C584.978 89.2217 577.885 74.7821 565.111 71.1091L519.6 58.0173C506.826 54.3443 493.206 62.8271 489.181 76.9635Z" fill="#4B4B4B"/>
<path d="M516.428 130.941L470.024 77.4583C467.537 74.5915 462.989 74.9837 461.043 78.2327C451.693 93.8431 453.422 114.059 465.683 128.189C477.941 142.319 497.683 146.849 514.413 139.744C517.897 138.265 518.916 133.808 516.428 130.941Z" fill="#58CC02"/>
<path d="M481.339 105.691L492.019 108.742C495.804 109.823 499.75 107.636 500.833 103.858L507.658 80.0333C508.741 76.2551 506.549 72.3159 502.764 71.2347L492.084 68.1845C488.299 67.1034 484.353 69.2898 483.271 73.068L476.445 96.8929C475.363 100.671 477.554 104.61 481.339 105.691Z" fill="#4B4B4B"/>
<path d="M601.575 128.999L530.922 123.974C527.135 123.704 524.196 127.195 525.119 130.868C529.552 148.514 545.079 161.587 563.744 162.914C582.411 164.242 599.575 153.494 606.379 136.647C607.795 133.141 605.362 129.268 601.575 128.999Z" fill="#58CC02"/>
<path d="M565.225 81.5204L561.061 81.3967L557.119 81.2548L554.303 81.1362L551.613 81.0074L549.044 80.8682L547.401 80.7696L545.811 80.6665L543.53 80.5032L542.077 80.3885L540.001 80.208L538.048 80.0171L536.217 79.8157L535.067 79.6758L533.441 79.4574L532.425 79.306L531.466 79.1499L530.56 78.9894L529.707 78.8242L528.912 78.6545L528.17 78.48L527.482 78.301L526.85 78.1175C526.748 78.0865 526.65 78.0553 526.553 78.0241C523.582 77.0565 520.882 74.8537 518.454 71.4153L518.052 70.8307C513.171 63.5555 503.314 61.6114 496.035 66.4885C493.077 68.4699 490.872 71.3875 489.775 74.7726L475.049 120.191C467.025 144.936 480.568 171.5 505.316 179.557C529.766 187.518 556.025 174.376 564.355 150.164L564.624 149.356L579.894 102.262C582.596 93.9302 578.027 84.987 569.69 82.2869C568.246 81.8192 566.741 81.5609 565.225 81.5204Z" fill="#58CC02"/>
<path d="M529.266 93.3305L529.128 93.4041C524.074 96.2743 518.223 93.7388 516.046 89.36L515.792 88.8251L515.576 88.4047C515.54 88.3383 515.506 88.2736 515.469 88.2109L515.252 87.8558C514.098 86.0789 512.912 86.1611 511.696 88.1024L511.468 88.4881L511.239 88.9175L511.009 89.3905L510.778 89.9069L510.664 90.1814L510.374 90.9157L510.083 91.7179L509.85 92.4086L509.499 93.5265L509.263 94.3263L508.909 95.6075L508.673 96.5162L508.435 97.4684L508.197 98.4642L507.838 100.04L507.479 101.713L506.996 104.097L506.632 105.999L506.144 108.688L505.654 111.551L505.529 112.294L524.105 118.342L524.645 116.858L525.413 114.716L526.358 112.017L527.214 109.499L527.796 107.729L528.327 106.059L528.808 104.491L529.24 103.024L529.621 101.659L529.951 100.395L530.142 99.6082L530.311 98.8667L530.458 98.1702L530.611 97.3629L530.727 96.6259L530.796 96.0869L530.843 95.593L530.865 95.144C530.917 93.3672 530.384 92.7628 529.266 93.3305Z" fill="#89E117"/>
<path d="M546.512 91.9836L545.235 91.568C536.139 88.6062 526.373 93.4429 523.185 102.395L523.021 102.88L519.737 113.004C516.742 122.244 521.799 132.163 531.039 135.172L532.316 135.587C541.412 138.549 551.178 133.712 554.366 124.76L554.532 124.275L557.814 114.151C560.811 104.911 555.753 94.9922 546.512 91.9836Z" fill="#89E117"/>
<path d="M545.463 83.9766L527.233 94.2481C526.272 94.8037 526.132 96.1361 526.957 96.8797C530.92 100.452 536.823 101.09 541.564 98.3514C546.305 95.613 548.704 90.1793 547.594 84.959C547.363 83.8725 546.426 83.4211 545.463 83.9766Z" fill="#89E117"/>
<path d="M550.889 89.6894L532.933 100.061C531.97 100.617 531.83 101.95 532.655 102.693C536.62 106.265 542.526 106.901 547.269 104.161C552.014 101.421 554.416 95.9854 553.306 90.7644C553.077 89.6779 551.852 89.1335 550.889 89.6894Z" fill="#89E117"/>
<path d="M508.508 72.8554C508.072 71.881 507.102 71.7587 506.326 72.5412C504.638 74.2421 503.481 76.3614 502.918 78.617L501.181 74.7305C500.744 73.7553 499.5 73.5581 498.725 74.3408C494.997 78.1016 493.856 83.9085 496.006 88.715C498.156 93.5217 503.061 96.1323 508.084 95.2646C509.064 95.0955 509.673 94.0429 509.387 93.1085L509.318 92.9235L509.18 92.6136C511.159 93.5251 513.405 93.8436 515.677 93.4506C516.652 93.282 517.263 92.2384 516.985 91.3078L516.913 91.1105L508.508 72.8554Z" fill="#89E117"/>
<path d="M506.165 78.9005C499.038 76.5801 491.389 80.3557 488.866 87.3551L488.722 87.7832L483.119 105.06C480.759 112.338 484.743 120.151 492.02 122.521C499.148 124.842 506.797 121.066 509.318 114.067L509.464 113.638L515.067 96.3612C517.427 89.0834 513.443 81.2703 506.165 78.9005Z" fill="#89E117"/>
<path d="M505.491 85.6868C500.054 83.9213 494.213 86.8951 492.447 92.3294L488.476 104.543C486.71 109.977 489.684 115.814 495.123 117.58C500.559 119.345 506.4 116.371 508.167 110.937L512.137 98.7235C513.904 93.2894 510.929 87.4526 505.491 85.6868Z" fill="white"/>
<path d="M499.845 96.0869L499.873 96.1551C500.232 97.077 500.287 98.1249 499.957 99.1402C499.229 101.379 496.895 102.645 494.65 102.074L494.332 101.98L492.253 108.018C491.351 110.637 492.743 113.491 495.364 114.393C497.89 115.262 500.637 113.999 501.638 111.56L501.743 111.284L504.687 102.736C505.589 100.117 504.197 97.2625 501.576 96.3605C501.003 96.1633 500.418 96.0758 499.845 96.0869Z" fill="#4B4B4B"/>
<path d="M496.001 152.731C496.2 155.633 498.356 158.178 501.381 158.989C504.404 159.8 507.544 158.675 509.166 156.261C509.502 155.759 509.219 155.075 508.607 154.911L497.159 151.841C496.546 151.676 495.96 152.127 496.001 152.731Z" fill="#89E117"/>
<path d="M508.575 145.76C508.774 148.662 510.931 151.207 513.955 152.018C516.98 152.829 520.118 151.704 521.74 149.291C522.078 148.788 521.795 148.104 521.181 147.94L509.735 144.87C509.121 144.706 508.534 145.156 508.575 145.76Z" fill="#89E117"/>
<path d="M489.669 140.696C489.867 143.597 492.024 146.143 495.049 146.954C498.072 147.765 501.212 146.64 502.834 144.226C503.17 143.724 502.887 143.04 502.275 142.875L490.829 139.806C490.214 139.641 489.628 140.092 489.669 140.696Z" fill="#89E117"/>
<path d="M543.397 97.5608C536.745 95.395 529.605 98.9123 527.242 105.439L527.097 105.861L524.624 113.487C522.419 120.287 526.141 127.588 532.942 129.803C539.594 131.969 546.734 128.451 549.097 121.925L549.242 121.502L551.715 113.877C553.922 107.076 550.198 99.7752 543.397 97.5608Z" fill="white"/>
<path d="M534.758 107.819C534.891 108.189 534.977 108.567 535.011 108.961C535.225 111.403 533.42 113.556 530.983 113.769C530.339 113.825 529.714 113.74 529.14 113.54L527.525 118.522C526.49 121.712 528.236 125.136 531.426 126.174C534.504 127.176 537.803 125.585 538.956 122.604L539.071 122.281L541.193 115.735C542.227 112.546 540.483 109.122 537.292 108.083C536.447 107.808 535.586 107.728 534.758 107.819Z" fill="#4B4B4B"/>
<path d="M515.513 111.664C511.681 110.494 507.626 112.649 506.454 116.477L503.64 125.677C502.469 129.505 504.625 133.558 508.456 134.728C512.288 135.899 516.343 133.744 517.514 129.915L520.328 120.716C521.498 116.887 519.343 112.835 515.513 111.664Z" fill="#F49000"/>
<path d="M513.771 114.366C511.04 113.531 508.148 115.068 507.313 117.797L505.298 124.387C504.463 127.116 506 130.005 508.731 130.84C511.463 131.674 514.353 130.138 515.188 127.409L517.203 120.819C518.038 118.089 516.502 115.2 513.771 114.366Z" fill="#A56644"/>
<path d="M507.465 129.84L507.352 130.186C507.766 130.465 508.226 130.688 508.73 130.841C511.461 131.676 514.351 130.14 515.187 127.41L515.409 126.682C515.133 126.546 514.842 126.43 514.536 126.336C511.712 125.473 508.732 126.893 507.584 129.541L507.465 129.84Z" fill="#FFAADE"/>
<path d="M521.707 119.542C522.299 115.125 518.884 111.8 514.5 110.46C510.116 109.12 505.445 111.117 503.463 115.11L503.328 115.384L507.215 118.205L521.667 119.846L521.707 119.542Z" fill="#FFC200"/>
<path d="M514.624 114.95C515.22 115.373 516.044 115.232 516.467 114.637C516.89 114.041 516.75 113.216 516.157 112.793C514.714 111.768 513.087 111.271 511.319 111.315C510.589 111.333 510.012 111.94 510.03 112.67C510.047 113.4 510.651 113.977 511.381 113.959C512.58 113.929 513.648 114.255 514.624 114.95Z" fill="#FFDE00"/>
<path d="M539.952 182.753C542.647 180.243 546.867 180.39 549.379 183.083L556.534 190.751C558.96 193.35 558.907 197.37 556.476 199.904L556.207 200.171C553.512 202.681 549.291 202.534 546.779 199.842L539.622 192.174C537.198 189.575 537.251 185.554 539.681 183.02L539.952 182.753Z" fill="#F49000"/>
<path d="M336.684 170.93C358.3 168.659 377.666 184.331 379.938 205.935L394.368 343.149C396.64 364.751 380.958 384.106 359.342 386.377C337.725 388.646 318.361 372.975 316.088 351.37L301.657 214.157C299.386 192.554 315.067 173.2 336.684 170.93Z" fill="#3D3D3D"/>
<path d="M289.645 259.14C305.641 256.609 320.662 267.516 323.197 283.504L330.875 331.951C333.408 347.94 322.495 362.952 306.497 365.483C290.501 368.016 275.479 357.108 272.945 341.122L265.267 292.672C262.734 276.686 273.647 261.672 289.645 259.14Z" fill="#3D3D3D"/>
<path d="M290.093 116.256H319.111C345.707 116.256 367.267 137.803 367.267 164.383V275.446C367.267 302.026 345.707 323.573 319.111 323.573H290.093C263.498 323.573 241.938 302.026 241.938 275.446V164.383C241.938 137.803 263.498 116.256 290.093 116.256Z" fill="#3D3D3D"/>
<path d="M352.741 144.592L364.358 142.96C383.941 140.209 402.049 153.846 404.801 173.418L422.716 300.815C424.26 311.799 420.64 322.318 413.704 329.92L412.935 330.739C407.586 336.245 400.433 340.082 392.24 341.234L380.623 342.865C361.04 345.615 342.932 331.979 340.18 312.406L322.265 185.011C319.513 165.439 333.157 147.342 352.741 144.592Z" fill="#3D3D3D"/>
<path d="M317.743 268.049L347.559 258.939C350.82 257.943 354.406 260.217 355.569 264.018L371.044 314.607C372.207 318.407 370.507 322.298 367.246 323.294L337.43 332.404C334.17 333.401 330.583 331.126 329.42 327.326L313.945 276.737C312.782 272.936 314.482 269.046 317.743 268.049Z" fill="#FFB100"/>
<path d="M330.187 329.816L371.582 316.373L379.072 339.409C380.125 342.651 378.351 346.13 375.107 347.184L345.456 356.813C342.213 357.866 338.729 356.092 337.676 352.852L330.187 329.816Z" fill="#1CB0F6"/>
<path d="M348.843 337.858C344.084 333.723 336.87 334.227 332.733 338.984L296.682 380.429C292.545 385.187 293.049 392.396 297.809 396.531C302.569 400.666 309.783 400.163 313.921 395.405L349.969 353.96C354.109 349.203 353.603 341.993 348.843 337.858Z" fill="#1CB0F6"/>
<path d="M301.136 377.744C295.21 379.899 292.154 386.45 294.311 392.373L311.887 440.636C312.966 443.597 316.242 445.125 319.207 444.047L329.937 440.143C332.901 439.066 334.43 435.791 333.35 432.829L315.773 384.565C313.616 378.642 307.063 375.588 301.136 377.744Z" fill="#1CB0F6"/>
<path d="M362.473 328.765C356.853 331.628 354.618 338.499 357.481 344.117L403.306 433.998C404.738 436.805 408.175 437.922 410.986 436.491L421.162 431.31C423.971 429.878 425.089 426.442 423.657 423.634L377.832 333.754C374.97 328.138 368.092 325.905 362.473 328.765Z" fill="#1CB0F6"/>
<path d="M423.826 416.889L399.674 431.972C398.226 432.876 397.786 434.783 398.691 436.23L404.752 445.924C405.658 447.371 407.564 447.811 409.012 446.907L433.164 431.824C434.612 430.921 435.052 429.015 434.147 427.567L428.086 417.872C427.18 416.426 425.274 415.986 423.826 416.889Z" fill="#4CC5FF"/>
<path d="M332.165 426.63L304.309 432.548C302.639 432.903 301.572 434.543 301.928 436.212L304.307 447.395C304.661 449.064 306.303 450.13 307.974 449.775L335.828 443.857C337.499 443.503 338.565 441.861 338.211 440.192L335.832 429.012C335.476 427.342 333.836 426.277 332.165 426.63Z" fill="#4CC5FF"/>
<path d="M258.761 362.611L315.196 282.063C319.14 276.433 326.904 275.066 332.538 279.008C338.171 282.949 339.541 290.711 335.597 296.341L279.162 376.887C275.218 382.517 267.454 383.885 261.82 379.943C256.187 376.001 254.817 368.241 258.761 362.611Z" fill="#FFB100"/>
<path d="M290.487 162.682L343.265 155.269C356.858 153.36 369.472 163.165 371.443 177.169L379.476 234.298C381.445 248.303 372.024 261.203 358.432 263.112L305.653 270.525C292.061 272.434 279.446 262.629 277.478 248.626L269.444 191.496C267.474 177.491 276.896 164.591 290.487 162.682Z" fill="#A56644"/>
<path d="M365.812 164.252L271.291 177.527C274.635 169.761 281.687 163.918 290.486 162.682L343.264 155.269C352.064 154.033 360.455 157.707 365.812 164.252Z" fill="#FFB100"/>
<path d="M298.424 186.489C306.385 185.371 313.745 190.914 314.863 198.869L316.095 207.631C317.215 215.586 311.668 222.942 303.708 224.059C295.747 225.179 288.387 219.635 287.269 211.68L286.037 202.918C284.919 194.963 290.464 187.607 298.424 186.489Z" fill="white"/>
<path d="M295.676 194.152C299.249 193.65 302.553 196.139 303.055 199.71L304.197 207.833C304.699 211.404 302.21 214.707 298.636 215.209C295.063 215.711 291.759 213.222 291.257 209.65L290.103 201.441C290.306 201.436 290.511 201.42 290.718 201.391C293.588 200.988 295.588 198.336 295.184 195.467C295.129 195.063 295.027 194.676 294.885 194.311C295.141 194.244 295.405 194.19 295.676 194.152Z" fill="#3D3D3D"/>
<path d="M333.273 181.595C341.232 180.476 348.593 186.019 349.711 193.975L350.943 202.737C352.062 210.692 346.515 218.048 338.556 219.165C330.595 220.283 323.236 214.741 322.116 206.785L320.885 198.024C319.766 190.068 325.312 182.713 333.273 181.595Z" fill="white"/>
<path d="M328.982 189.734C332.555 189.232 335.859 191.721 336.362 195.292L337.504 203.415C338.006 206.986 335.516 210.289 331.943 210.791C328.369 211.293 325.065 208.804 324.562 205.232L323.407 197.023C323.613 197.018 323.818 197.002 324.025 196.973C326.894 196.57 328.894 193.918 328.49 191.049C328.433 190.645 328.332 190.258 328.192 189.893C328.447 189.826 328.711 189.772 328.982 189.734Z" fill="#3D3D3D"/>
<path d="M353.538 209.27C356.171 209.284 358.293 211.429 358.278 214.059C358.264 216.689 356.119 218.809 353.486 218.796C345.886 218.754 339.64 221.42 334.448 226.919C332.641 228.833 329.625 228.919 327.71 227.114C325.797 225.309 325.709 222.294 327.515 220.382C334.522 212.96 343.298 209.214 353.538 209.27Z" fill="#A56644"/>
<path d="M287.603 215.417C284.972 215.431 282.85 217.576 282.863 220.205C282.877 222.835 285.024 224.956 287.655 224.942C295.257 224.901 301.501 227.567 306.693 233.066C308.499 234.978 311.517 235.066 313.431 233.26C315.346 231.455 315.432 228.441 313.626 226.529C306.619 219.107 297.843 215.361 287.603 215.417Z" fill="#A56644"/>
<path d="M343.402 226.109C339.261 224.645 334.726 226.711 333.089 230.736L332.953 231.096C331.341 235.647 328.986 237.576 324.774 237.909L324.315 237.938C319.8 238.168 316.323 242.011 316.553 246.524C316.78 251.038 320.626 254.511 325.144 254.283C336.379 253.716 344.542 247.422 348.39 236.554C349.898 232.293 347.665 227.618 343.402 226.109Z" fill="white"/>
<path d="M315.076 220.914L321.496 220.012C324.534 219.584 327.343 221.7 327.771 224.738C328.198 227.775 326.08 230.582 323.042 231.01L316.622 231.912C313.583 232.338 310.774 230.222 310.347 227.185C309.92 224.149 312.037 221.34 315.076 220.914Z" fill="#87401A"/>
<path d="M320.591 214.104L326.245 226.298L312.152 224.568L320.591 214.104Z" fill="#87401A"/>
<path d="M277.748 148.583C287.372 147.232 296.268 153.933 297.621 163.55L299.726 178.52C301.079 188.137 294.374 197.029 284.751 198.381C275.129 199.733 266.231 193.032 264.878 183.414L262.773 168.445C261.42 158.827 268.125 149.935 277.748 148.583Z" fill="#3D3D3D"/>
<path d="M417.878 459.646C416.311 455.954 418.033 451.691 421.727 450.126L445.146 440.19C448.838 438.624 453.104 440.345 454.672 444.037C456.24 447.729 454.517 451.99 450.823 453.557L427.404 463.491C423.711 465.059 419.446 463.336 417.878 459.646Z" fill="#FF4B4B"/>
<path d="M336.495 464.132C336.495 460.122 333.242 456.871 329.229 456.871H303.788C299.777 456.871 296.522 460.122 296.522 464.132C296.522 468.142 299.777 471.392 303.788 471.392H329.229C333.242 471.392 336.495 468.142 336.495 464.132Z" fill="#FF4B4B"/>
<path d="M339.541 275.831L403.726 164.728C407.163 158.776 414.779 156.737 420.735 160.173C426.691 163.61 428.733 171.221 425.294 177.173L361.111 288.276C360.091 290.04 357.834 290.643 356.071 289.624L340.892 280.868C339.127 279.849 338.523 277.593 339.541 275.831Z" fill="#FFB100"/>
<path d="M405.486 169.896C411.634 175.625 421.263 175.289 426.997 169.146C432.729 163.002 432.392 153.377 426.245 147.648C425.518 146.97 424.647 146.298 423.688 145.669L423.035 145.256C422.704 145.053 422.364 144.856 422.017 144.665L421.317 144.294C420.846 144.054 420.366 143.827 419.881 143.618L419.153 143.316C414.779 141.592 410.312 141.384 409.375 145.01L408.659 147.835L408.463 148.572C408.43 148.69 408.397 148.807 408.363 148.923L408.152 149.615L407.91 150.325L407.622 151.09C406.798 153.188 405.26 153.033 403.009 150.626C399.154 156.688 400.039 164.821 405.486 169.896Z" fill="#A56644"/>
<path d="M393.026 146.654C390.769 148.48 390.42 151.789 392.248 154.044L403.219 167.584C405.047 169.839 408.358 170.187 410.615 168.361C412.871 166.534 413.218 163.226 411.391 160.97L400.421 147.43C398.594 145.175 395.283 144.827 393.026 146.654Z" fill="#A56644"/>
<path d="M418.441 130.193C415.623 129.49 412.769 131.204 412.067 134.02L407.581 151.998C406.879 154.814 408.594 157.666 411.412 158.368C414.229 159.07 417.081 157.357 417.783 154.541L422.269 136.562C422.972 133.746 421.257 130.895 418.441 130.193Z" fill="#A56644"/>
<path d="M432.498 134.81C430.009 133.315 426.779 134.12 425.283 136.608L415.734 152.49C414.238 154.978 415.044 158.206 417.532 159.7C420.022 161.195 423.252 160.39 424.748 157.903L434.296 142.02C435.792 139.533 434.986 136.305 432.498 134.81Z" fill="#A56644"/>
<path d="M441.12 145.438C438.961 143.496 435.636 143.67 433.693 145.826L421.288 159.596C419.345 161.753 419.519 165.075 421.678 167.017C423.834 168.959 427.159 168.785 429.102 166.628L441.508 152.858C443.451 150.702 443.276 147.379 441.12 145.438Z" fill="#A56644"/>
<path d="M265.587 357.623C273.993 357.623 280.807 364.433 280.807 372.832C280.807 381.233 273.993 388.042 265.587 388.042C259.175 388.042 248.566 383.776 251.449 378.474C252.893 375.817 253.521 374.844 254.317 372.832C255.145 370.737 253.915 369.802 250.626 370.028C251.942 362.967 258.14 357.623 265.587 357.623Z" fill="#A56644"/>
<path d="M240.612 366.128C240.209 363.255 242.212 360.598 245.088 360.195L262.351 357.769C265.227 357.365 267.886 359.367 268.289 362.241C268.693 365.116 266.69 367.772 263.815 368.177L246.551 370.601C243.675 371.005 241.018 369.003 240.612 366.128Z" fill="#A56644"/>
<path d="M247.966 395.491C245.428 394.084 244.51 390.886 245.918 388.347L254.906 372.142C256.314 369.604 259.514 368.686 262.054 370.093C264.594 371.5 265.51 374.699 264.102 377.237L255.114 393.443C253.707 395.981 250.506 396.897 247.966 395.491Z" fill="#A56644"/>
<path d="M261.399 401.695C258.559 401.092 256.746 398.302 257.349 395.464L261.204 377.339C261.808 374.501 264.6 372.688 267.44 373.292C270.28 373.895 272.093 376.685 271.489 379.524L267.635 397.648C267.031 400.487 264.239 402.299 261.399 401.695Z" fill="#A56644"/>
<path d="M274.957 399.796C272.055 399.746 269.741 397.352 269.793 394.45L270.115 375.924C270.167 373.023 272.562 370.713 275.464 370.763C278.368 370.813 280.68 373.206 280.63 376.108L280.306 394.635C280.256 397.535 277.861 399.847 274.957 399.796Z" fill="#A56644"/>
<path d="M492.613 272.742L526.826 283.852C538.131 287.523 544.318 299.658 540.645 310.956L535.419 327.028C531.745 338.326 519.604 344.51 508.299 340.839L474.086 329.729C462.781 326.058 456.594 313.923 460.267 302.625L465.493 286.553C469.167 275.255 481.309 269.071 492.613 272.742Z" fill="#FFB100"/>
<path d="M542.473 294.804L567.057 291.35C607.102 285.725 644.127 313.61 649.755 353.631L658.72 417.375C659.397 422.191 656.039 426.645 651.22 427.321L499.073 448.691C494.252 449.369 489.797 446.013 489.119 441.195L480.155 377.453C477.893 361.37 481.047 345.773 488.227 332.504C497.768 311.87 515.85 299.303 542.473 294.804Z" fill="#FFB100"/>
<path d="M517.755 302.447L533.01 410.918C533.57 414.912 531.058 418.566 527.397 419.079L486.81 424.78L480.155 377.455C477.893 361.372 481.047 345.775 488.227 332.506C494.443 319.063 504.287 309.043 517.755 302.447Z" fill="#FF9500"/>
<path d="M649.755 353.631L656.41 400.956L594.794 409.61C591.132 410.124 587.709 407.305 587.148 403.311L571.337 290.874C609.708 287.734 644.328 315.04 649.755 353.631Z" fill="#FF9500"/>
<path d="M552.079 354.826C555.844 354.297 558.469 350.819 557.939 347.054C557.409 343.292 553.927 340.671 550.162 341.198C546.398 341.728 543.775 345.208 544.303 348.97C544.833 352.733 548.314 355.355 552.079 354.826Z" fill="white"/>
<path d="M531.405 292.344C539.566 291.198 547.111 296.881 548.259 305.037L549.663 315.018C550.809 323.174 545.124 330.715 536.961 331.861C528.799 333.008 521.254 327.325 520.107 319.168L518.702 309.19C517.557 301.032 523.242 293.491 531.405 292.344Z" fill="white"/>
<path d="M555.988 288.893C564.15 287.746 571.697 293.43 572.844 301.586L574.247 311.565C575.394 319.721 569.707 327.264 561.546 328.41C553.385 329.557 545.838 323.874 544.691 315.717L543.288 305.737C542.14 297.58 547.827 290.038 555.988 288.893Z" fill="white"/>
<path d="M589.881 201.654C603.153 203.519 615.417 194.339 617.27 181.151C619.125 167.963 609.87 155.761 596.598 153.897C583.325 152.033 571.062 161.212 569.209 174.4C567.354 187.588 576.609 199.79 589.881 201.654Z" fill="#3D3D3D"/>
<path d="M552.409 190.072L609.675 198.115C637.086 201.965 656.183 227.293 652.332 254.687C648.479 282.082 623.135 301.168 595.725 297.318L538.459 289.274C511.047 285.425 491.949 260.096 495.802 232.703C499.655 205.308 524.997 186.222 552.409 190.072Z" fill="#3D3D3D"/>
<path d="M495.995 231.447L652.492 253.429C652.444 253.848 652.39 254.267 652.331 254.686C649.728 273.192 637.319 287.908 621.09 294.321L514.902 279.405C501.071 268.769 493.2 251.207 495.801 232.701C495.86 232.282 495.926 231.865 495.995 231.447Z" fill="#CAC9C9"/>
<path d="M574.195 202.967C608.137 207.734 631.787 239.098 627.016 273.022L620.023 316.601L615.188 315.932L610.473 315.305L605.875 314.72L602.876 314.355L599.929 314.008L597.034 313.679L594.192 313.37L591.402 313.08L588.666 312.808C588.213 312.765 587.765 312.722 587.318 312.68L583.35 312.323L580.772 312.108L578.244 311.913L575.772 311.737L573.349 311.578L570.98 311.44L568.665 311.32L566.401 311.22L564.191 311.137L562.032 311.075L559.926 311.03L557.872 311.004L555.873 310.999C555.543 310.999 555.215 311.001 554.891 311.002L552.969 311.025L551.1 311.066C550.793 311.075 550.488 311.083 550.186 311.094L548.395 311.163L546.657 311.251C529.826 312.213 512.763 315.384 495.47 320.761L497.105 305.483L504.097 255.757C508.867 221.834 540.251 198.199 574.195 202.967Z" fill="#FFCBA3"/>
<path d="M569.52 261.873L570.019 261.276C573.009 257.583 578.43 257.01 582.126 260C585.822 262.988 586.395 268.406 583.405 272.1C574.598 282.979 562.363 287.054 548.108 284.041C543.456 283.058 540.482 278.494 541.465 273.845C542.44 269.241 546.926 266.284 551.53 267.179L551.669 267.206C559.432 268.846 564.962 267.154 569.52 261.873Z" fill="#A54944"/>
<path d="M582.127 260C585.083 262.388 586.04 266.33 584.779 269.703L552.968 273.045C550.266 273.328 547.845 271.369 547.562 268.668L547.426 267.379C548.718 266.991 550.119 266.903 551.532 267.179L551.67 267.206C559.638 268.889 565.253 267.063 569.88 261.449L570.02 261.276C573.01 257.583 578.431 257.01 582.127 260Z" fill="white"/>
<path d="M565.18 276.873C568.479 277.161 571.426 278.525 573.704 280.587C567.118 284.451 559.45 285.796 551.008 284.562C553.675 279.547 559.16 276.347 565.18 276.873Z" fill="#E45951"/>
<path d="M532.28 192.576L622.053 205.185L619.994 219.816L530.222 207.207L532.28 192.576Z" fill="#3D3D3D"/>
<path d="M564.938 297.3C565.671 297.095 566.43 297.523 566.635 298.256C566.839 298.987 566.413 299.746 565.68 299.951C557.189 302.323 549.966 300.116 544.254 293.403C543.762 292.826 543.831 291.957 544.411 291.465C544.99 290.972 545.858 291.043 546.352 291.62C551.367 297.516 557.482 299.383 564.938 297.3Z" fill="#F7B286"/>
<path d="M525.076 237.791C524.326 237.91 523.813 238.615 523.932 239.365C524.051 240.115 524.757 240.627 525.508 240.508C528.018 240.112 530.363 240.4 532.571 241.383L532.928 241.55L532.204 241.924C529.764 243.216 527.733 244.659 526.117 246.257L525.642 246.742C525.121 247.294 525.147 248.166 525.701 248.687C526.255 249.208 527.126 249.182 527.647 248.628C529.666 246.488 532.582 244.599 536.403 242.976C537.39 242.557 537.54 241.22 536.671 240.595C533.167 238.068 529.276 237.125 525.076 237.791Z" fill="#F3A577"/>
<path d="M517.26 203.387L529.928 199.729C533.042 199.264 535.944 201.41 536.41 204.523C536.491 205.065 536.493 205.615 536.417 206.158L533.943 223.751C532.937 230.902 526.323 235.882 519.168 234.878L506.956 233.162C503.124 232.624 502.535 230.845 502.97 228.21L503.07 227.672C503.089 227.581 503.108 227.488 503.129 227.394L503.336 226.529L504.2 223.322L504.376 222.625L504.544 221.913L504.699 221.183C504.773 220.816 504.842 220.442 504.901 220.063L505.023 219.221C506.141 211.27 509.314 204.574 517.26 203.387Z" fill="#3D3D3D"/>
<path d="M611.792 209.942L626.782 216.994C634.445 220.599 638.865 228.771 637.687 237.151L637.525 238.302C636.519 245.451 629.905 250.432 622.752 249.427L612.196 247.944C605.042 246.941 600.058 240.329 601.064 233.18L603.717 214.304C604.156 211.188 607.04 209.017 610.158 209.455C610.724 209.534 611.275 209.698 611.792 209.942Z" fill="#3D3D3D"/>
<path d="M550.717 217.467C563.671 215.582 575.659 217.265 586.574 222.537C588.655 223.54 589.526 226.041 588.522 228.12C587.516 230.2 585.015 231.071 582.934 230.067C573.56 225.541 563.259 224.094 551.923 225.744C549.637 226.077 547.513 224.494 547.18 222.207C546.847 219.923 548.431 217.8 550.717 217.467Z" fill="#3D3D3D"/>
<path d="M565.638 248.73C567.632 242.762 574.089 239.539 580.062 241.53C582.674 242.403 584.881 244.189 586.277 246.562C586.81 247.466 586.508 248.63 585.602 249.162C584.698 249.694 583.534 249.392 583 248.488C582.07 246.907 580.599 245.715 578.858 245.134C574.877 243.807 570.572 245.955 569.244 249.933C568.911 250.928 567.834 251.464 566.839 251.133C565.843 250.801 565.305 249.725 565.638 248.73Z" fill="#CC7C4D"/>
<path d="M540.311 240.104C544.877 235.77 552.092 235.955 556.428 240.516C558.326 242.511 559.436 245.125 559.555 247.874C559.6 248.922 558.785 249.808 557.736 249.853C556.689 249.898 555.802 249.086 555.757 248.038C555.678 246.205 554.938 244.463 553.673 243.133C550.783 240.092 545.972 239.969 542.93 242.859C542.17 243.582 540.965 243.551 540.242 242.79C539.519 242.03 539.55 240.828 540.311 240.104Z" fill="#CC7C4D"/>
<path d="M552.783 262.334C555.786 264.065 559.639 263.012 561.39 259.98C562.083 258.782 562.299 256.445 562.308 254.059L562.303 253.216L562.268 251.967L562.232 251.162L562.187 250.388L562.083 248.981L561.913 247.196L561.849 246.641L560.71 247.142L559.723 247.599L558.538 248.17L557.672 248.605C557.523 248.681 557.373 248.758 557.223 248.836L556.308 249.324C553.853 250.664 551.336 252.295 550.52 253.707C548.768 256.738 549.781 260.601 552.783 262.334Z" fill="#E89665"/>
<path d="M601.879 248.58C602.567 248.901 602.866 249.72 602.545 250.408C602.222 251.098 601.404 251.394 600.714 251.073C598.411 250.001 596.078 249.632 593.683 249.968L593.295 250.03L593.889 250.589C595.876 252.505 597.429 254.45 598.544 256.433L598.866 257.028C599.215 257.704 598.949 258.533 598.273 258.881C597.598 259.23 596.767 258.966 596.418 258.29C595.069 255.676 592.788 253.056 589.561 250.444C588.728 249.77 588.952 248.444 589.962 248.08C594.027 246.618 598.026 246.785 601.879 248.58Z" fill="#F3A577"/>
<path d="M640.389 296.115C657.284 296.115 670.98 308.446 670.98 323.657V335.055C670.98 350.265 657.284 362.596 640.389 362.596C623.492 362.596 609.796 350.265 609.796 335.055V323.657C609.796 308.446 623.492 296.115 640.389 296.115Z" fill="#FFB100"/>
<path d="M652.778 281.633C653.936 277.599 658.146 275.266 662.182 276.423C666.218 277.58 668.55 281.788 667.394 285.821L666.318 289.573C666.935 289.679 667.555 289.818 668.172 289.996L675.481 292.091C684.562 294.693 689.812 304.16 687.209 313.235L684.59 322.364C681.986 331.439 672.514 336.686 663.431 334.084L656.124 331.991C647.043 329.389 641.793 319.922 644.396 310.845L652.778 281.633Z" fill="#FFCBA3"/>
<path d="M451.494 463.75C451.494 459.587 454.871 456.211 459.036 456.211H481.511C485.678 456.211 489.054 459.587 489.054 463.75C489.054 467.912 485.678 471.289 481.511 471.289H459.036C454.871 471.289 451.494 467.912 451.494 463.75Z" fill="#593F86"/>
<path d="M429.86 463.75C429.86 459.587 433.237 456.211 437.402 456.211H459.877C464.044 456.211 467.421 459.587 467.421 463.75C467.421 467.912 464.044 471.289 459.877 471.289H437.402C433.237 471.289 429.86 467.912 429.86 463.75Z" fill="#593F86"/>
<path d="M464.71 144.444C494.51 145.484 519.119 168.049 522.717 197.632L533.509 286.38C533.709 288.025 532.536 289.522 530.888 289.722C530.735 289.741 530.578 289.747 530.421 289.742L395.28 285.026C393.621 284.968 392.325 283.578 392.382 281.921C392.385 281.808 392.396 281.696 392.413 281.586L405.383 193.841C409.693 164.683 435.235 143.415 464.71 144.444Z" fill="#A570FF"/>
<path d="M456.371 252.27L480.712 256.559C481.759 256.743 482.497 257.514 482.363 258.282L470.52 325.407C470.383 326.175 469.426 326.647 468.378 326.463L444.038 322.173C442.991 321.988 442.252 321.217 442.387 320.45L454.23 253.324C454.365 252.557 455.324 252.086 456.371 252.27Z" fill="#593F86"/>
<path d="M510.368 186.776L514.775 186.157C521.019 185.281 526.793 189.628 527.669 195.868C528.547 202.108 524.198 207.877 517.953 208.754L513.547 209.373C507.302 210.25 501.531 205.902 500.653 199.663C499.774 193.423 504.126 187.653 510.368 186.776Z" fill="#FFC6B7"/>
<path d="M458.596 153.635C483.554 150.129 507.166 165.914 513.452 190.306L523.639 229.839C527.007 242.911 519.135 256.235 506.055 259.603C505.168 259.83 504.268 260.01 503.36 260.137L442.381 268.702C429.007 270.58 416.64 261.267 414.761 247.901C414.598 246.749 414.519 245.589 414.523 244.427L414.643 204.013C414.721 178.633 433.448 157.167 458.596 153.635Z" fill="#FFC6B7"/>
<path d="M512.308 186.499L512.31 186.505L477.821 191.349C458.374 194.081 440.373 180.762 437.226 161.489C443.477 157.155 450.73 154.12 458.596 152.809C483.473 148.661 505.072 163.881 512.308 186.499Z" fill="#A570FF"/>
<path d="M492.709 192.224L479.631 194.061C471.354 195.224 465.588 202.872 466.751 211.143L468.217 221.572C468.785 225.607 472.517 228.418 476.554 227.851L484.231 226.773C492.507 225.611 498.274 217.963 497.111 209.691L494.885 193.862C494.737 192.809 493.764 192.076 492.709 192.224Z" fill="white"/>
<path d="M492.541 195.934L493.704 204.2C494.227 207.914 491.637 211.347 487.922 211.869C484.206 212.391 480.77 209.804 480.248 206.09L479.09 197.856C479.435 197.786 479.785 197.725 480.139 197.676L492.541 195.934Z" fill="#3D3D3D"/>
<path d="M492.71 192.224C493.763 192.076 494.736 192.809 494.884 193.862L496.27 203.718L466.645 207.88C467.164 201.026 472.337 195.204 479.383 194.098L479.63 194.061L492.71 192.224Z" fill="#A570FF"/>
<path d="M432.765 200.644L445.845 198.807C454.122 197.645 461.774 203.408 462.937 211.68L464.359 221.79C464.953 226.001 462.016 229.895 457.804 230.486L450.445 231.519C442.169 232.681 434.517 226.919 433.352 218.647L431.126 202.818C430.979 201.766 431.713 200.792 432.765 200.644Z" fill="white"/>
<path d="M461.098 207.371L461.324 208.981C461.845 212.694 459.257 216.128 455.54 216.649C451.824 217.172 448.389 214.584 447.867 210.871L446.679 202.425C446.598 201.846 446.592 201.273 446.654 200.718C452.631 200.076 458.185 202.815 461.098 207.371Z" fill="#3D3D3D"/>
<path d="M462.14 208.513L432.513 212.674L431.126 202.818C430.979 201.765 431.713 200.792 432.765 200.644L445.845 198.807C453.018 197.8 459.721 201.993 462.14 208.513Z" fill="#A570FF"/>
<path d="M476.148 230.843C480.979 224.143 489.483 220.415 501.373 219.413C503.573 219.228 505.505 220.861 505.692 223.058C505.876 225.257 504.242 227.19 502.044 227.374C492.268 228.197 485.894 230.992 482.633 235.513C481.343 237.303 478.846 237.71 477.055 236.42C475.264 235.13 474.857 232.633 476.148 230.843Z" fill="#FFC6B7"/>
<path d="M477.475 245.631C480.629 236.689 485.077 232.609 490.765 234.514C491.804 234.863 492.363 235.985 492.016 237.023C491.668 238.061 490.545 238.62 489.506 238.273C486.488 237.261 483.743 239.779 481.215 246.949C480.851 247.98 479.719 248.521 478.686 248.159C477.652 247.795 477.111 246.662 477.475 245.631Z" fill="#EE9583"/>
<path d="M464.438 238.508C467.803 238.625 470.627 236.009 470.745 232.664C470.784 231.493 470.099 229.738 469.19 227.95L468.788 227.182L468.367 226.422C468.296 226.296 468.224 226.17 468.153 226.046L467.722 225.311L467.292 224.608L466.676 223.628L465.646 222.068L465.042 221.195L464.276 222.154L463.848 222.708L463.092 223.709L462.538 224.472L461.962 225.289C461.672 225.708 461.379 226.142 461.094 226.584L460.539 227.47C459.457 229.248 458.596 231.028 458.555 232.238C458.437 235.583 461.072 238.389 464.438 238.508Z" fill="#EE9583"/>
<path d="M421.652 165.557L422.387 164.836L439.753 157.624C441.59 156.861 443.7 157.731 444.465 159.569C444.648 160.007 444.741 160.477 444.741 160.952V270.725C444.741 272.382 443.395 273.727 441.737 273.727H407.633C405.642 273.727 404.028 272.113 404.028 270.123V208.044C404.028 192.093 410.378 176.811 421.652 165.557Z" fill="#A570FF"/>
<path d="M439.129 323.977H464.028C465.006 323.977 465.815 324.74 465.869 325.718L472.431 444.635C472.486 445.653 471.708 446.522 470.69 446.578C470.655 446.58 470.622 446.58 470.588 446.58H445.689C444.71 446.58 443.901 445.816 443.848 444.839L437.286 325.922C437.231 324.904 438.009 324.035 439.027 323.978C439.06 323.977 439.094 323.977 439.129 323.977Z" fill="#A570FF"/>
<path d="M465.906 273.276L466.967 273.579C471.772 274.957 475.573 278.64 477.098 283.398L491.1 327.076C493.022 333.069 489.716 339.486 483.719 341.407C481.571 342.095 479.266 342.129 477.097 341.508L421.296 325.517C415.243 323.782 411.742 317.471 413.478 311.42C414.099 309.253 415.352 307.318 417.074 305.863L452.108 276.236C455.924 273.008 461.101 271.898 465.906 273.276Z" fill="#593F86"/>
<path d="M434.453 304.715C439.239 301.488 445.737 302.751 448.965 307.534C452.193 312.317 450.93 318.811 446.144 322.038C441.358 325.264 434.86 324.002 431.632 319.218C428.404 314.435 429.667 307.941 434.453 304.715Z" fill="#FFC6B7"/>
<path d="M426.476 307.632L479.456 322.815C484.501 324.26 487.419 329.52 485.973 334.562C484.525 339.604 479.263 342.52 474.218 341.073L421.236 325.89C416.191 324.445 413.275 319.186 414.721 314.144C416.169 309.102 421.431 306.186 426.476 307.632Z" fill="#593F86"/>
<path d="M486.164 323.456L464.369 308.204C455.918 302.292 444.326 304.206 438.215 312.429L437.897 312.869L475.263 339.015C479.562 342.024 485.487 340.979 488.498 336.684C491.507 332.387 490.464 326.465 486.164 323.456Z" fill="#593F86"/>
<path d="M477.519 324.03C475.276 325.72 472.088 325.271 470.397 323.03C470.28 322.875 470.173 322.714 470.074 322.547L462.876 310.316L467.417 310.182C471.588 310.056 475.558 311.961 478.07 315.291L478.641 316.05C480.535 318.564 480.033 322.137 477.519 324.03Z" fill="#FFC6B7"/>
<path d="M68.0698 185.318L179.011 265.873C180.658 267.069 181.024 269.375 179.827 271.023L173.32 279.973C172.123 281.62 169.815 281.985 168.167 280.788L57.2263 200.234C55.5777 199.036 55.2122 196.73 56.41 195.083L62.9162 186.134C64.1138 184.486 66.4211 184.121 68.0698 185.318Z" fill="#1CB0F6"/>
<path d="M236.709 327.891L217.276 282.139C215.261 277.392 209.774 275.177 205.026 277.192C200.276 279.207 198.059 284.689 200.076 289.436L219.507 335.189C221.524 339.936 227.009 342.152 231.759 340.136C236.509 338.12 238.724 332.638 236.709 327.891Z" fill="#1CB0F6"/>
<path d="M246.418 280.457L220.368 327.048C217.85 331.553 219.481 337.223 224.014 339.713C228.545 342.203 234.261 340.57 236.778 336.066L260.125 294.312C262.642 289.808 261.01 284.139 256.479 281.649L251.611 278.974C249.769 277.96 247.443 278.626 246.418 280.457Z" fill="#1CB0F6"/>
<path d="M171.835 464.098C171.835 460.025 174.925 456.723 178.736 456.723H207.671C211.482 456.723 214.573 460.025 214.573 464.098C214.573 468.171 211.482 471.473 207.671 471.473H178.736C174.925 471.473 171.835 468.171 171.835 464.098Z" fill="#FF86D0"/>
<path d="M22.7725 451.876C24.1664 448.048 28.1999 446.001 31.7815 447.305L58.9717 457.196C62.5533 458.498 64.3269 462.657 62.9329 466.485C61.5391 470.311 57.5057 472.358 53.9241 471.055L26.7338 461.165C23.1522 459.862 21.3787 455.703 22.7725 451.876Z" fill="#FF86D0"/>
<path d="M146.93 290.484C171.892 290.484 192.128 310.658 192.128 335.542C192.128 352.549 182.676 367.356 168.723 375.026L160.285 369.955C149.282 363.344 135.148 366.139 127.459 376.216C112.243 368.963 101.732 353.477 101.732 335.542C101.732 310.658 121.968 290.484 146.93 290.484Z" fill="#FFB7E3"/>
<path d="M195.588 258.294L195.707 297.308C195.726 303.878 190.415 309.22 183.841 309.24C182.021 309.245 180.223 308.833 178.588 308.035L147.632 292.947C141.725 290.067 139.271 282.947 142.153 277.041C142.951 275.407 144.113 273.977 145.551 272.861L176.386 248.936C181.579 244.906 189.056 245.848 193.086 251.036C194.699 253.114 195.579 255.666 195.588 258.294Z" fill="#1CB0F6"/>
<path d="M141.253 284.91L185.846 309.02L184.994 311.539L137.019 291.73L141.253 284.91Z" fill="#FF86D0"/>
<path d="M154.326 291.974L149.414 303L143.405 300.327L148.524 288.836L154.326 291.974Z" fill="#FFB7E3"/>
<path d="M175.881 303.622L171.733 312.93L165.725 310.257L170.076 300.49L175.881 303.622Z" fill="#FFB7E3"/>
<path d="M208.719 282.137L200.175 280.631C197.273 280.119 194.507 282.044 193.998 284.928C193.951 285.197 193.925 285.468 193.918 285.741L193.321 315.736C193.27 318.352 195.143 320.619 197.735 321.076L210.831 323.383C213.733 323.896 216.499 321.971 217.008 319.085C217.099 318.56 217.113 318.026 217.044 317.496L213.089 286.698C212.793 284.39 211.021 282.542 208.719 282.137Z" fill="#FFB7E3"/>
<path d="M233.685 143.586C270.158 156.137 289.543 195.861 276.986 232.312L274.537 239.414C261.98 275.866 222.232 295.24 185.758 282.691C149.285 270.139 129.898 230.415 142.457 193.964L144.904 186.86C157.463 150.409 197.212 131.035 233.685 143.586Z" fill="#FFB7E3"/>
<path fill-rule="evenodd" clip-rule="evenodd" d="M251.191 242.969C252.482 244.245 252.494 246.326 251.217 247.618C228.509 270.577 197.659 279.015 158.302 265.244C155.267 262.109 152.548 258.707 150.17 255.094C150.426 255.136 150.68 255.21 150.929 255.317C192.513 273.171 223.792 265.996 246.539 242.996C247.816 241.705 249.899 241.693 251.191 242.969Z" fill="#FF9BD8"/>
<path d="M223.186 157.04C252.977 164.464 271.107 194.618 263.679 224.392C256.252 254.166 226.078 272.286 196.285 264.861C166.494 257.437 148.365 227.284 155.792 197.51C163.22 167.736 193.394 149.617 223.186 157.04Z" fill="#E18E70"/>
<path d="M223.185 157.04C235.608 160.136 246.004 167.185 253.364 176.511C238.907 182.35 207.077 200.525 164.327 181.545C163.883 181.348 163.432 181.12 162.979 180.868C175.509 161.408 199.468 151.131 223.185 157.04Z" fill="#3D3D3D"/>
<path d="M212.045 203.631C206.501 207.975 205.533 215.984 209.881 221.52C212.747 225.17 217.209 226.834 221.505 226.3L221.474 226.351L221.847 226.251C222.734 226.119 223.615 225.889 224.473 225.562L226.78 224.977L227.731 224.743L229.566 224.305L231.312 223.906C231.878 223.78 232.431 223.66 232.969 223.548C233.918 223.466 234.848 223.277 235.742 222.991C236.071 222.913 236.345 222.815 236.565 222.696C240.278 221.22 243.242 218.03 244.256 213.854C245.915 207.015 241.71 200.128 234.862 198.47C226.726 196.501 218.758 198.372 212.045 203.631Z" fill="white"/>
<path d="M205.103 201.904C207.957 208.34 205.05 215.866 198.611 218.715C194.365 220.592 189.644 219.968 186.102 217.48L186.105 217.54L185.824 217.278C185.101 216.744 184.431 216.126 183.829 215.436L182.066 213.838C181.574 213.396 181.093 212.967 180.622 212.551L179.238 211.341L177.913 210.209C177.697 210.027 177.483 209.848 177.273 209.672C176.472 209.155 175.741 208.552 175.085 207.88C174.831 207.656 174.636 207.44 174.498 207.233C171.913 204.188 170.794 199.979 171.86 195.817C173.608 189 180.556 184.892 187.382 186.641C195.489 188.721 201.647 194.111 205.103 201.904Z" fill="white"/>
<path d="M197.341 199.335C201.744 200.432 204.472 204.792 203.589 209.192L203.501 209.58L202.516 213.529C201.387 218.058 196.798 220.814 192.265 219.685C187.863 218.588 185.134 214.228 186.017 209.828L186.105 209.44L187.09 205.491C187.192 205.084 187.322 204.691 187.477 204.313C188.119 204.98 188.949 205.478 189.912 205.718C192.655 206.401 195.435 204.727 196.121 201.977C196.366 200.994 196.311 200.007 196.013 199.113C196.454 199.151 196.898 199.225 197.341 199.335Z" fill="#3D3D3D"/>
<path d="M220.402 204.865C224.805 205.962 227.533 210.321 226.649 214.721L226.561 215.11L225.576 219.059C224.446 223.587 219.856 226.342 215.326 225.215C210.922 224.116 208.195 219.757 209.078 215.357L209.166 214.969L210.151 211.02C210.253 210.613 210.382 210.22 210.538 209.843C211.179 210.509 212.009 211.007 212.972 211.247C215.716 211.931 218.495 210.256 219.182 207.506C219.427 206.524 219.372 205.536 219.073 204.643C219.513 204.681 219.958 204.754 220.402 204.865Z" fill="#3D3D3D"/>
<path d="M164.364 210.053L165.216 200.387L165.907 200.458L166.7 200.562L167.59 200.7L168.572 200.874C168.743 200.906 168.917 200.94 169.096 200.975L170.207 201.208L171.398 201.483L172.664 201.802C178.061 203.217 183.401 205.382 188.336 208.476C195.306 212.848 200.862 218.712 204.463 226.234L204.855 227.077L196.005 231.071C193.258 224.989 188.864 220.264 183.175 216.697C179.146 214.17 174.703 212.369 170.199 211.187C168.622 210.774 167.157 210.469 165.848 210.257L164.804 210.103L164.364 210.053Z" fill="#E18E70"/>
<path d="M203.442 219.324C215.591 215.108 227.967 215.124 240.336 219.357C243.71 220.512 245.509 224.182 244.353 227.553C243.199 230.924 239.527 232.722 236.152 231.567C226.499 228.263 217.085 228.251 207.678 231.515C204.31 232.684 200.631 230.903 199.462 227.537C198.292 224.169 200.074 220.493 203.442 219.324Z" fill="#E18E70"/>
<path d="M196.104 227.508C198.625 229.022 201.881 228.231 203.377 225.742C203.861 224.935 204.082 223.483 204.158 221.888L204.184 221.081C204.186 220.947 204.187 220.811 204.189 220.675L204.186 219.859L204.167 219.054L204.117 217.898L204.049 216.846L203.955 215.689L203.848 214.629L202.873 215.026L201.92 215.435L201.166 215.772C201.035 215.832 200.901 215.895 200.763 215.958L199.921 216.358C197.627 217.476 195.032 218.959 194.249 220.262C192.753 222.751 193.583 225.994 196.104 227.508Z" fill="#9E4D31"/>
<path d="M187.916 223.512C185.694 222.017 182.776 222.058 180.597 223.613C177.812 225.6 177.089 229.4 178.891 232.256L179.101 232.57L179.62 233.296L178.941 233.875C177.005 235.525 176.235 238.151 176.946 240.569L177.072 240.948C178.282 244.282 181.965 246.004 185.3 244.794C186.23 244.457 186.71 243.431 186.374 242.502C186.063 241.645 185.164 241.171 184.296 241.367L184.081 241.431C182.604 241.966 180.973 241.204 180.437 239.727C180.064 238.7 180.316 237.557 181.066 236.782L181.265 236.596L183.192 234.953C183.841 234.399 184.001 233.478 183.608 232.746L183.487 232.552L182.015 230.49C181.103 229.212 181.398 227.438 182.676 226.526C183.568 225.89 184.736 225.826 185.685 226.34L185.916 226.479C186.738 227.031 187.849 226.814 188.401 225.995C188.953 225.176 188.736 224.063 187.916 223.512Z" fill="#B66447"/>
<path d="M195.092 172.672L184.119 175.138L185.777 176.456C187.233 177.641 187.111 179.913 185.535 180.944C177.964 185.895 167.94 185.414 160.759 179.574C153.578 173.735 151.026 163.988 154.274 155.521C154.95 153.758 156.636 153.247 158.093 154.432L164.478 159.513C170.496 163.428 175.645 163.068 180.337 161.904L181.184 161.684L182.022 161.451L183.672 160.964L185.29 160.48L186.087 160.251C186.22 160.213 186.353 160.177 186.484 160.141C190.986 158.921 193.855 163.098 195.092 172.672Z" fill="#3D3D3D"/>
<path d="M133.606 346.324L110.775 344.594C108.034 344.387 105.391 345.658 103.843 347.929L45.824 433.007C43.4331 436.513 44.3387 441.293 47.8468 443.681C48.2637 443.966 48.7076 444.209 49.1719 444.405L67.3589 452.122C70.7222 453.548 74.6257 452.411 76.6962 449.402L139.358 358.336C141.764 354.84 140.878 350.057 137.38 347.653C136.262 346.884 134.959 346.425 133.606 346.324Z" fill="#FFB7E3"/>
<path d="M194.823 390.041H208.423C214.64 390.041 219.681 395.078 219.681 401.291C219.681 402.844 219.359 404.381 218.736 405.803L200.761 446.835C199.439 449.854 196.454 451.804 193.157 451.804H172.612C169.556 451.804 167.078 449.328 167.078 446.272C167.078 445.508 167.236 444.753 167.543 444.055L189.754 393.354C190.636 391.341 192.625 390.041 194.823 390.041Z" fill="#FFB7E3"/>
<path d="M162.254 342.734C169.748 336.884 180.568 338.211 186.423 345.7L217.468 385.412C223.322 392.901 221.994 403.715 214.5 409.565C207.007 415.416 196.185 414.088 190.331 406.599L159.287 366.889C153.432 359.4 154.761 348.587 162.254 342.734Z" fill="#FFB7E3"/>
<path d="M270.959 280.523L271.07 280.811C274.265 289.127 270.109 298.46 261.785 301.651C253.462 304.845 244.126 300.691 240.93 292.373L240.82 292.086C237.624 283.768 241.783 274.438 250.106 271.244C258.428 268.05 267.765 272.206 270.959 280.523Z" fill="#D88669"/>
<path d="M261.944 272.986L265.462 256.674C266.075 253.841 264.26 251.058 261.407 250.461C258.557 249.865 255.75 251.679 255.139 254.513L251.619 270.826C251.008 273.661 252.824 276.442 255.674 277.039C258.526 277.635 261.332 275.821 261.944 272.986Z" fill="#D88669"/>
<path d="M266.842 279.872L278.266 267.702C280.25 265.586 280.127 262.268 277.991 260.289C275.855 258.309 272.515 258.419 270.531 260.533L259.107 272.706C257.123 274.82 257.245 278.139 259.381 280.119C261.517 282.097 264.858 281.986 266.842 279.872Z" fill="#D88669"/>
<path d="M68.3679 154.922L93.8082 163.183C95.7462 163.812 96.8068 165.892 96.177 167.829L81.2601 213.711C80.6305 215.648 78.5489 216.708 76.611 216.079L51.1706 207.817C49.2327 207.188 48.1721 205.108 48.8017 203.171L63.7186 157.289C64.3484 155.352 66.4299 154.292 68.3679 154.922Z" fill="#3D3D3D"/>
<path d="M69.5735 171.056L67.1778 169.234C66.5021 168.72 66.3711 167.756 66.8853 167.081C67.0899 166.812 67.3777 166.618 67.7038 166.529L70.608 165.737L71.6013 162.897C71.8815 162.096 72.7584 161.674 73.5598 161.954C73.879 162.065 74.1525 162.279 74.338 162.561L75.9894 165.077L78.999 165.143C79.8477 165.162 80.5206 165.865 80.5018 166.713C80.4944 167.051 80.3757 167.377 80.1642 167.641L78.2807 169.987L79.1474 172.869C79.3917 173.681 78.9308 174.538 78.1177 174.782C77.794 174.879 77.447 174.867 77.1309 174.748L74.3154 173.683L71.8415 175.397C71.1438 175.88 70.1858 175.707 69.7022 175.01C69.5095 174.732 69.4139 174.399 69.4299 174.061L69.5735 171.056Z" fill="#FF72C8"/>
<path d="M78.924 172.841L81.7105 171.542C82.634 171.112 83.7317 171.511 84.1622 172.434L85.4616 175.219C85.8922 176.142 85.4926 177.239 84.5693 177.669L81.7827 178.968C80.8592 179.398 79.7617 178.999 79.331 178.076L78.0316 175.291C77.6011 174.368 78.0006 173.271 78.924 172.841Z" fill="#47D7FF"/>
<path d="M65.6167 203.885C64.9257 201.88 65.9923 199.694 67.9993 199.003L71.7786 197.702C73.7856 197.012 75.9727 198.078 76.6639 200.084C77.3549 202.09 76.2881 204.275 74.2811 204.966L70.5018 206.267C68.4948 206.957 66.3077 205.891 65.6167 203.885Z" fill="#9069CD"/>
<path d="M70.989 185.21L77.238 182.429C77.9277 182.122 78.7357 182.432 79.0428 183.121C79.1484 183.359 79.1843 183.621 79.1462 183.878L78.8844 185.641L83.1004 186.715C83.832 186.901 84.274 187.645 84.0875 188.376C84.0611 188.479 84.0228 188.579 83.9731 188.674L80.469 195.342C80.4516 195.375 80.433 195.407 80.4131 195.438C79.6929 196.833 78.5207 197.994 76.9882 198.676C73.3481 200.296 69.0541 198.594 67.3974 194.876C65.7407 191.157 67.3487 186.829 70.989 185.21Z" fill="#FF9600"/>
<path d="M73.3258 189.348L73.654 189.42L76.7443 190.216C77.0575 190.297 77.2457 190.616 77.1652 190.929C77.154 190.972 77.1379 191.014 77.1174 191.053L75.6297 193.903L75.6171 193.923C75.3131 194.521 74.8145 195.019 74.1609 195.31C72.6165 195.997 70.7915 195.268 70.0845 193.681C69.3776 192.094 70.0563 190.25 71.6008 189.563C72.161 189.314 72.7583 189.251 73.3258 189.348Z" fill="#FFC800"/>
<path d="M72.4739 178.328L72.5842 178.615C75.7791 186.933 71.6219 196.264 63.2991 199.457C54.9763 202.65 45.6393 198.495 42.4445 190.177L42.3343 189.891C39.1395 181.573 43.2965 172.241 51.6193 169.049C59.9422 165.856 69.2792 170.01 72.4739 178.328Z" fill="#D88669"/>
<path d="M418.685 258.99L429.724 256.239C441.257 253.367 452.938 260.38 455.814 271.907C458.69 283.434 451.671 295.108 440.137 297.981L429.1 300.731C417.565 303.606 405.884 296.591 403.01 285.065C400.134 273.538 407.153 261.864 418.685 258.99Z" fill="#FFB100"/>
<path d="M461.806 269.431C466.996 276.57 465.412 286.563 458.269 291.75L454.04 294.821C446.895 300.008 436.897 298.425 431.707 291.286C426.517 284.147 428.101 274.154 435.244 268.967L439.473 265.896C446.618 260.709 456.615 262.292 461.806 269.431Z" fill="#FFCBA3"/>
<path d="M527.88 456.723H557.704C561.779 456.723 565.084 460.025 565.084 464.098C565.084 468.171 561.779 471.473 557.704 471.473H527.88C523.805 471.473 520.501 468.171 520.501 464.098C520.501 460.025 523.805 456.723 527.88 456.723Z" fill="#FF9500"/>
<path d="M608.941 457.166L637.877 449.955C641.832 448.97 645.837 451.374 646.824 455.326C647.809 459.279 645.404 463.281 641.449 464.267L612.511 471.477C608.556 472.463 604.551 470.058 603.564 466.105C602.579 462.153 604.986 458.151 608.941 457.166Z" fill="#FF9500"/>
<path fill-rule="evenodd" clip-rule="evenodd" d="M515.941 64.9908L564.892 79.0947C572.936 81.4129 577.4 90.5236 574.863 99.4496L569.65 117.798L576.312 119.718L580.954 103.382C584.966 89.2657 577.904 74.8487 565.182 71.1838L519.853 58.1203C507.131 54.4553 507.897 62.6725 515.941 64.9908Z" fill="#4B4B4B"/>
<path d="M559.105 138.294L569.661 141.748C573.402 142.972 577.429 140.938 578.654 137.203L586.38 113.655C587.605 109.921 585.565 105.901 581.824 104.677L571.268 101.223C567.526 99.9986 563.5 102.033 562.275 105.768L554.549 129.316C553.324 133.05 555.363 137.07 559.105 138.294Z" fill="#4B4B4B"/>
<path d="M565.725 136.438L570.279 137.928C573.716 139.053 577.415 137.184 578.541 133.753L584.131 116.714C585.257 113.283 583.383 109.59 579.946 108.465L575.392 106.975C571.954 105.85 568.255 107.72 567.13 111.15L561.539 128.19C560.414 131.621 562.288 135.314 565.725 136.438Z" fill="#777777"/>
</svg>
