<svg width="485" height="550" viewBox="0 0 485 550" fill="none" xmlns="http://www.w3.org/2000/svg">
<g clip-path="url(#clip0_81_5083)">
<path fill-rule="evenodd" clip-rule="evenodd" d="M454.973 217.193L430.716 265.97L408.732 254.971L435.975 200.19C449.226 173.544 438.451 141.178 411.907 127.898L250.355 47.0725C223.812 33.7927 191.552 44.6281 178.301 71.2741L151.058 126.056L129.074 115.057L153.331 66.2802C174.292 24.1315 225.325 6.99047 267.311 27.9965L416.901 102.837C458.895 123.847 475.933 175.044 454.973 217.193Z" fill="#4C4B4C"/>
<path opacity="0.3" fill-rule="evenodd" clip-rule="evenodd" d="M40.8525 516.746H313.653C320.323 516.746 325.992 522.075 325.992 529.067C325.992 535.726 320.656 541.388 313.653 541.388H40.8525C34.1828 541.388 28.513 536.059 28.513 529.067C28.513 522.075 34.1828 516.746 40.8525 516.746Z" fill="#4B4B4B"/>
<path fill-rule="evenodd" clip-rule="evenodd" d="M185.256 496.435C185.256 485.446 194.261 476.123 205.6 476.123H237.949C248.954 476.123 258.292 485.113 258.292 496.435C258.292 507.421 249.288 516.745 237.949 516.745H205.6C194.261 516.745 185.256 507.754 185.256 496.435Z" fill="#F49000"/>
<path fill-rule="evenodd" clip-rule="evenodd" d="M75.8687 505.425C70.8664 495.435 74.8688 483.447 84.541 478.454L104.218 468.464C114.222 463.468 126.227 467.465 131.229 477.121C136.234 487.111 132.232 499.096 122.559 504.092L102.883 514.082C92.8781 519.408 80.871 515.414 75.8687 505.425Z" fill="#F49000"/>
<path fill-rule="evenodd" clip-rule="evenodd" d="M62.8641 496.77C62.8641 485.781 71.8688 476.791 82.8733 476.791H89.2106C100.215 476.791 109.22 485.781 109.22 496.77C109.22 507.756 100.215 516.747 89.2106 516.747H82.8733C71.8688 516.747 62.8641 507.756 62.8641 496.77Z" fill="#F49000"/>
<path d="M227.945 277.006L104.885 35.933C98.2129 22.947 80.871 20.2832 70.5341 30.6054C21.176 79.8855 8.83647 156.469 41.1851 220.067C73.5366 283.665 143.236 318.627 212.27 307.639C226.61 305.307 234.614 289.991 227.945 277.006Z" fill="#58CC02"/>
<path d="M420.039 454.476L366.679 204.082C363.678 190.763 348.67 184.103 336.665 190.763C279.303 223.727 249.288 290.655 263.295 356.585C277.302 422.512 332.663 472.124 398.362 478.786C412.035 480.115 423.04 468.13 420.039 454.476Z" fill="#58CC02"/>
<path fill-rule="evenodd" clip-rule="evenodd" d="M241.284 75.8908C270.298 109.188 291.642 129.166 305.315 135.826C318.655 142.485 347.336 146.814 390.69 148.812C419.371 150.144 441.382 174.784 440.048 203.752C439.714 210.745 438.047 217.737 434.712 224.064L364.011 368.573C326.325 445.825 232.946 477.789 155.24 440.162C77.8711 402.538 45.8548 309.637 83.5409 232.721V232.388L154.908 87.2119C167.581 61.2398 198.93 50.5849 224.942 63.2377C230.945 66.2346 236.615 70.5632 241.284 75.8908Z" fill="#58CC02"/>
<path d="M151.906 321.627C152.241 319.628 154.241 318.629 156.244 319.295L191.26 336.277C193.261 337.276 193.595 339.608 192.261 340.937C185.257 347.932 174.585 349.597 165.247 345.267C155.908 340.937 150.574 331.283 151.906 321.627ZM217.273 349.927L252.29 366.912C254.291 367.908 254.624 370.24 253.29 371.572C246.287 378.564 235.615 380.229 226.277 375.902C216.939 371.239 211.603 361.582 212.937 351.926C213.271 350.261 215.605 349.264 217.273 349.927ZM171.917 364.58L206.934 381.562C208.935 382.561 209.269 384.89 207.935 386.222C200.932 393.217 190.26 394.879 180.922 390.552C171.584 385.889 166.248 376.232 167.582 366.579C167.915 364.913 170.25 363.581 171.917 364.58Z" fill="#89E219"/>
<path d="M245.62 108.52L265.296 174.782C266.296 178.444 263.628 181.774 259.96 181.774C242.284 181.108 226.944 169.121 221.941 151.806C216.939 134.492 223.609 115.845 238.283 106.189C241.284 104.191 244.619 105.19 245.62 108.52Z" fill="#89E219"/>
<path fill-rule="evenodd" clip-rule="evenodd" d="M261.293 161.133C267.629 183.442 293.309 196.095 314.652 187.105C296.977 223.399 270.631 277.008 270.631 277.008C270.631 276.674 252.956 268.017 216.938 251.035C229.944 224.398 244.952 194.43 261.293 161.133Z" fill="#89E219"/>
<path d="M219.607 109.188L238.616 174.783C239.617 178.446 236.949 181.776 233.28 181.776C215.605 181.11 200.264 169.123 195.262 151.808C190.259 134.494 196.929 116.18 211.603 106.191C214.604 103.86 218.606 105.525 219.607 109.188Z" fill="#89E219"/>
<path d="M364.01 167.125L299.979 193.43C296.644 194.762 295.644 199.091 297.978 202.088C309.651 215.406 328.66 219.735 345.335 212.743C362.009 205.75 372.014 188.769 370.347 171.454C370.347 167.458 367.345 165.794 364.01 167.125Z" fill="#89E219"/>
<path d="M379.352 186.436L316.321 213.074C312.986 214.406 311.985 218.735 314.32 221.731C325.992 235.05 345.002 239.379 361.676 232.387C378.351 225.394 388.356 208.413 386.689 191.098C386.689 187.102 382.687 185.105 379.352 186.436Z" fill="#89E219"/>
<path fill-rule="evenodd" clip-rule="evenodd" d="M227.611 125.504L231.946 127.502C260.961 141.487 272.966 176.116 258.626 205.085L239.95 243.044C225.943 271.68 191.26 283.667 162.246 269.682L157.911 267.684C128.897 253.699 116.89 219.07 131.229 190.101L149.906 152.142C163.913 123.507 198.597 111.52 227.611 125.504Z" fill="#89E219"/>
<path fill-rule="evenodd" clip-rule="evenodd" d="M363.344 190.098L367.68 192.096C396.694 206.081 408.7 240.71 394.36 269.679L375.684 307.637C361.677 336.274 326.993 348.262 297.979 334.275L293.977 332.277C265.296 318.293 253.29 283.664 266.964 255.028L285.306 216.736C299.313 188.101 333.996 176.113 363.344 190.098Z" fill="#89E219"/>
<path fill-rule="evenodd" clip-rule="evenodd" d="M353.005 211.409C374.349 221.731 383.02 247.37 372.681 268.347L361.342 291.322C351.004 312.633 325.325 321.29 303.981 310.968C282.637 300.645 273.966 275.006 284.305 254.029L295.644 231.054C306.315 210.077 331.995 201.086 353.005 211.409Z" fill="white"/>
<path fill-rule="evenodd" clip-rule="evenodd" d="M335.997 229.726C346.002 234.72 350.004 246.708 345.335 256.697L335.664 276.342C330.661 286.331 318.655 290.327 308.65 285.665C298.646 280.671 294.644 268.684 299.313 258.695L308.984 239.049C313.653 228.727 325.659 224.731 335.997 229.726Z" fill="#122431"/>
<path d="M345.001 256.031C338.002 256.031 332.328 250.366 332.328 243.378C332.328 236.39 338.002 230.725 345.001 230.725C352 230.725 357.674 236.39 357.674 243.378C357.674 250.366 352 256.031 345.001 256.031Z" fill="white"/>
<path fill-rule="evenodd" clip-rule="evenodd" d="M216.272 144.48C237.615 154.802 246.286 180.441 235.948 201.418L224.609 224.393C214.27 245.704 188.591 254.361 167.248 244.039C145.903 233.717 137.233 208.078 147.57 187.101L158.91 164.125C169.249 142.815 194.928 134.158 216.272 144.48Z" fill="white"/>
<path fill-rule="evenodd" clip-rule="evenodd" d="M211.27 169.788C221.275 174.782 225.277 186.769 220.608 196.758L210.936 216.404C205.934 226.393 193.928 230.389 183.923 225.727C173.918 220.733 169.916 208.746 174.585 198.756L184.257 179.111C188.925 169.122 200.931 165.126 211.27 169.788Z" fill="#122431"/>
<path d="M220.941 197.425C213.942 197.425 208.269 191.76 208.269 184.772C208.269 177.784 213.942 172.119 220.941 172.119C227.94 172.119 233.614 177.784 233.614 184.772C233.614 191.76 227.94 197.425 220.941 197.425Z" fill="white"/>
<path d="M357.007 314.633L375.35 277.339C335.663 269.681 302.647 272.345 265.296 284.332L275.634 309.304C278.969 317.628 287.974 321.958 296.644 319.627C313.986 314.633 330.995 314.3 348.67 318.628C351.671 319.627 355.34 317.628 357.007 314.633Z" fill="#89E219"/>
<path d="M132.231 213.409L145.903 173.119C179.587 195.761 201.264 220.734 218.939 255.697L184.923 270.014C181.254 271.679 176.919 270.014 175.251 266.351C166.247 247.039 152.908 232.055 134.899 221.067C132.564 219.735 131.229 216.405 132.231 213.409Z" fill="#89E219"/>
<path fill-rule="evenodd" clip-rule="evenodd" d="M253.956 242.711C264.961 248.039 269.297 261.025 263.961 272.013L261.293 277.341C255.957 288.329 242.617 292.657 231.945 287.33C220.94 282.002 216.604 269.016 221.94 258.028L224.608 252.701C229.611 241.713 242.951 237.384 253.956 242.711Z" fill="#F49000"/>
<path d="M216.271 251.368C224.608 240.047 240.949 235.718 255.29 243.043C268.296 249.37 274.966 264.687 270.964 278.339L270.297 280.003L240.616 271.346L215.27 253.366L216.271 251.368Z" fill="#FFC200"/>
<path d="M254.623 260.021C255.624 260.021 256.957 259.688 257.624 258.689C259.292 257.024 259.292 254.361 257.624 252.696C253.623 248.7 248.62 246.036 242.951 245.37C240.616 245.038 238.282 246.702 238.282 249.366C237.948 251.697 239.616 254.028 242.284 254.028C245.952 254.361 248.954 256.025 251.622 258.689C252.622 259.688 253.623 260.021 254.623 260.021Z" fill="#FFDE00"/>
<path d="M419.838 265.195C424.946 254.923 437.382 250.747 447.614 255.866C457.846 260.985 462 273.462 456.892 283.733L435.245 327.262C430.136 337.534 417.701 341.711 407.469 336.592C397.237 331.472 393.083 318.996 398.191 308.724L419.838 265.195Z" fill="#787878"/>
<path d="M114.373 166.74C109.265 177.012 96.8292 181.189 86.5971 176.07C76.365 170.951 72.2113 158.474 77.3194 148.202L98.9664 104.673C104.075 94.4018 116.51 90.2249 126.742 95.344C136.974 100.463 141.128 112.94 136.02 123.212L114.373 166.74Z" fill="#787878"/>
<path d="M435.566 229.099L449.828 236.234C456.122 239.383 458.677 247.057 455.535 253.375L410.247 344.441C407.105 350.759 399.456 353.329 393.162 350.18L378.9 343.044C372.607 339.896 370.052 332.221 373.194 325.903L418.481 234.837C421.623 228.519 429.272 225.95 435.566 229.099Z" fill="#4C4B4C"/>
<path d="M98.6422 202.841L84.3801 195.705C78.0864 192.556 75.5314 184.882 78.6734 178.564L123.961 87.498C127.103 81.18 134.752 78.6108 141.046 81.7596L155.308 88.895C161.601 92.0438 164.156 99.7181 161.014 106.036L115.727 197.102C112.585 203.42 104.936 205.989 98.6422 202.841Z" fill="#4C4B4C"/>
</g>
<defs>
<clipPath id="clip0_81_5083">
<rect width="485" height="550" fill="white" transform="matrix(-1 0 0 1 485 0)"/>
</clipPath>
</defs>
</svg>
