<svg width="133" height="54" viewBox="0 0 133 54" fill="none" xmlns="http://www.w3.org/2000/svg">
<g filter="url(#filter0_d_28_14397)">
<rect width="133" height="50" rx="16" fill="white" shape-rendering="crispEdges"/>
<path d="M40.9124 31C40.4817 31 40.1474 30.881 39.9094 30.643C39.6827 30.405 39.5694 30.0763 39.5694 29.657V20.324C39.5694 19.882 39.6827 19.5477 39.9094 19.321C40.1361 19.0943 40.4647 18.981 40.8954 18.981C41.3147 18.981 41.6377 19.0943 41.8644 19.321C42.0911 19.5477 42.2044 19.882 42.2044 20.324V28.773H46.7604C47.1231 28.773 47.4007 28.8693 47.5934 29.062C47.7974 29.2547 47.8994 29.5267 47.8994 29.878C47.8994 30.2407 47.7974 30.5183 47.5934 30.711C47.4007 30.9037 47.1231 31 46.7604 31H40.9124ZM55.0095 31.187C53.8308 31.187 52.7938 30.932 51.8985 30.422C51.0145 29.9007 50.3231 29.1753 49.8245 28.246C49.3371 27.3167 49.0935 26.2343 49.0935 24.999C49.0935 24.0583 49.2295 23.214 49.5015 22.466C49.7848 21.7067 50.1871 21.0607 50.7085 20.528C51.2298 19.984 51.8531 19.5647 52.5785 19.27C53.3151 18.9753 54.1255 18.828 55.0095 18.828C56.2108 18.828 57.2535 19.083 58.1375 19.593C59.0215 20.103 59.7071 20.8227 60.1945 21.752C60.6931 22.67 60.9425 23.7467 60.9425 24.982C60.9425 25.9227 60.8008 26.7727 60.5175 27.532C60.2341 28.2913 59.8318 28.943 59.3105 29.487C58.7891 30.031 58.1658 30.4503 57.4405 30.745C56.7151 31.0397 55.9048 31.187 55.0095 31.187ZM55.0095 28.943C55.6781 28.943 56.2448 28.79 56.7095 28.484C57.1855 28.1667 57.5481 27.7133 57.7975 27.124C58.0581 26.5233 58.1885 25.815 58.1885 24.999C58.1885 23.7523 57.9108 22.789 57.3555 22.109C56.8001 21.4177 56.0181 21.072 55.0095 21.072C54.3521 21.072 53.7855 21.225 53.3095 21.531C52.8335 21.837 52.4708 22.2847 52.2215 22.874C51.9721 23.4633 51.8475 24.1717 51.8475 24.999C51.8475 26.2343 52.1251 27.2033 52.6805 27.906C53.2358 28.5973 54.0121 28.943 55.0095 28.943ZM69.7137 31.187C68.3651 31.187 67.2204 30.932 66.2797 30.422C65.3504 29.912 64.6421 29.198 64.1547 28.28C63.6674 27.362 63.4237 26.2853 63.4237 25.05C63.4237 24.098 63.5654 23.2423 63.8487 22.483C64.1434 21.7123 64.5627 21.0607 65.1067 20.528C65.6621 19.984 66.3307 19.5647 67.1127 19.27C67.9061 18.9753 68.8014 18.828 69.7987 18.828C70.4107 18.828 71.0227 18.896 71.6347 19.032C72.2467 19.168 72.8361 19.3947 73.4027 19.712C73.6407 19.848 73.7994 20.0237 73.8787 20.239C73.9694 20.443 73.9921 20.664 73.9467 20.902C73.9127 21.1287 73.8221 21.3327 73.6747 21.514C73.5387 21.684 73.3574 21.7973 73.1307 21.854C72.9154 21.8993 72.6661 21.854 72.3827 21.718C72.0087 21.514 71.6121 21.3667 71.1927 21.276C70.7734 21.174 70.3144 21.123 69.8157 21.123C69.0111 21.123 68.3367 21.276 67.7927 21.582C67.2487 21.8767 66.8407 22.3187 66.5687 22.908C66.3081 23.486 66.1777 24.2 66.1777 25.05C66.1777 26.3307 66.4837 27.2997 67.0957 27.957C67.7191 28.6143 68.6371 28.943 69.8497 28.943C70.2577 28.943 70.6771 28.9033 71.1077 28.824C71.5384 28.7447 71.9634 28.6313 72.3827 28.484L71.8897 29.555V26.291H70.3597C70.0197 26.291 69.7591 26.206 69.5777 26.036C69.3964 25.866 69.3057 25.6337 69.3057 25.339C69.3057 25.033 69.3964 24.8007 69.5777 24.642C69.7591 24.472 70.0197 24.387 70.3597 24.387H73.0287C73.3687 24.387 73.6237 24.4777 73.7937 24.659C73.9751 24.8403 74.0657 25.101 74.0657 25.441V29.385C74.0657 29.6797 74.0091 29.929 73.8957 30.133C73.7824 30.337 73.5897 30.4843 73.3177 30.575C72.8077 30.7563 72.2354 30.9037 71.6007 31.017C70.9661 31.1303 70.3371 31.187 69.7137 31.187ZM78.5239 31.153C78.0933 31.153 77.7646 31.034 77.5379 30.796C77.3113 30.558 77.1979 30.2237 77.1979 29.793V20.222C77.1979 19.7913 77.3113 19.457 77.5379 19.219C77.7646 18.981 78.0933 18.862 78.5239 18.862C78.9433 18.862 79.2663 18.981 79.4929 19.219C79.7196 19.457 79.8329 19.7913 79.8329 20.222V29.793C79.8329 30.2237 79.7196 30.558 79.4929 30.796C79.2776 31.034 78.9546 31.153 78.5239 31.153ZM84.2688 31.153C83.8721 31.153 83.5661 31.0453 83.3508 30.83C83.1468 30.6033 83.0448 30.286 83.0448 29.878V20.188C83.0448 19.7573 83.1468 19.4287 83.3508 19.202C83.5661 18.9753 83.8495 18.862 84.2008 18.862C84.5068 18.862 84.7391 18.9243 84.8978 19.049C85.0678 19.1623 85.2605 19.355 85.4758 19.627L91.4428 27.226H90.9838V20.12C90.9838 19.7233 91.0858 19.4173 91.2898 19.202C91.5051 18.9753 91.8111 18.862 92.2078 18.862C92.6045 18.862 92.9048 18.9753 93.1088 19.202C93.3241 19.4173 93.4318 19.7233 93.4318 20.12V29.929C93.4318 30.303 93.3355 30.6033 93.1428 30.83C92.9501 31.0453 92.6895 31.153 92.3608 31.153C92.0435 31.153 91.7885 31.0907 91.5958 30.966C91.4145 30.8413 91.2161 30.643 91.0008 30.371L85.0508 22.772H85.4928V29.878C85.4928 30.286 85.3908 30.6033 85.1868 30.83C84.9828 31.0453 84.6768 31.153 84.2688 31.153Z" fill="#1CAFF6"/>
<rect x="1.5" y="1.5" width="130" height="47" rx="14.5" stroke="#E5E5E5" stroke-width="3" shape-rendering="crispEdges"/>
</g>
<defs>
<filter id="filter0_d_28_14397" x="0" y="0" width="133" height="54" filterUnits="userSpaceOnUse" color-interpolation-filters="sRGB">
<feFlood flood-opacity="0" result="BackgroundImageFix"/>
<feColorMatrix in="SourceAlpha" type="matrix" values="0 0 0 0 0 0 0 0 0 0 0 0 0 0 0 0 0 0 127 0" result="hardAlpha"/>
<feOffset dy="4"/>
<feComposite in2="hardAlpha" operator="out"/>
<feColorMatrix type="matrix" values="0 0 0 0 0.898039 0 0 0 0 0.898039 0 0 0 0 0.898039 0 0 0 1 0"/>
<feBlend mode="normal" in2="BackgroundImageFix" result="effect1_dropShadow_28_14397"/>
<feBlend mode="normal" in="SourceGraphic" in2="effect1_dropShadow_28_14397" result="shape"/>
</filter>
</defs>
</svg>
