<svg width="500" height="504" viewBox="0 0 500 504" fill="none" xmlns="http://www.w3.org/2000/svg">
<path fill-rule="evenodd" clip-rule="evenodd" d="M183.001 232.729H258.882V298.963H183.001V232.729Z" fill="#C6775C"/>
<path fill-rule="evenodd" clip-rule="evenodd" d="M143.747 276.555H288.166C324.286 276.555 353.57 306.075 353.57 342.49V468.636H68.2845C49.0183 468.636 33.4023 452.893 33.4023 433.472C33.4023 428.363 34.506 423.318 36.6362 418.683L84.4081 314.766C89.6538 303.355 98.0275 293.693 108.541 286.923C119.055 280.152 131.271 276.555 143.747 276.555Z" fill="#FFB100"/>
<path fill-rule="evenodd" clip-rule="evenodd" d="M160.54 276.555H265.403C265.403 305.819 241.928 329.541 212.972 329.541C184.013 329.541 160.54 305.819 160.54 276.555Z" fill="#C6775C"/>
<path fill-rule="evenodd" clip-rule="evenodd" d="M371.844 93.527C369.871 91.0122 368.619 88.0016 368.221 84.8208C367.824 81.64 368.296 78.4101 369.588 75.4806L374.733 63.7995L364.526 35.4606C363.427 32.4082 363.574 29.0407 364.935 26.0975C366.296 23.1543 368.761 20.876 371.787 19.7631C373.284 19.2124 374.873 18.9646 376.465 19.0339C378.057 19.1032 379.62 19.4883 381.064 20.1671C382.508 20.8459 383.805 21.8051 384.881 22.9898C385.957 24.1745 386.791 25.5615 387.334 27.0714L391.715 39.2384L405.548 7.83474C406.195 6.36691 407.123 5.04209 408.278 3.93609C409.434 2.83009 410.794 1.96461 412.282 1.38916C413.769 0.813711 415.355 0.539591 416.947 0.582482C418.54 0.625373 420.109 0.984432 421.564 1.63912C424.505 2.96276 426.806 5.40891 427.961 8.44078C429.116 11.4726 429.03 14.8426 427.723 17.811L414.714 47.3372L416.225 48.0157L439.224 17.1727C440.182 15.8887 441.382 14.8077 442.754 13.9916C444.127 13.1755 445.646 12.6404 447.224 12.4169C448.803 12.1934 450.409 12.2858 451.952 12.689C453.494 13.0921 454.943 13.7981 456.215 14.7664C458.787 16.7255 460.484 19.6335 460.933 22.8523C461.381 26.0711 460.545 29.3379 458.607 31.9359L438.953 58.291C439.082 58.36 439.207 58.429 439.33 58.5009L461.496 42.2255C462.785 41.2786 464.247 40.5975 465.798 40.2211C467.348 39.8447 468.958 39.7804 470.533 40.032C472.108 40.2836 473.619 40.846 474.979 41.6872C476.338 42.5283 477.519 43.6315 478.455 44.9337C480.348 47.5672 481.128 50.8501 480.623 54.0624C480.119 57.2746 478.371 60.154 475.763 62.0687L445.923 83.9762C445.636 84.1875 445.34 84.386 445.036 84.5714L435.922 105.257C434.561 108.347 432.346 110.977 429.541 112.83C426.736 114.684 423.46 115.683 420.106 115.708L366.043 238.424C365.113 240.537 363.778 242.444 362.115 244.035C360.452 245.627 358.495 246.873 356.354 247.701C354.213 248.53 351.932 248.924 349.639 248.863C347.347 248.801 345.09 248.285 342.996 247.342L326.416 239.882C322.197 237.983 318.898 234.475 317.242 230.127C315.586 225.779 315.709 220.946 317.584 216.689L371.844 93.527ZM192.907 413.267H218.644C223.221 413.267 227.467 415.682 229.837 419.633L247.127 448.454C248.326 450.455 248.977 452.74 249.012 455.077C249.047 457.414 248.465 459.719 247.326 461.755C246.188 463.791 244.533 465.485 242.531 466.664C240.529 467.843 238.252 468.464 235.934 468.464H192.907V413.267Z" fill="#C6775C"/>
<path fill-rule="evenodd" clip-rule="evenodd" d="M245.108 355.587L354.263 107.819C354.844 106.498 355.678 105.306 356.717 104.31C357.757 103.315 358.98 102.536 360.319 102.017C361.657 101.499 363.083 101.252 364.516 101.291C365.949 101.33 367.361 101.653 368.67 102.242L418.081 124.477C420.719 125.663 422.781 127.856 423.816 130.574C424.852 133.291 424.775 136.312 423.602 138.973L314.456 386.72C313.525 388.833 312.19 390.74 310.528 392.333C308.865 393.925 306.908 395.171 304.767 395.999C302.626 396.828 300.345 397.223 298.052 397.161C295.76 397.1 293.502 396.584 291.408 395.641L253.937 378.782C249.718 376.884 246.419 373.375 244.763 369.026C243.108 364.677 243.232 359.844 245.108 355.587Z" fill="#FFB100"/>
<path fill-rule="evenodd" clip-rule="evenodd" d="M214.478 36.2812C228.659 36.2812 241.811 37.6153 253.94 40.289C293.878 49.0951 321.097 86.4558 317.487 127.508L313.965 167.56C313.788 169.573 312.928 171.464 311.529 172.913C310.131 174.362 308.28 175.281 306.289 175.515L145.044 194.432C142.768 194.699 140.479 194.053 138.673 192.633C136.866 191.213 135.686 189.132 135.388 186.842L128.632 134.917C122.416 87.1199 155.809 43.2905 203.219 37.023C206.952 36.5292 210.713 36.2814 214.478 36.2812Z" fill="black"/>
<path d="M304.144 154.707H298.82C286.779 154.707 277.019 164.548 277.019 176.686V181.301C277.019 193.44 286.779 203.28 298.82 203.28H304.144C316.185 203.28 325.945 193.44 325.945 181.301V176.686C325.945 164.548 316.185 154.707 304.144 154.707Z" fill="#C6775C"/>
<path fill-rule="evenodd" clip-rule="evenodd" d="M151.8 66.5205L305.117 93.0768V199.271C305.117 242.065 270.905 276.861 228.457 277.241C186.494 277.614 152.173 243.62 151.803 201.312L151.8 200.636V66.5205Z" fill="#C6775C"/>
<path fill-rule="evenodd" clip-rule="evenodd" d="M305.117 136.324C297.167 134.128 289.921 129.887 284.087 124.018C278.253 118.148 274.032 110.851 271.837 102.841C259.786 116.897 244.537 127.801 227.394 134.62C210.252 141.439 191.726 143.971 173.402 141.999L151.8 139.67V66.5215L305.117 93.0779V136.324Z" fill="black"/>
<path d="M219.445 143.779H219.371C209.257 143.779 201.058 152.046 201.058 162.243V183.604C201.058 193.801 209.257 202.067 219.371 202.067H219.445C229.56 202.067 237.759 193.801 237.759 183.604V162.243C237.759 152.046 229.56 143.779 219.445 143.779Z" fill="white"/>
<path d="M231.964 166.104C231.964 161.236 228.05 157.289 223.221 157.289C218.392 157.289 214.478 161.236 214.478 166.104V179.74C214.478 184.608 218.392 188.555 223.221 188.555C228.05 188.555 231.964 184.608 231.964 179.74V166.104Z" fill="black"/>
<path d="M270.226 141.529H270.152C260.037 141.529 251.838 149.796 251.838 159.993V181.354C251.838 191.551 260.037 199.817 270.152 199.817H270.226C280.34 199.817 288.539 191.551 288.539 181.354V159.993C288.539 149.796 280.34 141.529 270.226 141.529Z" fill="white"/>
<path d="M282.745 163.854C282.745 158.986 278.83 155.039 274.001 155.039C269.172 155.039 265.258 158.986 265.258 163.854V177.49C265.258 182.358 269.172 186.305 274.001 186.305C278.83 186.305 282.745 182.358 282.745 177.49V163.854Z" fill="black"/>
<path fill-rule="evenodd" clip-rule="evenodd" d="M251.293 190.12C253.013 191.833 254.079 194.214 254.079 196.847C254.081 199.348 253.098 201.747 251.347 203.517C249.595 205.287 247.217 206.283 244.737 206.286C242.257 206.282 239.88 205.286 238.129 203.516C236.378 201.746 235.395 199.347 235.397 196.847C235.397 194.214 236.464 191.833 238.184 190.12V158.294C238.184 157.428 238.353 156.57 238.682 155.77C239.01 154.97 239.492 154.243 240.1 153.631C240.707 153.019 241.429 152.533 242.222 152.202C243.016 151.871 243.866 151.701 244.725 151.701H244.754C246.488 151.701 248.151 152.396 249.378 153.632C250.604 154.868 251.293 156.545 251.293 158.294V190.12Z" fill="#A55539"/>
<path d="M152.578 171.146H147.254C135.213 171.146 125.452 180.987 125.452 193.126V197.74C125.452 209.879 135.213 219.72 147.254 219.72H152.578C164.618 219.72 174.379 209.879 174.379 197.74V193.126C174.379 180.987 164.618 171.146 152.578 171.146Z" fill="#C6775C"/>
<path d="M138.36 69.8925C157.27 69.8925 172.6 54.4 172.6 35.289C172.6 16.1781 157.27 0.685547 138.36 0.685547C119.449 0.685547 104.119 16.1781 104.119 35.289C104.119 54.4 119.449 69.8925 138.36 69.8925Z" fill="black"/>
<path d="M223.222 206.282C212.322 199.175 201.455 195.558 190.615 195.432" stroke="#C6775C" stroke-width="6.116" stroke-linecap="round"/>
<path d="M230.082 234.774C223.84 234.331 218.638 232.721 214.478 229.938C210.314 227.158 206.758 222.995 203.798 217.455" stroke="white" stroke-width="6.371" stroke-linecap="round"/>
<path opacity="0.807" d="M365.449 291.035C366.125 291.036 366.793 291.178 367.412 291.452C368.031 291.726 368.587 292.126 369.045 292.628C369.503 293.129 369.853 293.72 370.073 294.364C370.294 295.009 370.379 295.692 370.325 296.371L368.044 325.564C367.987 326.219 367.688 326.828 367.208 327.272C366.727 327.716 366.099 327.962 365.447 327.962C364.795 327.962 364.167 327.716 363.687 327.272C363.206 326.828 362.908 326.219 362.851 325.564L360.569 296.371C360.515 295.692 360.602 295.008 360.822 294.364C361.043 293.72 361.393 293.129 361.852 292.627C362.31 292.126 362.866 291.726 363.485 291.452C364.104 291.178 364.773 291.036 365.449 291.035Z" fill="#743D00"/>
<path d="M320.111 318.118L320.225 318.075C339.104 306.615 363.6 312.785 374.95 331.864L386.936 351.934C398.285 371.018 392.183 395.786 373.302 407.258C373.296 407.261 373.29 407.265 373.284 407.269L373.162 407.298C354.283 418.755 329.784 412.582 318.437 393.506L306.452 373.436C295.099 354.355 301.204 329.584 320.083 318.112L320.103 318.101L320.111 318.118Z" fill="#FF4B4B"/>
<path d="M410.824 318.118L410.71 318.075C391.832 306.615 367.336 312.785 355.986 331.864L344 351.934C332.65 371.018 338.753 395.786 357.634 407.258L357.651 407.269L357.774 407.298C376.655 418.755 401.151 412.582 412.498 393.506L424.487 373.436C435.837 354.355 429.734 329.584 410.85 318.112C410.844 318.109 410.839 318.105 410.833 318.101L410.824 318.118Z" fill="#FF4B4B"/>
<path d="M336.081 361.056C344.056 361.056 350.522 354.525 350.522 346.469C350.522 338.412 344.056 331.881 336.081 331.881C328.105 331.881 321.64 338.412 321.64 346.469C321.64 354.525 328.105 361.056 336.081 361.056Z" fill="#FF7878"/>
<path d="M411.212 274.737C409.501 272.88 392.599 274.487 384.041 282.759C375.486 291.03 372.431 308.214 373.937 309.844C375.446 311.477 392.576 309.844 401.393 301.555C410.214 293.264 412.923 276.592 411.212 274.737Z" fill="#5ABB1A"/>
<path d="M402.035 377.588C406.555 377.588 410.219 373.887 410.219 369.322C410.219 364.757 406.555 361.057 402.035 361.057C397.515 361.057 393.851 364.757 393.851 369.322C393.851 373.887 397.515 377.588 402.035 377.588Z" fill="#EA2B2B"/>
<path d="M390.001 391.204C393.192 391.204 395.779 388.591 395.779 385.367C395.779 382.144 393.192 379.531 390.001 379.531C386.81 379.531 384.224 382.144 384.224 385.367C384.224 388.591 386.81 391.204 390.001 391.204Z" fill="#EA2B2B"/>
<path fill-rule="evenodd" clip-rule="evenodd" d="M445.84 422.507H434.833V457.076H445.84V469.007H284.753C268.749 469.007 255.779 455.926 255.779 439.791C255.779 423.657 268.749 410.578 284.753 410.578H445.843V422.509L445.84 422.507Z" fill="#A570FF"/>
<path d="M285.614 422.599H440.861L437.217 441.875L440.858 456.981H285.614C281.091 456.981 276.753 455.169 273.555 451.945C270.357 448.721 268.561 444.348 268.561 439.788C268.561 435.228 270.357 430.855 273.555 427.631C276.753 424.407 281.091 422.596 285.614 422.596V422.599Z" fill="#EBEBEB"/>
<path d="M481.498 467.857H18.2999C8.39972 467.857 0.374023 475.948 0.374023 485.928C0.374023 495.908 8.39972 503.999 18.2999 503.999H481.498C491.399 503.999 499.424 495.908 499.424 485.928C499.424 475.948 491.399 467.857 481.498 467.857Z" fill="#AF6C0F"/>
</svg>
