<svg width="151" height="54" viewBox="0 0 151 54" fill="none" xmlns="http://www.w3.org/2000/svg">
<g filter="url(#filter0_d_28_14398)">
<rect width="151" height="50" rx="16" fill="#1CAFF6" shape-rendering="crispEdges"/>
<path d="M43.5783 31.187C43.1023 31.187 42.615 31.1473 42.1163 31.068C41.629 31 41.1586 30.898 40.7053 30.762C40.2633 30.626 39.8666 30.456 39.5153 30.252C39.266 30.116 39.0903 29.9403 38.9883 29.725C38.8863 29.4983 38.8466 29.2717 38.8693 29.045C38.9033 28.8183 38.9883 28.62 39.1243 28.45C39.2716 28.2687 39.453 28.1553 39.6683 28.11C39.895 28.0533 40.1443 28.093 40.4163 28.229C40.881 28.4897 41.3853 28.6823 41.9293 28.807C42.4846 28.9317 43.0343 28.994 43.5783 28.994C44.4056 28.994 44.995 28.8693 45.3463 28.62C45.6976 28.3593 45.8733 28.0363 45.8733 27.651C45.8733 27.3223 45.7486 27.0617 45.4993 26.869C45.25 26.6763 44.8136 26.512 44.1903 26.376L42.2693 25.968C41.1813 25.7413 40.371 25.356 39.8383 24.812C39.317 24.2567 39.0563 23.5313 39.0563 22.636C39.0563 22.0693 39.1753 21.5537 39.4133 21.089C39.6513 20.6243 39.9856 20.222 40.4163 19.882C40.847 19.542 41.357 19.2813 41.9463 19.1C42.547 18.9187 43.2043 18.828 43.9183 18.828C44.553 18.828 45.1763 18.9073 45.7883 19.066C46.4003 19.2133 46.9386 19.4343 47.4033 19.729C47.63 19.865 47.783 20.0407 47.8623 20.256C47.953 20.46 47.9813 20.6697 47.9473 20.885C47.9246 21.089 47.8396 21.2703 47.6923 21.429C47.5563 21.5877 47.3806 21.6897 47.1653 21.735C46.95 21.7803 46.6893 21.7293 46.3833 21.582C46.0093 21.3893 45.6126 21.2477 45.1933 21.157C44.774 21.0663 44.3433 21.021 43.9013 21.021C43.4253 21.021 43.0173 21.0833 42.6773 21.208C42.3486 21.3327 42.0936 21.5083 41.9123 21.735C41.7423 21.9617 41.6573 22.2223 41.6573 22.517C41.6573 22.8457 41.7763 23.112 42.0143 23.316C42.2523 23.52 42.666 23.6843 43.2553 23.809L45.1763 24.217C46.287 24.455 47.1143 24.8403 47.6583 25.373C48.2023 25.8943 48.4743 26.5857 48.4743 27.447C48.4743 28.0137 48.361 28.5293 48.1343 28.994C47.9076 29.4473 47.579 29.8383 47.1483 30.167C46.7176 30.4957 46.202 30.7507 45.6013 30.932C45.0006 31.102 44.3263 31.187 43.5783 31.187ZM52.3109 31.153C51.8803 31.153 51.5516 31.034 51.3249 30.796C51.0983 30.558 50.9849 30.2237 50.9849 29.793V20.222C50.9849 19.7913 51.0983 19.457 51.3249 19.219C51.5516 18.981 51.8803 18.862 52.3109 18.862C52.7303 18.862 53.0533 18.981 53.2799 19.219C53.5066 19.457 53.6199 19.7913 53.6199 20.222V29.793C53.6199 30.2237 53.5066 30.558 53.2799 30.796C53.0646 31.034 52.7416 31.153 52.3109 31.153ZM62.7648 31.187C61.4161 31.187 60.2715 30.932 59.3308 30.422C58.4015 29.912 57.6931 29.198 57.2058 28.28C56.7185 27.362 56.4748 26.2853 56.4748 25.05C56.4748 24.098 56.6165 23.2423 56.8998 22.483C57.1945 21.7123 57.6138 21.0607 58.1578 20.528C58.7131 19.984 59.3818 19.5647 60.1638 19.27C60.9571 18.9753 61.8525 18.828 62.8498 18.828C63.4618 18.828 64.0738 18.896 64.6858 19.032C65.2978 19.168 65.8871 19.3947 66.4538 19.712C66.6918 19.848 66.8505 20.0237 66.9298 20.239C67.0205 20.443 67.0431 20.664 66.9978 20.902C66.9638 21.1287 66.8731 21.3327 66.7258 21.514C66.5898 21.684 66.4085 21.7973 66.1818 21.854C65.9665 21.8993 65.7171 21.854 65.4338 21.718C65.0598 21.514 64.6631 21.3667 64.2438 21.276C63.8245 21.174 63.3655 21.123 62.8668 21.123C62.0621 21.123 61.3878 21.276 60.8438 21.582C60.2998 21.8767 59.8918 22.3187 59.6198 22.908C59.3591 23.486 59.2288 24.2 59.2288 25.05C59.2288 26.3307 59.5348 27.2997 60.1468 27.957C60.7701 28.6143 61.6881 28.943 62.9008 28.943C63.3088 28.943 63.7281 28.9033 64.1588 28.824C64.5895 28.7447 65.0145 28.6313 65.4338 28.484L64.9408 29.555V26.291H63.4108C63.0708 26.291 62.8101 26.206 62.6288 26.036C62.4475 25.866 62.3568 25.6337 62.3568 25.339C62.3568 25.033 62.4475 24.8007 62.6288 24.642C62.8101 24.472 63.0708 24.387 63.4108 24.387H66.0798C66.4198 24.387 66.6748 24.4777 66.8448 24.659C67.0261 24.8403 67.1168 25.101 67.1168 25.441V29.385C67.1168 29.6797 67.0601 29.929 66.9468 30.133C66.8335 30.337 66.6408 30.4843 66.3688 30.575C65.8588 30.7563 65.2865 30.9037 64.6518 31.017C64.0171 31.1303 63.3881 31.187 62.7648 31.187ZM71.473 31.153C71.0763 31.153 70.7703 31.0453 70.555 30.83C70.351 30.6033 70.249 30.286 70.249 29.878V20.188C70.249 19.7573 70.351 19.4287 70.555 19.202C70.7703 18.9753 71.0537 18.862 71.405 18.862C71.711 18.862 71.9433 18.9243 72.102 19.049C72.272 19.1623 72.4647 19.355 72.68 19.627L78.647 27.226H78.188V20.12C78.188 19.7233 78.29 19.4173 78.494 19.202C78.7093 18.9753 79.0153 18.862 79.412 18.862C79.8087 18.862 80.109 18.9753 80.313 19.202C80.5283 19.4173 80.636 19.7233 80.636 20.12V29.929C80.636 30.303 80.5397 30.6033 80.347 30.83C80.1543 31.0453 79.8937 31.153 79.565 31.153C79.2477 31.153 78.9927 31.0907 78.8 30.966C78.6187 30.8413 78.4203 30.643 78.205 30.371L72.255 22.772H72.697V29.878C72.697 30.286 72.595 30.6033 72.391 30.83C72.187 31.0453 71.881 31.153 71.473 31.153ZM94.5308 31.187C93.6808 31.187 92.9272 31.0793 92.2698 30.864C91.6238 30.6373 91.0798 30.3087 90.6378 29.878C90.1958 29.4473 89.8615 28.909 89.6348 28.263C89.4195 27.6057 89.3118 26.8463 89.3118 25.985V20.205C89.3118 19.763 89.4252 19.4287 89.6518 19.202C89.8785 18.9753 90.2072 18.862 90.6378 18.862C91.0572 18.862 91.3802 18.9753 91.6068 19.202C91.8335 19.4287 91.9468 19.763 91.9468 20.205V26.002C91.9468 26.9767 92.1678 27.7133 92.6098 28.212C93.0518 28.6993 93.6922 28.943 94.5308 28.943C95.3695 28.943 96.0042 28.6993 96.4348 28.212C96.8768 27.7133 97.0978 26.9767 97.0978 26.002V20.205C97.0978 19.763 97.2112 19.4287 97.4378 19.202C97.6645 18.9753 97.9875 18.862 98.4068 18.862C98.8262 18.862 99.1435 18.9753 99.3588 19.202C99.5855 19.4287 99.6988 19.763 99.6988 20.205V25.985C99.6988 27.1297 99.5005 28.093 99.1038 28.875C98.7185 29.6457 98.1405 30.2237 97.3698 30.609C96.6105 30.9943 95.6642 31.187 94.5308 31.187ZM104.157 31.153C103.726 31.153 103.397 31.034 103.171 30.796C102.944 30.558 102.831 30.2237 102.831 29.793V20.358C102.831 19.916 102.944 19.5817 103.171 19.355C103.409 19.1283 103.743 19.015 104.174 19.015H108.305C109.642 19.015 110.673 19.355 111.399 20.035C112.124 20.7037 112.487 21.6387 112.487 22.84C112.487 24.0413 112.124 24.982 111.399 25.662C110.673 26.342 109.642 26.682 108.305 26.682H105.466V29.793C105.466 30.2237 105.352 30.558 105.126 30.796C104.91 31.034 104.587 31.153 104.157 31.153ZM105.466 24.642H107.863C108.543 24.642 109.058 24.489 109.41 24.183C109.772 23.877 109.954 23.4293 109.954 22.84C109.954 22.2507 109.772 21.8087 109.41 21.514C109.058 21.2193 108.543 21.072 107.863 21.072H105.466V24.642Z" fill="#FEFFFE"/>
</g>
<defs>
<filter id="filter0_d_28_14398" x="0" y="0" width="151" height="54" filterUnits="userSpaceOnUse" color-interpolation-filters="sRGB">
<feFlood flood-opacity="0" result="BackgroundImageFix"/>
<feColorMatrix in="SourceAlpha" type="matrix" values="0 0 0 0 0 0 0 0 0 0 0 0 0 0 0 0 0 0 127 0" result="hardAlpha"/>
<feOffset dy="4"/>
<feComposite in2="hardAlpha" operator="out"/>
<feColorMatrix type="matrix" values="0 0 0 0 0.0980392 0 0 0 0 0.603922 0 0 0 0 0.839216 0 0 0 1 0"/>
<feBlend mode="normal" in2="BackgroundImageFix" result="effect1_dropShadow_28_14398"/>
<feBlend mode="normal" in="SourceGraphic" in2="effect1_dropShadow_28_14398" result="shape"/>
</filter>
</defs>
</svg>
