<svg width="543" height="438" viewBox="0 0 543 438" fill="none" xmlns="http://www.w3.org/2000/svg">
<path d="M255.139 246.96L198.493 238.625L141.692 247.115C118.54 251.282 101.715 271.502 101.715 295.117V394.364C101.715 407.638 112.52 418.443 125.794 418.443H270.729C284.003 418.443 294.807 407.638 294.807 394.364V294.81C294.807 271.348 278.137 251.282 255.139 246.96Z" fill="#6F4EA1"/>
<path d="M164.536 254.059V288.634C164.536 295.271 171.945 299.284 177.501 295.734L193.708 285.238C195.868 283.848 198.493 283.848 200.654 285.238L217.169 295.734C222.726 299.284 230.135 295.271 230.135 288.634V254.059C230.135 249.892 226.739 246.65 222.725 246.65H172.099C167.932 246.65 164.536 250.046 164.536 254.06V254.059Z" fill="#9069CD"/>
<path d="M198.184 309.779C201.679 309.779 204.512 306.946 204.512 303.451C204.512 299.956 201.679 297.123 198.184 297.123C194.689 297.123 191.856 299.956 191.856 303.451C191.856 306.946 194.689 309.779 198.184 309.779Z" fill="#9069CD"/>
<path d="M198.184 345.896C201.679 345.896 204.512 343.063 204.512 339.568C204.512 336.073 201.679 333.24 198.184 333.24C194.689 333.24 191.856 336.073 191.856 339.568C191.856 343.063 194.689 345.896 198.184 345.896Z" fill="#9069CD"/>
<path d="M198.184 381.861C201.679 381.861 204.512 379.028 204.512 375.533C204.512 372.038 201.679 369.205 198.184 369.205C194.689 369.205 191.856 372.038 191.856 375.533C191.856 379.028 194.689 381.861 198.184 381.861Z" fill="#9069CD"/>
<path d="M204.514 277.368L219.331 260.852C221.492 258.537 222.572 255.45 222.572 252.363V196.797H171.792V252.363C171.792 255.45 173.026 258.537 175.032 260.853L189.85 277.368C193.863 281.535 200.656 281.535 204.514 277.368Z" fill="#E58D80"/>
<path d="M235.075 116.534C231.833 114.99 230.445 111.286 231.988 108.044L249.121 71.0003C250.664 67.7603 254.369 66.3703 257.61 67.9133C260.851 69.4573 262.24 73.1613 260.697 76.4033L243.563 113.446C242.173 116.533 238.315 117.922 235.073 116.533L235.075 116.534Z" fill="#71513F"/>
<path d="M230.288 110.36C228.281 107.427 228.898 103.414 231.831 101.407L265.171 77.7922C268.104 75.7852 272.117 76.4022 274.123 79.3352C276.13 82.2682 275.513 86.2812 272.58 88.2882L239.24 111.903C236.462 113.91 232.449 113.293 230.288 110.36Z" fill="#71513F"/>
<path d="M133.048 162.221C142.766 162.221 150.644 154.343 150.644 144.625C150.644 134.907 142.766 127.029 133.048 127.029C123.33 127.029 115.452 134.907 115.452 144.625C115.452 154.343 123.33 162.221 133.048 162.221Z" fill="#71513F"/>
<path d="M250.663 100.636C250.663 139.995 218.867 163.302 179.508 163.302C140.148 163.302 108.352 139.995 108.352 100.636C108.352 61.2765 140.149 29.4805 179.508 29.4805C218.867 29.4805 250.663 61.2765 250.663 100.636Z" fill="#71513F"/>
<path d="M196.641 281.843C168.703 281.843 146.168 259.153 146.168 231.37V172.254C146.168 159.134 156.818 148.484 169.938 148.484H223.343C236.463 148.484 247.113 159.134 247.113 172.254V231.37C247.267 259.153 224.578 281.843 196.641 281.843Z" fill="#FFB5A1"/>
<path d="M132.74 208.681C144.589 208.681 154.195 199.076 154.195 187.226C154.195 175.377 144.589 165.771 132.74 165.771C120.891 165.771 111.285 175.377 111.285 187.226C111.285 199.076 120.891 208.681 132.74 208.681Z" fill="#FF9D8A"/>
<path d="M260.232 208.681C272.082 208.681 281.687 199.076 281.687 187.226C281.687 175.377 272.082 165.771 260.232 165.771C248.383 165.771 238.777 175.377 238.777 187.226C238.777 199.076 248.383 208.681 260.232 208.681Z" fill="#FF9D8A"/>
<path d="M229.672 235.23H162.838C142.155 235.23 125.331 218.406 125.331 197.723V137.526C125.331 98.3209 157.127 97.0859 196.332 97.0859C235.537 97.0859 267.333 118.541 267.333 157.592V197.569C267.333 218.406 250.509 235.229 229.672 235.229V235.23Z" fill="#FFB5A1"/>
<path d="M198.339 223.962H193.554C193.006 223.965 192.463 223.859 191.957 223.65C191.45 223.441 190.99 223.135 190.602 222.747C190.215 222.36 189.908 221.9 189.699 221.393C189.49 220.886 189.384 220.343 189.386 219.795V188.153C189.384 187.605 189.49 187.062 189.699 186.556C189.908 186.049 190.215 185.589 190.602 185.201C190.99 184.814 191.45 184.507 191.957 184.299C192.463 184.09 193.006 183.984 193.554 183.986H198.339C198.887 183.984 199.43 184.09 199.937 184.299C200.443 184.508 200.903 184.814 201.291 185.202C201.678 185.589 201.985 186.049 202.194 186.556C202.402 187.063 202.509 187.606 202.506 188.153V219.795C202.509 220.343 202.402 220.886 202.194 221.393C201.985 221.899 201.678 222.36 201.291 222.747C200.903 223.134 200.443 223.441 199.937 223.65C199.43 223.858 198.887 223.965 198.339 223.962Z" fill="#FF9D8A"/>
<path d="M203.741 216.555H188.769C186.762 216.555 185.064 218.252 185.064 220.259C185.064 222.265 186.762 223.963 188.769 223.963H203.741C205.747 223.963 207.445 222.265 207.445 220.259C207.445 218.252 205.747 216.555 203.741 216.555Z" fill="#FF9D8A"/>
<path d="M269.339 181.669C271.809 166.543 275.512 147.559 275.512 123.479H254.521L265.325 181.669C265.788 183.83 269.03 183.83 269.339 181.669Z" fill="#71513F"/>
<path d="M234.919 156.511C230.289 154.968 223.189 153.424 213.465 153.424M156.818 156.511C161.448 154.968 168.548 153.424 178.273 153.424" stroke="#856959" stroke-width="10.472" stroke-linecap="round"/>
<path d="M250.2 93.9985C247.576 78.4085 238.47 63.8995 225.504 54.9485C212.539 45.8405 195.869 42.2905 180.28 45.3785C160.677 49.0815 144.162 62.6655 132.894 79.1795C132.585 82.8835 131.968 86.5885 131.196 90.2925C129.344 99.0905 126.72 107.58 124.251 116.224C122.553 122.089 120.855 129.961 117.922 136.907C124.559 142.309 131.659 144.007 139.068 144.007C169.475 144.007 189.232 126.72 214.854 115.761C223.498 112.057 233.994 109.278 242.02 114.371C242.02 114.371 241.093 148.791 265.326 158.979L275.668 133.203C277.983 80.5685 250.2 93.9985 250.2 93.9985Z" fill="#71513F"/>
<path opacity="0.16" d="M224.269 209.145C237.226 209.145 247.73 198.641 247.73 185.684C247.73 172.727 237.226 162.223 224.269 162.223C211.312 162.223 200.808 172.727 200.808 185.684C200.808 198.641 211.312 209.145 224.269 209.145Z" fill="white"/>
<path opacity="0.16" d="M167.777 209.145C180.734 209.145 191.238 198.641 191.238 185.684C191.238 172.727 180.734 162.223 167.777 162.223C154.82 162.223 144.316 172.727 144.316 185.684C144.316 198.641 154.82 209.145 167.777 209.145Z" fill="white"/>
<path d="M174.569 208.527C173.696 208.533 172.83 208.366 172.022 208.035C171.214 207.703 170.479 207.215 169.862 206.597C169.244 205.98 168.755 205.245 168.424 204.437C168.093 203.629 167.926 202.763 167.932 201.89V189.08C167.926 188.206 168.093 187.34 168.424 186.532C168.755 185.723 169.244 184.989 169.861 184.371C170.479 183.754 171.213 183.265 172.022 182.934C172.83 182.602 173.696 182.435 174.569 182.442C175.443 182.435 176.309 182.602 177.117 182.934C177.925 183.265 178.659 183.753 179.277 184.371C179.895 184.989 180.383 185.723 180.714 186.531C181.046 187.339 181.213 188.205 181.206 189.079V201.89C181.051 205.595 178.119 208.527 174.569 208.527ZM217.169 208.527C216.296 208.533 215.43 208.366 214.622 208.035C213.814 207.703 213.079 207.215 212.462 206.597C211.844 205.98 211.355 205.245 211.024 204.437C210.693 203.629 210.526 202.763 210.532 201.89V189.08C210.526 188.206 210.693 187.34 211.024 186.532C211.355 185.723 211.844 184.989 212.461 184.371C213.079 183.754 213.813 183.265 214.622 182.934C215.43 182.602 216.296 182.435 217.169 182.442C218.043 182.435 218.909 182.602 219.717 182.934C220.525 183.265 221.259 183.753 221.877 184.371C222.495 184.989 222.983 185.723 223.314 186.531C223.646 187.339 223.813 188.205 223.806 189.079V201.89C223.652 205.595 220.719 208.527 217.169 208.527Z" fill="#E58D80"/>
<path d="M166.851 210.995C179.637 210.995 190.003 200.63 190.003 187.843C190.003 175.057 179.637 164.691 166.851 164.691C154.064 164.691 143.699 175.057 143.699 187.843C143.699 200.63 154.064 210.995 166.851 210.995Z" stroke="white" stroke-width="4.544" stroke-linecap="round"/>
<path d="M223.498 210.995C236.285 210.995 246.65 200.63 246.65 187.843C246.65 175.057 236.285 164.691 223.498 164.691C210.712 164.691 200.346 175.057 200.346 187.843C200.346 200.63 210.712 210.995 223.498 210.995Z" stroke="white" stroke-width="4.544" stroke-linecap="round"/>
<path d="M189.541 181.824H198.338" stroke="white" stroke-width="3.89" stroke-linecap="round"/>
<path d="M247.267 183.367L272.117 167.006M122.861 167.006L143.081 183.366" stroke="white" stroke-width="4.544" stroke-linecap="round"/>
<path d="M176.575 233.686C180.743 237.698 188.151 242.175 199.573 241.249C210.841 240.322 216.706 234.92 219.793 230.289" stroke="#E99589" stroke-width="6.265" stroke-linecap="round"/>
<path d="M189.849 418.596H93.38C74.704 418.596 61.584 400.229 67.45 382.478L82.73 337.408L120.855 350.374L111.439 378.311H157.127C175.186 378.311 189.849 392.974 189.849 411.033V418.596Z" fill="#FFB5A1"/>
<path d="M479.1 343.736H364.11C361.022 343.736 358.398 346.206 358.398 349.447V373.217C358.398 376.304 360.868 378.928 364.109 378.928H479.1C482.187 378.928 484.811 376.458 484.811 373.218V349.448C484.811 346.36 482.341 343.736 479.101 343.736H479.1Z" fill="#00A0F5"/>
<path d="M374.605 343.736H380.933V378.928H374.605V343.736ZM393.745 343.736H400.073V378.928H393.745V343.736Z" fill="#7CCEFA"/>
<path d="M359.943 343.582H433.259V311.322L359.943 311.323C356.702 311.323 354.232 313.947 354.232 317.033V337.871C354.232 340.958 356.702 343.582 359.943 343.582Z" fill="#FAA519"/>
<path d="M412.731 337.872V317.035C412.731 313.794 415.355 311.324 418.441 311.324H406.248C403.007 311.324 400.537 313.948 400.537 317.034V337.872C400.537 341.113 403.161 343.583 406.248 343.583H418.442C415.355 343.583 412.731 340.958 412.731 337.872Z" fill="#FBC01A"/>
<path d="M432.797 315.645H497.47V339.569H432.797V315.645Z" fill="#E3E4E5"/>
<path d="M432.797 324.135H497.47V331.081H432.797V324.135Z" fill="white"/>
<path d="M499.321 343.583H433.259C430.481 343.583 428.166 341.268 428.166 338.49V316.417C428.166 313.639 430.481 311.324 433.259 311.324H499.321C500.401 311.324 501.173 312.25 501.173 313.176V315.337C501.173 316.417 500.247 317.189 499.321 317.189H434.185V337.563H499.321C500.401 337.563 501.173 338.49 501.173 339.416V341.576C501.173 342.657 500.401 343.583 499.321 343.583Z" fill="#FBC01A"/>
<path d="M486.511 417.827H411.806V378.932H486.511C489.068 378.921 491.601 379.417 493.966 380.39C496.33 381.364 498.478 382.796 500.286 384.604C502.094 386.412 503.527 388.56 504.5 390.925C505.474 393.289 505.969 395.823 505.959 398.38C505.959 409.185 497.161 417.827 486.511 417.827Z" fill="#FF6464"/>
<path d="M475.397 378.931H469.068C471.625 378.92 474.159 379.416 476.523 380.389C478.888 381.363 481.036 382.795 482.844 384.603C484.652 386.411 486.084 388.559 487.057 390.923C488.031 393.287 488.527 395.821 488.516 398.378C488.527 400.935 488.031 403.469 487.058 405.833C486.084 408.197 484.652 410.346 482.844 412.154C481.036 413.962 478.888 415.394 476.523 416.367C474.159 417.341 471.625 417.837 469.068 417.826H475.397C477.954 417.837 480.488 417.341 482.852 416.367C485.217 415.394 487.365 413.962 489.173 412.154C490.981 410.346 492.413 408.197 493.387 405.833C494.36 403.469 494.856 400.935 494.845 398.378C494.856 395.821 494.36 393.287 493.387 390.923C492.413 388.558 490.981 386.41 489.173 384.602C487.365 382.794 485.217 381.362 482.852 380.388C480.488 379.415 477.954 378.919 475.397 378.93V378.931Z" fill="#FF9494"/>
<path d="M460.888 378.931H454.56C457.117 378.92 459.65 379.416 462.015 380.389C464.379 381.362 466.527 382.795 468.336 384.602C470.144 386.41 471.576 388.559 472.55 390.923C473.523 393.287 474.019 395.821 474.009 398.378C474.019 400.935 473.524 403.469 472.55 405.833C471.576 408.198 470.144 410.346 468.336 412.154C466.528 413.962 464.379 415.394 462.015 416.368C459.65 417.341 457.117 417.837 454.56 417.826H460.889C463.446 417.837 465.979 417.341 468.344 416.367C470.708 415.394 472.856 413.962 474.664 412.154C476.472 410.346 477.904 408.197 478.878 405.833C479.852 403.469 480.347 400.935 480.337 398.378C480.347 395.821 479.852 393.287 478.878 390.923C477.904 388.558 476.472 386.41 474.664 384.602C472.856 382.794 470.708 381.362 468.344 380.388C465.979 379.415 463.446 378.919 460.889 378.93L460.888 378.931Z" fill="#FF9494"/>
<path d="M414.893 411.188C416.576 411.192 418.244 410.864 419.8 410.221C421.356 409.579 422.769 408.636 423.96 407.445C425.15 406.255 426.093 404.841 426.736 403.285C427.378 401.729 427.707 400.062 427.703 398.378C427.703 391.278 421.993 385.566 414.893 385.566H347.133V411.034H414.893V411.188Z" fill="white"/>
<path d="M414.893 411.189C422.301 411.189 428.321 404.707 427.549 397.144C426.932 390.507 420.912 385.722 414.275 385.722H343.583C342.348 385.722 341.268 384.642 341.268 383.406V381.246C341.268 380.011 342.348 378.93 343.583 378.93H414.121C424.462 378.93 433.569 386.648 434.341 397.144C435.112 408.565 426.006 418.135 414.893 418.135H343.583C342.348 418.135 341.268 417.055 341.268 415.82V413.505C341.268 412.27 342.348 411.189 343.583 411.189H414.893Z" fill="#EF4849"/>
<path d="M427.703 398.533C427.703 399.922 427.393 401.311 427.085 402.7H347.287V394.52H427.087C427.395 395.6 427.703 396.99 427.703 398.533Z" fill="#EDEBF0"/>
<path d="M518.615 437.583H10.031C8.71298 437.585 7.40744 437.327 6.18929 436.824C4.97113 436.32 3.86434 435.582 2.93239 434.65C2.00044 433.717 1.26167 432.611 0.758466 431.392C0.255261 430.174 -0.00248315 428.869 2.00159e-05 427.551C-0.00261579 426.232 0.255096 424.926 0.758368 423.708C1.26164 422.49 2.00056 421.382 2.93274 420.45C3.86492 419.518 4.97199 418.779 6.19044 418.276C7.40889 417.773 8.71473 417.515 10.033 417.518H518.616C519.934 417.515 521.24 417.773 522.458 418.276C523.677 418.78 524.784 419.519 525.716 420.451C526.648 421.383 527.386 422.49 527.89 423.708C528.393 424.927 528.651 426.232 528.648 427.551C528.651 428.869 528.393 430.174 527.889 431.393C527.386 432.611 526.647 433.718 525.715 434.65C524.783 435.582 523.676 436.321 522.458 436.824C521.24 437.327 519.933 437.585 518.615 437.583Z" fill="#FAA519"/>
<path d="M105.265 276.596L104.802 277.986L84.4282 331.854L114.372 341.886L122.862 276.596H105.265Z" fill="#6F4EA1"/>
<path d="M120.237 352.536L81.8042 339.881L85.3542 329.385L123.787 342.195L120.237 352.536Z" fill="#9069CD"/>
<path d="M206.982 418.596H303.297C321.973 418.596 335.093 400.229 329.227 382.478L313.947 337.408L275.822 350.374L285.238 378.311H239.55C221.491 378.311 206.828 392.974 206.828 411.033V418.596H206.982Z" fill="#FFB5A1"/>
<path d="M291.413 276.596L291.876 277.986L312.404 331.854L282.306 341.886L273.971 276.596H291.413Z" fill="#6F4EA1"/>
<path d="M276.595 352.536L315.028 339.881L311.478 329.385L273.045 342.195L276.595 352.536Z" fill="#9069CD"/>
<path d="M295.733 392.512C282.305 389.734 241.711 381.553 224.423 381.553C208.989 381.553 197.721 389.116 197.721 389.116C197.721 389.116 188.769 381.553 173.488 381.553C156.201 381.553 115.607 389.733 102.178 392.513C99.5541 392.975 97.7021 395.29 97.7021 397.914V410.417L190.467 413.504L198.956 408.256L207.446 413.504L300.209 410.417V397.914C300.055 395.444 298.203 393.129 295.733 392.512Z" fill="#E8E6EC"/>
<path d="M295.733 392.512C282.305 389.734 241.711 381.553 224.423 381.553C208.989 381.553 197.721 389.116 197.721 389.116C197.721 389.116 188.769 381.553 173.488 381.553C156.201 381.553 115.607 389.733 102.178 392.513C99.5541 392.975 97.7021 395.29 97.7021 397.914V410.417L190.467 413.504L198.956 408.256L207.446 413.504L300.21 410.417V397.914C300.055 395.444 298.203 393.129 295.733 392.512Z" fill="white"/>
<path d="M299.901 401.002C286.472 398.224 240.785 389.889 223.498 389.889C208.063 389.889 199.11 396.372 198.03 397.144C196.795 396.526 187.843 389.889 172.562 389.889C155.275 389.889 109.279 398.224 95.8501 401.002" stroke="#EDEBF0" stroke-width="2.849"/>
<path d="M300.827 407.175C287.398 404.397 240.167 397.605 222.88 397.605C207.445 397.605 198.493 402.545 197.412 403.162C196.178 402.545 187.225 397.606 171.945 397.606C154.657 397.606 108.661 404.397 95.2329 407.176" stroke="#EDEBF0" stroke-width="2.849"/>
<path d="M95.8501 413.504H190.312C190.312 413.504 192.01 408.41 197.258 408.41C202.66 408.41 204.049 413.504 204.049 413.504H301.753" stroke="#00A0F5" stroke-width="9.524" stroke-linecap="round" stroke-linejoin="round"/>
<path d="M366.426 214.701C381.77 214.701 394.209 202.262 394.209 186.918C394.209 171.574 381.77 159.135 366.426 159.135C351.081 159.135 338.643 171.574 338.643 186.918C338.643 202.262 351.081 214.701 366.426 214.701Z" fill="#DFE0EC"/>
<path d="M317.034 230.907C326.155 230.907 333.549 223.513 333.549 214.392C333.549 205.271 326.155 197.877 317.034 197.877C307.913 197.877 300.519 205.271 300.519 214.392C300.519 223.513 307.913 230.907 317.034 230.907Z" fill="#DFE0EC"/>
<path d="M435.574 214.546C494.819 214.546 542.847 166.518 542.847 107.273C542.847 48.0278 494.819 0 435.574 0C376.329 0 328.301 48.0278 328.301 107.273C328.301 166.518 376.329 214.546 435.574 214.546Z" fill="#DFE0EC"/>
<path d="M389.387 83.72C387.04 83.72 385.52 84.3333 384.827 85.56C384.133 86.7867 383.92 88.68 384.187 91.24L385.227 98.44C385.547 100.787 385.147 102.893 384.027 104.76C382.907 106.573 381.307 107.853 379.227 108.6C381.307 109.347 382.907 110.653 384.027 112.52C385.147 114.333 385.547 116.413 385.227 118.76L384.267 125.96C383.84 128.627 384 130.547 384.747 131.72C385.547 132.893 387.093 133.48 389.387 133.48C390.453 133.48 391.573 133.32 392.747 133C393.973 132.733 394.88 132.6 395.467 132.6C397.173 132.6 398.027 133.56 398.027 135.48V139.24C398.027 140.467 397.84 141.4 397.467 142.04C397.147 142.68 396.373 143.24 395.147 143.72C392.693 144.733 389.813 145.24 386.507 145.24C381.973 145.24 378.267 144.013 375.387 141.56C372.56 139.107 371.147 135.267 371.147 130.04C371.147 128.493 371.253 127 371.467 125.56L372.427 118.84C372.693 117.347 372.587 116.28 372.107 115.64C371.627 115 370.667 114.68 369.227 114.68H369.867C368.32 114.68 367.227 114.36 366.587 113.72C365.947 113.027 365.627 111.933 365.627 110.44V106.76C365.627 105.213 365.947 104.12 366.587 103.48C367.28 102.84 368.373 102.52 369.867 102.52H369.227C370.72 102.52 371.68 102.2 372.107 101.56C372.587 100.867 372.693 99.8 372.427 98.36L371.467 91.64C371.253 90.2 371.147 88.7333 371.147 87.24C371.147 81.96 372.72 78.1467 375.867 75.8C379.067 73.4 383.173 72.2 388.187 72.2C390.587 72.2 392.907 72.6267 395.147 73.48C396.32 73.9067 397.093 74.4667 397.467 75.16C397.84 75.8 398.027 76.7333 398.027 77.96V81.72C398.027 83.64 397.173 84.6 395.467 84.6C394.88 84.6 394 84.4667 392.827 84.2C391.653 83.88 390.507 83.72 389.387 83.72Z" fill="#9069CD"/>
<path d="M438.547 185.2C437.053 185.2 436.173 184.96 435.907 184.48C435.64 184 435.987 183.147 436.947 181.92C441.16 176.48 444.333 171.36 446.467 166.56C448.6 161.707 449.667 156.053 449.667 149.6C449.667 143.147 448.6 137.52 446.467 132.72C444.333 127.867 441.16 122.72 436.947 117.28C435.987 116.16 435.613 115.333 435.827 114.8C436.093 114.267 437 114 438.547 114H444.947C447.773 114 450.093 115.093 451.907 117.28C455.48 121.813 458.253 126.56 460.227 131.52C462.253 136.48 463.267 142.507 463.267 149.6C463.267 156.693 462.253 162.72 460.227 167.68C458.253 172.64 455.48 177.387 451.907 181.92C450.093 184.107 447.773 185.2 444.947 185.2H438.547Z" fill="#00A0F5"/>
<path fill-rule="evenodd" clip-rule="evenodd" d="M420.496 86.496C416.526 86.496 413.391 83.755 413.391 79.328C413.391 75.954 414.227 72.792 417.988 68.575L423.63 62.145C426.764 58.667 427.81 56.242 427.81 53.607C427.81 49.496 425.093 46.65 420.914 46.65C417.048 46.65 414.958 48.652 413.6 51.815C412.137 54.977 409.63 56.453 406.914 56.453C402.944 56.453 400.227 53.923 400.227 50.023C400.227 49.179 400.436 48.125 400.749 47.177C403.152 39.587 410.57 34 421.227 34C433.66 34 442.227 42.222 442.227 53.08C442.227 58.456 440.555 62.567 436.585 66.889L430.108 74.162C428.331 76.165 427.705 77.641 427.705 79.328C427.705 83.755 424.361 86.496 420.495 86.496H420.496ZM411.928 99.356C411.928 94.613 415.794 90.712 420.496 90.712C425.197 90.712 429.063 94.612 429.063 99.356C429.063 104.1 425.197 108 420.496 108C415.794 108 411.928 104.1 411.928 99.356Z" fill="#00A0F5"/>
<path fill-rule="evenodd" clip-rule="evenodd" d="M470.562 97.235C472.845 97.9329 474.757 99.5091 475.878 101.617C476.998 103.724 477.236 106.191 476.538 108.473C475.84 110.756 474.264 112.668 472.156 113.789C470.049 114.909 467.582 115.147 465.299 114.449C463.017 113.751 461.105 112.175 459.984 110.067C458.864 107.96 458.626 105.493 459.324 103.21C460.022 100.928 461.598 99.0158 463.706 97.8952C465.813 96.7746 468.28 96.5371 470.562 97.235ZM492.228 48.438C492.898 48.6428 493.517 48.986 494.046 49.4453C494.574 49.9045 495 50.4697 495.296 51.1041C495.593 51.7386 495.752 52.4281 495.765 53.1282C495.778 53.8283 495.643 54.5232 495.37 55.168L480.476 90.352C479.994 91.4905 479.108 92.41 477.987 92.933C476.867 93.456 475.593 93.5454 474.41 93.184L469.64 91.726C468.458 91.3644 467.452 90.5777 466.816 89.5176C466.179 88.4576 465.958 87.1994 466.195 85.986L473.519 48.489C473.654 47.8016 473.931 47.15 474.333 46.5766C474.735 46.0031 475.253 45.5205 475.854 45.1601C476.454 44.7997 477.124 44.5694 477.819 44.4843C478.514 44.3992 479.22 44.4611 479.889 44.666L492.229 48.439L492.228 48.438Z" fill="white"/>
<path fill-rule="evenodd" clip-rule="evenodd" d="M491.227 127C496.75 127 501.227 131.477 501.227 137C501.227 142.523 496.75 147 491.227 147C485.704 147 481.227 142.523 481.227 137C481.227 131.477 485.704 127 491.227 127Z" stroke="#9069CD" stroke-width="8"/>
<path fill-rule="evenodd" clip-rule="evenodd" d="M419.325 153.575C420.65 153.575 421.953 153.907 423.116 154.542C424.278 155.177 425.263 156.094 425.978 157.209C426.693 158.324 427.117 159.601 427.21 160.922C427.303 162.244 427.062 163.567 426.509 164.771C426.301 165.261 426.029 165.723 425.701 166.144L425.591 166.29C425.059 166.982 424.417 167.581 423.69 168.064L417.353 173.695C417.182 173.847 416.97 173.944 416.743 173.974C416.516 174.004 416.286 173.966 416.081 173.864C415.876 173.762 415.707 173.602 415.594 173.403C415.481 173.204 415.43 172.976 415.447 172.748L415.767 168.63C414.14 167.867 412.821 166.572 412.029 164.958C411.236 163.345 411.018 161.509 411.409 159.755C411.801 158.001 412.779 156.432 414.182 155.309C415.585 154.185 417.33 153.574 419.127 153.575H419.325ZM419.325 131C421.421 131 423.431 131.832 424.912 133.314C426.394 134.796 427.227 136.806 427.227 138.902C427.227 140.997 426.394 143.007 424.912 144.489C423.431 145.971 421.421 146.803 419.325 146.803H419.127C417.032 146.803 415.022 145.971 413.54 144.489C412.058 143.007 411.226 140.997 411.226 138.902C411.226 136.806 412.058 134.796 413.54 133.314C415.022 131.832 417.032 131 419.127 131H419.325Z" fill="white"/>
<path d="M164.999 350.22L154.349 352.998C152.022 353.615 149.575 353.615 147.249 352.998L137.525 350.22C135.981 349.757 134.901 348.368 134.901 346.824V327.685C134.901 325.678 136.444 324.135 138.451 324.135H164.073C166.079 324.135 167.623 325.678 167.623 327.685V346.825C167.623 348.522 166.543 349.911 164.999 350.22Z" fill="#9069CD"/>
<path d="M153.731 324.135H144.933V306.539C144.933 304.069 146.94 302.217 149.255 302.217C151.725 302.217 153.577 304.224 153.577 306.539V324.135H153.731Z" fill="#1F2B37"/>
<path d="M146.631 333.86C146.182 333.856 145.752 333.676 145.435 333.358C145.117 333.04 144.937 332.611 144.933 332.162V321.975H148.329V332.162C148.329 333.088 147.557 333.86 146.631 333.86Z" fill="#1F2B37"/>
</svg>
