<svg width="715" height="382" viewBox="0 0 715 382" fill="none" xmlns="http://www.w3.org/2000/svg">
<path fill-rule="evenodd" clip-rule="evenodd" d="M375.411 200.052C369.795 202.432 367.175 208.898 369.558 214.499L392.453 268.31C394.835 273.908 401.316 276.52 406.93 274.145L406.934 274.144C412.55 271.765 415.17 265.299 412.787 259.698L389.892 205.887C387.511 200.289 381.029 197.676 375.415 200.051L375.411 200.052Z" fill="#C6775C"/>
<path fill-rule="evenodd" clip-rule="evenodd" d="M393.791 253.186L385.96 260.732C384.618 262.027 383.846 263.801 383.814 265.663C383.781 267.525 384.491 269.324 385.786 270.666L393.349 278.478C396.048 281.273 400.507 281.351 403.306 278.658C403.308 278.656 403.308 278.656 403.306 278.653L411.138 271.107C412.48 269.811 413.252 268.038 413.284 266.176C413.317 264.314 412.608 262.514 411.312 261.173L403.749 253.36C401.05 250.565 396.59 250.487 393.792 253.181C393.791 253.182 393.79 253.182 393.791 253.186Z" fill="#C6775C"/>
<path fill-rule="evenodd" clip-rule="evenodd" d="M363.24 184.094L360.977 185.294C353.645 189.192 350.86 198.274 354.753 205.594L378.952 251.002C382.846 258.324 391.958 261.104 399.297 257.216C399.299 257.214 399.301 257.213 399.3 257.206L401.562 256.005C408.894 252.108 411.679 243.025 407.786 235.706L383.587 190.296C379.694 182.975 370.581 180.195 363.243 184.084C363.24 184.085 363.238 184.086 363.24 184.094Z" fill="#D83867"/>
<path fill-rule="evenodd" clip-rule="evenodd" d="M299.359 199.928C305.016 202.209 307.749 208.629 305.465 214.27L283.515 268.471C281.231 274.11 274.796 276.835 269.142 274.558L269.138 274.557C263.481 272.277 260.748 265.856 263.033 260.215L284.982 206.014C287.266 200.375 293.701 197.65 299.355 199.927L299.359 199.928Z" fill="#C6775C"/>
<path fill-rule="evenodd" clip-rule="evenodd" d="M281.912 253.373L289.874 260.78C291.239 262.052 292.042 263.812 292.107 265.674C292.172 267.535 291.494 269.347 290.222 270.711L282.797 278.655C280.147 281.495 275.69 281.651 272.844 279.006C272.843 279.005 272.842 279.004 272.844 279.001L264.881 271.594C263.516 270.322 262.714 268.562 262.648 266.7C262.583 264.839 263.261 263.027 264.533 261.663L271.959 253.719C274.608 250.88 279.066 250.723 281.912 253.368C281.912 253.368 281.913 253.37 281.912 253.373Z" fill="#C6775C"/>
<path fill-rule="evenodd" clip-rule="evenodd" d="M311.249 183.76L313.533 184.921C320.931 188.69 323.875 197.723 320.111 205.109L296.711 250.932C292.945 258.321 283.884 261.259 276.478 257.499C276.476 257.497 276.473 257.496 276.475 257.488L274.191 256.327C266.793 252.558 263.849 243.525 267.613 236.139L291.014 190.316C294.779 182.928 303.84 179.99 311.246 183.75C311.249 183.751 311.251 183.753 311.249 183.76Z" fill="#D83867"/>
<path d="M349.446 239.27H325.755C324.871 239.27 324.154 239.984 324.154 240.866V321.996C324.154 322.878 324.871 323.592 325.755 323.592H349.446C350.331 323.592 351.047 322.878 351.047 321.996V240.866C351.047 239.984 350.331 239.27 349.446 239.27Z" fill="#1C5D88"/>
<path d="M339.655 164.803H334.905C307.219 164.803 284.775 187.183 284.775 214.79C284.775 242.397 307.219 264.776 334.905 264.776H339.655C367.341 264.776 389.785 242.397 389.785 214.79C389.785 187.183 367.341 164.803 339.655 164.803Z" fill="#D83867"/>
<mask id="mask0_28_13638" style="mask-type:luminance" maskUnits="userSpaceOnUse" x="284" y="164" width="107" height="102">
<path d="M339.655 164.803H334.905C307.219 164.803 284.775 187.183 284.775 214.79C284.775 242.397 307.219 264.776 334.905 264.776H339.655C367.341 264.776 389.785 242.397 389.785 214.79C389.785 187.183 367.341 164.803 339.655 164.803Z" fill="#1C5D88" stroke="#979797" stroke-width="1.2"/>
</mask>
<g mask="url(#mask0_28_13638)">
<path fill-rule="evenodd" clip-rule="evenodd" d="M276.155 238.396H396.91V272.63H276.155V238.396Z" fill="#1C5D88" stroke="#979797" stroke-width="1.2"/>
</g>
<mask id="mask1_28_13638" style="mask-type:luminance" maskUnits="userSpaceOnUse" x="284" y="164" width="106" height="101">
<path d="M339.655 164.803H334.905C307.219 164.803 284.775 187.183 284.775 214.79C284.775 242.397 307.219 264.776 334.905 264.776H339.655C367.341 264.776 389.785 242.397 389.785 214.79C389.785 187.183 367.341 164.803 339.655 164.803Z" fill="#D78254"/>
</mask>
<g mask="url(#mask1_28_13638)">
<path fill-rule="evenodd" clip-rule="evenodd" d="M276.024 231.238H397.682V242.418H276.024V231.238Z" fill="#D78254"/>
</g>
<mask id="mask2_28_13638" style="mask-type:luminance" maskUnits="userSpaceOnUse" x="284" y="164" width="106" height="101">
<path d="M339.655 164.803H334.905C307.219 164.803 284.775 187.183 284.775 214.79C284.775 242.397 307.219 264.776 334.905 264.776H339.655C367.341 264.776 389.785 242.397 389.785 214.79C389.785 187.183 367.341 164.803 339.655 164.803Z" fill="#1C5D88"/>
</mask>
<g mask="url(#mask2_28_13638)">
<path fill-rule="evenodd" clip-rule="evenodd" d="M307.079 231.238H312.842V243.056H307.079V231.238ZM363.746 231.238H369.509V243.056H363.746V231.238Z" fill="#1C5D88"/>
</g>
<mask id="mask3_28_13638" style="mask-type:luminance" maskUnits="userSpaceOnUse" x="284" y="164" width="106" height="101">
<path d="M339.655 164.803H334.905C307.219 164.803 284.775 187.183 284.775 214.79C284.775 242.397 307.219 264.776 334.905 264.776H339.655C367.341 264.776 389.785 242.397 389.785 214.79C389.785 187.183 367.341 164.803 339.655 164.803Z" fill="#DBDADA"/>
</mask>
<g mask="url(#mask3_28_13638)">
<path d="M346.778 231.238H329.17C328.816 231.238 328.529 231.524 328.529 231.877V241.779C328.529 242.132 328.816 242.418 329.17 242.418H346.778C347.131 242.418 347.418 242.132 347.418 241.779V231.877C347.418 231.524 347.131 231.238 346.778 231.238Z" fill="#DBDADA"/>
</g>
<mask id="mask4_28_13638" style="mask-type:luminance" maskUnits="userSpaceOnUse" x="281" y="161" width="112" height="107">
<path d="M339.655 164.803H334.905C307.219 164.803 284.775 187.183 284.775 214.79C284.775 242.397 307.219 264.776 334.905 264.776H339.655C367.341 264.776 389.785 242.397 389.785 214.79C389.785 187.183 367.341 164.803 339.655 164.803Z" stroke="#C52F5B" stroke-width="6.364" stroke-linecap="round" stroke-linejoin="round"/>
</mask>
<g mask="url(#mask4_28_13638)">
<path d="M312.842 190.035L318.234 195.433L323.626 190.035M312.842 203.774L318.234 209.171L323.626 203.774M351.032 190.035L356.424 195.433L361.815 190.035M351.032 203.774L356.424 209.171L361.815 203.774M332.534 190.035L337.926 195.433L343.317 190.035M332.534 203.774L337.926 209.171L343.317 203.774" stroke="#C52F5B" stroke-width="6.364" stroke-linecap="round" stroke-linejoin="round"/>
</g>
<path d="M357.129 321.994H318.712C315.883 321.994 313.589 324.281 313.589 327.103V327.106C313.589 329.928 315.883 332.215 318.712 332.215H357.129C359.958 332.215 362.252 329.928 362.252 327.106V327.103C362.252 324.281 359.958 321.994 357.129 321.994Z" fill="#3D3D3D"/>
<path d="M337.601 130.627C359.88 130.627 377.94 112.609 377.94 90.3818C377.94 68.1551 359.88 50.1367 337.601 50.1367C315.323 50.1367 297.262 68.1551 297.262 90.3818C297.262 112.609 315.323 130.627 337.601 130.627Z" fill="#1C5D88"/>
<mask id="mask5_28_13638" style="mask-type:luminance" maskUnits="userSpaceOnUse" x="294" y="47" width="87" height="87">
<path d="M337.601 130.627C359.88 130.627 377.94 112.609 377.94 90.3818C377.94 68.1551 359.88 50.1367 337.601 50.1367C315.323 50.1367 297.262 68.1551 297.262 90.3818C297.262 112.609 315.323 130.627 337.601 130.627Z" stroke="black" stroke-opacity="0.209" stroke-width="5.531" stroke-linecap="square"/>
</mask>
<g mask="url(#mask5_28_13638)">
<path d="M329.277 90.0632L367.055 61.9551" stroke="black" stroke-opacity="0.209" stroke-width="5.531" stroke-linecap="square"/>
</g>
<path d="M320.731 93.4272L337.761 81.1191L354.576 93.4219C357.353 95.4534 359.611 98.1083 361.167 101.172C362.723 104.235 363.534 107.621 363.534 111.055V167.998H311.669V111.136C311.669 104.126 315.038 97.5406 320.731 93.4272V93.4272Z" fill="#C6775C"/>
<path d="M353.607 103.314C353.607 99.3468 350.382 96.1309 346.404 96.1309C342.425 96.1309 339.2 99.3468 339.2 103.314V109.07C339.2 113.037 342.425 116.253 346.404 116.253C350.382 116.253 353.607 113.037 353.607 109.07V103.314Z" fill="white"/>
<path d="M320.312 103.314C320.312 99.3468 323.537 96.1309 327.515 96.1309C331.494 96.1309 334.719 99.3468 334.719 103.314V109.07C334.719 113.037 331.494 116.253 327.515 116.253C323.537 116.253 320.312 113.037 320.312 109.07V103.314Z" fill="white"/>
<path d="M325.754 104.275C325.754 102.6 327.116 101.242 328.796 101.242C330.475 101.242 331.837 102.6 331.837 104.275V108.111C331.837 109.786 330.475 111.143 328.796 111.143C327.116 111.143 325.754 109.786 325.754 108.111V104.275Z" fill="#4B4B4B"/>
<path d="M341.975 104.593C341.975 102.918 343.337 101.561 345.016 101.561C346.696 101.561 348.058 102.918 348.058 104.593V108.429C348.058 110.104 346.696 111.462 345.016 111.462C343.337 111.462 341.975 110.104 341.975 108.429V104.593Z" fill="#4B4B4B"/>
<mask id="mask6_28_13638" style="mask-type:luminance" maskUnits="userSpaceOnUse" x="305" y="73" width="65" height="102">
<path d="M320.731 93.4272L337.761 81.1191L354.576 93.4219C357.353 95.4534 359.611 98.1083 361.167 101.172C362.723 104.235 363.534 107.621 363.534 111.055V167.998H311.669V111.136C311.669 104.126 315.038 97.5406 320.731 93.4272V93.4272Z" stroke="#C6775C" stroke-width="12.337"/>
</mask>
<g mask="url(#mask6_28_13638)">
<path d="M318.481 116.184C324.718 117.196 329.534 119.052 332.93 121.753" stroke="#C6775C" stroke-width="12.337"/>
</g>
<mask id="mask7_28_13638" style="mask-type:luminance" maskUnits="userSpaceOnUse" x="305" y="73" width="65" height="102">
<path d="M320.731 93.4272L337.761 81.1191L354.576 93.4219C357.353 95.4534 359.611 98.1083 361.167 101.172C362.723 104.235 363.534 107.621 363.534 111.055V167.998H311.669V111.136C311.669 104.126 315.038 97.5406 320.731 93.4272V93.4272Z" stroke="#C6775C" stroke-width="12.337"/>
</mask>
<g mask="url(#mask7_28_13638)">
<path d="M355.341 116.184C349.104 117.196 344.287 119.052 340.892 121.753" stroke="#C6775C" stroke-width="12.337"/>
</g>
<path fill-rule="evenodd" clip-rule="evenodd" d="M318.168 120.809H355.622C365.348 120.809 373.232 128.671 373.232 138.369V138.383C373.232 148.081 365.348 155.943 355.622 155.943H318.168C308.442 155.943 300.558 148.081 300.558 138.383V138.369C300.558 128.671 308.442 120.809 318.168 120.809Z" fill="#3D3D3D"/>
<path fill-rule="evenodd" clip-rule="evenodd" d="M330.038 122.873C331.324 124.759 332.457 125.337 334.262 125.147C335.951 124.971 337.642 125.471 338.961 126.537C340.281 127.603 341.122 129.148 341.299 130.833C341.477 132.517 340.976 134.203 339.908 135.519C338.839 136.835 337.29 137.675 335.601 137.852C329.019 138.543 323.35 135.778 319.449 130.058C318.494 128.657 318.135 126.936 318.452 125.272C318.769 123.608 319.736 122.138 321.14 121.185C321.835 120.713 322.617 120.382 323.44 120.211C324.264 120.041 325.113 120.034 325.939 120.191C326.765 120.348 327.552 120.665 328.256 121.125C328.959 121.586 329.564 122.18 330.037 122.873H330.038Z" stroke="#3D3D3D" stroke-width="5.531"/>
<mask id="mask8_28_13638" style="mask-type:luminance" maskUnits="userSpaceOnUse" x="320" y="122" width="20" height="14">
<path d="M328.317 124.041C330.033 126.558 331.904 127.483 334.48 127.213C335.044 127.153 335.615 127.206 336.159 127.367C336.704 127.528 337.211 127.794 337.652 128.15C338.093 128.507 338.46 128.946 338.73 129.444C339.001 129.942 339.171 130.488 339.23 131.051C339.29 131.614 339.237 132.183 339.076 132.726C338.915 133.268 338.648 133.774 338.291 134.214C337.934 134.654 337.493 135.02 336.994 135.29C336.496 135.56 335.948 135.73 335.384 135.789C329.554 136.4 324.632 133.968 321.17 128.892C320.525 127.947 320.283 126.784 320.497 125.661C320.711 124.537 321.364 123.545 322.312 122.901C322.781 122.582 323.309 122.359 323.865 122.244C324.421 122.129 324.994 122.124 325.552 122.23C326.109 122.336 326.641 122.551 327.115 122.862C327.59 123.172 327.998 123.573 328.317 124.042V124.041Z" fill="white"/>
</mask>
<g mask="url(#mask8_28_13638)">
<path d="M340.588 118.549H327.43C325.095 118.549 323.201 120.437 323.201 122.766V125.109C323.201 127.438 325.095 129.326 327.43 129.326H340.588C342.923 129.326 344.817 127.438 344.817 125.109V122.766C344.817 120.437 342.923 118.549 340.588 118.549Z" fill="white"/>
</g>
<mask id="mask9_28_13638" style="mask-type:luminance" maskUnits="userSpaceOnUse" x="320" y="122" width="20" height="14">
<path d="M328.317 124.041C330.033 126.558 331.904 127.483 334.48 127.213C335.044 127.153 335.615 127.206 336.159 127.367C336.704 127.528 337.211 127.794 337.652 128.15C338.093 128.507 338.46 128.946 338.73 129.444C339.001 129.942 339.171 130.488 339.23 131.051C339.29 131.614 339.237 132.183 339.076 132.726C338.915 133.268 338.648 133.774 338.291 134.214C337.934 134.654 337.493 135.02 336.994 135.29C336.496 135.56 335.948 135.73 335.384 135.789C329.554 136.4 324.632 133.968 321.17 128.892C320.525 127.947 320.283 126.784 320.497 125.661C320.711 124.537 321.364 123.545 322.312 122.901C322.781 122.582 323.309 122.359 323.865 122.244C324.421 122.129 324.994 122.124 325.552 122.23C326.109 122.336 326.641 122.551 327.115 122.862C327.59 123.172 327.998 123.573 328.317 124.042V124.041Z" fill="white"/>
</mask>
<g mask="url(#mask9_28_13638)">
<path d="M340.588 127.92H327.43C325.095 127.92 323.201 129.808 323.201 132.137V134.48C323.201 136.809 325.095 138.697 327.43 138.697H340.588C342.923 138.697 344.817 136.809 344.817 134.48V132.137C344.817 129.808 342.923 127.92 340.588 127.92Z" fill="white"/>
</g>
<path d="M339.427 116.613H334.305C332.271 116.613 330.623 118.257 330.623 120.285V120.288C330.623 122.316 332.271 123.96 334.305 123.96H339.427C341.461 123.96 343.109 122.316 343.109 120.288V120.285C343.109 118.257 341.461 116.613 339.427 116.613Z" fill="#C6775C"/>
<path d="M364.686 165.441H310.58C309.165 165.441 308.019 166.585 308.019 167.995V170.234C308.019 171.645 309.165 172.788 310.58 172.788H364.686C366.1 172.788 367.247 171.645 367.247 170.234V167.995C367.247 166.585 366.1 165.441 364.686 165.441Z" fill="#D83867"/>
<path d="M563.851 105.406H538.577C521.62 105.406 507.873 119.114 507.873 136.023V136.024C507.873 152.933 521.62 166.64 538.577 166.64H563.851C580.808 166.64 594.554 152.933 594.554 136.024V136.023C594.554 119.114 580.808 105.406 563.851 105.406Z" fill="#FFB100"/>
<path d="M553.205 169.531H549.395C546.226 169.531 543.657 172.093 543.657 175.252V197.183C543.657 200.343 546.226 202.904 549.395 202.904H553.205C556.374 202.904 558.942 200.343 558.942 197.183V175.252C558.942 172.093 556.374 169.531 553.205 169.531Z" fill="#A66640"/>
<path d="M577.142 152.365H577.141C573.444 152.365 570.446 155.354 570.446 159.041V159.055C570.446 162.742 573.444 165.731 577.141 165.731H577.142C580.839 165.731 583.836 162.742 583.836 159.055V159.041C583.836 155.354 580.839 152.365 577.142 152.365Z" fill="#A66640"/>
<path d="M523.606 152.365H523.605C519.907 152.365 516.91 155.354 516.91 159.041V159.055C516.91 162.742 519.907 165.731 523.605 165.731H523.606C527.303 165.731 530.3 162.742 530.3 159.055V159.041C530.3 155.354 527.303 152.365 523.606 152.365Z" fill="#A66640"/>
<path fill-rule="evenodd" clip-rule="evenodd" d="M524.858 164.135L528.672 171.742C528.759 171.913 528.799 172.104 528.791 172.295C528.782 172.487 528.725 172.673 528.624 172.836C528.522 172.999 528.381 173.134 528.213 173.227C528.045 173.321 527.856 173.369 527.664 173.369H520.035C519.843 173.369 519.654 173.321 519.486 173.227C519.318 173.134 519.177 172.999 519.076 172.836C518.974 172.673 518.917 172.487 518.908 172.295C518.9 172.104 518.941 171.913 519.027 171.742L522.841 164.135C522.935 163.949 523.079 163.791 523.257 163.682C523.435 163.572 523.64 163.514 523.85 163.514C524.059 163.514 524.264 163.572 524.442 163.682C524.62 163.791 524.764 163.949 524.858 164.135Z" fill="#CE82FF"/>
<path fill-rule="evenodd" clip-rule="evenodd" d="M529.851 128.905H567.374C568.253 128.905 569.123 129.078 569.935 129.413C570.747 129.748 571.485 130.24 572.107 130.86C572.728 131.479 573.221 132.215 573.558 133.025C573.894 133.835 574.067 134.703 574.067 135.579V173.345C574.067 174.221 573.894 175.089 573.558 175.899C573.222 176.709 572.729 177.445 572.107 178.065C571.485 178.685 570.747 179.176 569.935 179.512C569.123 179.847 568.253 180.02 567.374 180.019H532.674C530.985 180.02 529.358 179.383 528.12 178.237C526.882 177.091 526.124 175.52 525.999 173.841L523.177 136.074C523.108 135.159 523.23 134.239 523.534 133.372C523.839 132.506 524.319 131.711 524.946 131.038C525.572 130.365 526.331 129.828 527.175 129.461C528.019 129.094 528.93 128.905 529.851 128.905Z" fill="#A66640"/>
<path fill-rule="evenodd" clip-rule="evenodd" d="M538.612 146.832H529.737V151.81C529.737 156.513 533.561 160.324 538.277 160.324H547.15V155.347C547.151 150.645 543.328 146.832 538.612 146.832Z" fill="#3D3D3D"/>
<path fill-rule="evenodd" clip-rule="evenodd" d="M538.612 149.917H529.737V154.894C529.737 159.597 533.561 163.409 538.277 163.409H547.15V158.431C547.15 153.729 543.328 149.917 538.612 149.917Z" fill="white"/>
<path d="M539.571 147.336H539.713C541.704 147.336 543.318 148.945 543.318 150.931V153.764C543.318 155.749 541.704 157.359 539.713 157.359H539.571C537.58 157.359 535.966 155.749 535.966 153.764V150.931C535.966 148.945 537.58 147.336 539.571 147.336Z" fill="#4B4B4B"/>
<path fill-rule="evenodd" clip-rule="evenodd" d="M561.94 146.832H570.814V151.81C570.814 156.513 566.991 160.324 562.275 160.324H553.402V155.347C553.401 150.645 557.224 146.832 561.94 146.832Z" fill="#3D3D3D"/>
<path fill-rule="evenodd" clip-rule="evenodd" d="M561.94 149.917H570.814V154.894C570.814 159.597 566.991 163.409 562.275 163.409H553.402V158.431C553.402 153.729 557.224 149.917 561.94 149.917Z" fill="white"/>
<path d="M561.153 147.336H561.01C559.019 147.336 557.405 148.945 557.405 150.931V153.764C557.405 155.749 559.019 157.359 561.01 157.359H561.153C563.144 157.359 564.758 155.749 564.758 153.764V150.931C564.758 148.945 563.144 147.336 561.153 147.336Z" fill="#4B4B4B"/>
<path d="M550.736 151.6H550.254C549.198 151.6 548.342 152.453 548.342 153.507V164.012C548.342 165.065 549.198 165.919 550.254 165.919H550.736C551.792 165.919 552.648 165.065 552.648 164.012V153.507C552.648 152.453 551.792 151.6 550.736 151.6Z" fill="#733F21"/>
<path fill-rule="evenodd" clip-rule="evenodd" d="M548.812 158.158H552.178L555.278 163.584C555.44 163.869 555.525 164.192 555.524 164.52C555.523 164.848 555.435 165.17 555.269 165.454C555.104 165.737 554.867 165.973 554.582 166.136C554.297 166.3 553.973 166.386 553.644 166.386H547.346C547.017 166.386 546.694 166.3 546.409 166.136C546.124 165.973 545.887 165.737 545.721 165.454C545.556 165.17 545.468 164.848 545.467 164.52C545.465 164.192 545.55 163.869 545.713 163.584L548.812 158.158Z" fill="#733F21"/>
<path d="M581.932 128.322C581.932 120.167 575.302 113.557 567.125 113.557C558.947 113.557 552.317 120.167 552.317 128.322V128.35C552.317 136.505 558.947 143.115 567.125 143.115C575.302 143.115 581.932 136.505 581.932 128.35V128.322Z" fill="#FFB100"/>
<path d="M547.391 118.242H547.39C541.807 118.242 537.28 122.756 537.28 128.324V128.344C537.28 133.912 541.807 138.425 547.39 138.425H547.391C552.975 138.425 557.501 133.912 557.501 128.344V128.324C557.501 122.756 552.975 118.242 547.391 118.242Z" fill="#FFB100"/>
<path fill-rule="evenodd" clip-rule="evenodd" d="M576.548 164.135L580.362 171.742C580.448 171.913 580.489 172.104 580.48 172.295C580.472 172.487 580.414 172.673 580.313 172.836C580.212 172.999 580.071 173.134 579.903 173.227C579.735 173.321 579.546 173.369 579.354 173.369H571.726C571.533 173.369 571.344 173.321 571.176 173.227C571.008 173.134 570.867 172.999 570.766 172.836C570.665 172.673 570.607 172.487 570.599 172.295C570.59 172.104 570.631 171.913 570.717 171.742L574.531 164.135C574.624 163.949 574.768 163.791 574.946 163.682C575.124 163.572 575.33 163.514 575.539 163.514C575.749 163.514 575.954 163.572 576.132 163.682C576.31 163.791 576.455 163.949 576.548 164.135Z" fill="#CE82FF"/>
<path fill-rule="evenodd" clip-rule="evenodd" d="M538.963 192.124C540.798 192.649 542.349 193.879 543.274 195.544C544.2 197.209 544.424 199.172 543.898 201.002L528.64 254.114C528.38 255.02 527.943 255.866 527.355 256.604C526.767 257.341 526.039 257.956 525.213 258.413C524.386 258.87 523.478 259.16 522.539 259.266C521.6 259.373 520.649 259.294 519.741 259.034C517.906 258.509 516.355 257.279 515.43 255.614C514.505 253.949 514.28 251.985 514.806 250.156L530.065 197.043C530.325 196.137 530.762 195.291 531.35 194.554C531.938 193.816 532.666 193.202 533.492 192.745C534.318 192.288 535.227 191.998 536.166 191.892C537.104 191.785 538.055 191.864 538.963 192.124Z" fill="#A66640"/>
<path d="M558.396 167.406C558.201 168.135 557.863 168.818 557.403 169.417C556.943 170.015 556.369 170.518 555.714 170.895C555.059 171.273 554.336 171.518 553.586 171.616C552.836 171.715 552.074 171.665 551.344 171.47" stroke="#733F21" stroke-width="3.176" stroke-linecap="round"/>
<path fill-rule="evenodd" clip-rule="evenodd" d="M552.758 197.926C552.758 196.022 553.517 194.195 554.867 192.848C556.218 191.501 558.05 190.744 559.96 190.744H585.678C587.588 190.744 589.42 191.501 590.771 192.848C592.122 194.195 592.881 196.022 592.881 197.926C592.881 199.831 592.122 201.658 590.771 203.005C589.42 204.352 587.588 205.109 585.678 205.109H559.96C558.05 205.109 556.218 204.352 554.867 203.005C553.517 201.658 552.758 199.831 552.758 197.926Z" fill="#A66640"/>
<path fill-rule="evenodd" clip-rule="evenodd" d="M566.674 223.121C565.17 221.948 564.194 220.227 563.961 218.337C563.728 216.447 564.258 214.542 565.433 213.041L579.512 195.054C580.094 194.311 580.816 193.69 581.639 193.225C582.461 192.761 583.367 192.463 584.305 192.348C585.243 192.234 586.195 192.304 587.105 192.556C588.016 192.808 588.868 193.237 589.612 193.818C591.116 194.991 592.092 196.711 592.325 198.601C592.558 200.491 592.029 202.396 590.854 203.897L576.774 221.884C576.192 222.627 575.47 223.249 574.647 223.713C573.825 224.177 572.919 224.475 571.981 224.59C571.043 224.705 570.091 224.634 569.181 224.382C568.27 224.13 567.418 223.702 566.674 223.121Z" fill="#A66640"/>
<path fill-rule="evenodd" clip-rule="evenodd" d="M565.784 216.419C569.404 212.546 575.486 212.333 579.369 215.942L579.378 215.95L580.677 217.16C584.563 220.78 584.774 226.853 581.149 230.732C577.529 234.604 571.447 234.818 567.564 231.208C567.561 231.206 567.557 231.203 567.554 231.201L566.255 229.99C562.37 226.371 562.159 220.298 565.784 216.419Z" fill="#A66640"/>
<path d="M561.984 190.848H539.958C537.845 190.848 536.133 192.555 536.133 194.662V228.714C536.133 230.82 537.845 232.528 539.958 232.528H561.984C564.097 232.528 565.809 230.82 565.809 228.714V194.662C565.809 192.555 564.097 190.848 561.984 190.848Z" fill="#47D7FF"/>
<path d="M536.121 216.52H566.467C569.134 216.519 571.711 217.488 573.714 219.245C575.717 221.002 577.009 223.426 577.35 226.064L588.04 308.89C588.984 316.202 583.805 322.893 576.472 323.834C575.906 323.906 575.335 323.943 574.763 323.943H527.825C520.431 323.943 514.438 317.966 514.438 310.594C514.438 310.024 514.474 309.455 514.547 308.89L525.238 226.064C525.578 223.426 526.871 221.002 528.874 219.245C530.877 217.488 533.453 216.519 536.121 216.52V216.52Z" fill="#1CB0F6"/>
<mask id="mask10_28_13638" style="mask-type:luminance" maskUnits="userSpaceOnUse" x="511" y="213" width="80" height="114">
<path d="M536.121 216.52H566.467C569.134 216.519 571.711 217.488 573.714 219.245C575.717 221.002 577.009 223.426 577.35 226.064L588.04 308.89C588.984 316.202 583.805 322.893 576.472 323.834C575.906 323.906 575.335 323.943 574.763 323.943H527.825C520.431 323.943 514.438 317.966 514.438 310.594C514.438 310.024 514.474 309.455 514.547 308.89L525.238 226.064C525.578 223.426 526.871 221.002 528.874 219.245C530.877 217.488 533.453 216.519 536.121 216.52V216.52Z" stroke="#1899D6" stroke-width="5.082" stroke-linecap="round" stroke-linejoin="round"/>
</mask>
<g mask="url(#mask10_28_13638)">
<path d="M542.792 238.451L550.579 243.406M550.479 243.546V333.732" stroke="#1899D6" stroke-width="5.082" stroke-linecap="round" stroke-linejoin="round"/>
</g>
<path fill-rule="evenodd" clip-rule="evenodd" d="M560.407 185.896C560.407 186.338 560.231 186.762 559.917 187.075C559.604 187.388 559.178 187.564 558.735 187.564H543.93C543.486 187.564 543.061 187.388 542.747 187.075C542.433 186.762 542.257 186.338 542.257 185.895C542.257 185.453 542.433 185.028 542.747 184.715C543.061 184.402 543.486 184.227 543.93 184.227H558.735C559.659 184.227 560.407 184.974 560.407 185.896Z" fill="#303030"/>
<path d="M562.753 323.633H537.923C535.547 323.633 533.62 325.554 533.62 327.923V327.924C533.62 330.294 535.547 332.215 537.923 332.215H562.753C565.129 332.215 567.056 330.294 567.056 327.924V327.923C567.056 325.554 565.129 323.633 562.753 323.633Z" fill="#3D3D3D"/>
<path d="M132.248 165.804C132.248 161.011 128.351 157.125 123.544 157.125C118.737 157.125 114.841 161.011 114.841 165.804V224.556C114.841 229.349 118.737 233.235 123.544 233.235C128.351 233.235 132.248 229.349 132.248 224.556V165.804Z" fill="#3D3D3D"/>
<path d="M212.384 175.645C212.384 170.852 208.488 166.967 203.681 166.967C198.874 166.967 194.978 170.852 194.978 175.645V234.398C194.978 239.191 198.874 243.076 203.681 243.076C208.488 243.076 212.384 239.191 212.384 234.398V175.645Z" fill="#3D3D3D"/>
<path d="M149.326 178.597C149.326 173.804 145.429 169.918 140.622 169.918C135.816 169.918 131.919 173.804 131.919 178.597V237.349C131.919 242.142 135.816 246.028 140.622 246.028C145.429 246.028 149.326 242.142 149.326 237.349V178.597Z" fill="#3D3D3D"/>
<path d="M216.326 162.522C216.326 157.729 212.429 153.844 207.622 153.844C202.816 153.844 198.919 157.729 198.919 162.522V200.279C198.919 205.072 202.816 208.958 207.622 208.958C212.429 208.958 216.326 205.072 216.326 200.279V162.522Z" fill="#3D3D3D"/>
<path fill-rule="evenodd" clip-rule="evenodd" d="M157.044 82C180.352 82 199.247 100.841 199.247 124.083V191.479C199.247 214.722 180.352 233.562 157.044 233.562C133.736 233.562 114.841 214.721 114.841 191.479V124.083C114.841 100.841 133.736 82 157.044 82Z" fill="#3D3D3D"/>
<path d="M201.515 119.727H198.292C187.392 119.727 178.556 128.538 178.556 139.407V198.136C178.556 209.005 187.392 217.816 198.292 217.816H201.515C212.415 217.816 221.252 209.005 221.252 198.136V139.407C221.252 128.538 212.415 119.727 201.515 119.727Z" fill="#3D3D3D"/>
<path fill-rule="evenodd" clip-rule="evenodd" d="M153.13 210.867H153.134C157.17 211.659 159.806 215.556 159.029 219.584L151.538 258.45C150.766 262.458 146.881 265.083 142.862 264.313C142.851 264.311 142.841 264.309 142.831 264.307L142.827 264.306C138.791 263.515 136.155 259.619 136.932 255.59L144.423 216.724C144.607 215.769 144.978 214.858 145.516 214.046C146.054 213.234 146.747 212.536 147.556 211.992C148.365 211.448 149.274 211.068 150.231 210.875C151.188 210.682 152.173 210.68 153.131 210.867H153.13Z" fill="#A56644"/>
<path fill-rule="evenodd" clip-rule="evenodd" d="M148.558 248.948L154.764 252.84C155.829 253.508 156.586 254.57 156.869 255.793C157.153 257.016 156.939 258.301 156.275 259.367L152.408 265.577C152.077 266.109 151.643 266.571 151.133 266.935C150.622 267.299 150.044 267.559 149.432 267.7C148.821 267.841 148.187 267.86 147.568 267.756C146.949 267.652 146.356 267.427 145.825 267.093L139.618 263.201C138.553 262.533 137.796 261.472 137.513 260.249C137.23 259.026 137.443 257.741 138.107 256.674L141.974 250.464C142.305 249.932 142.739 249.47 143.25 249.106C143.76 248.742 144.338 248.481 144.95 248.341C145.562 248.2 146.196 248.181 146.815 248.285C147.434 248.389 148.027 248.615 148.558 248.948Z" fill="#A56644"/>
<path fill-rule="evenodd" clip-rule="evenodd" d="M158.633 200.814L160.226 201.273C165.609 202.825 168.721 208.424 167.19 213.799L158.004 246.017C156.468 251.409 150.838 254.537 145.431 253.004L145.387 252.992L143.794 252.532C138.411 250.98 135.299 245.382 136.831 240.007L146.016 207.789C147.553 202.397 153.182 199.268 158.589 200.802L158.633 200.814Z" fill="#FFB100"/>
<path fill-rule="evenodd" clip-rule="evenodd" d="M161.997 193.539H177.708C186.339 193.539 193.335 200.516 193.335 209.122V215.849C193.335 220.74 189.359 224.705 184.454 224.705H155.251C150.346 224.705 146.37 220.74 146.37 215.849V209.122C146.37 200.516 153.367 193.539 161.997 193.539Z" fill="#FFB100"/>
<path d="M171.13 114.148H169.233C156.062 114.148 145.385 124.795 145.385 137.929V149.091C145.385 162.224 156.062 172.871 169.233 172.871H171.13C184.301 172.871 194.978 162.224 194.978 149.091V137.929C194.978 124.795 184.301 114.148 171.13 114.148Z" fill="#FFB100"/>
<path fill-rule="evenodd" clip-rule="evenodd" d="M170.181 126.287C183.876 126.287 194.978 137.357 194.978 151.013V170.577C194.978 177.642 189.234 183.369 182.149 183.369H158.213C151.129 183.369 145.385 177.642 145.385 170.577V151.012C145.385 137.357 156.487 126.287 170.181 126.287Z" fill="#A56644"/>
<path d="M170.585 168.567L162.513 166.592C160.283 166.045 158.053 165.194 155.823 164.038C155.522 163.882 155.186 163.806 154.847 163.817C154.508 163.829 154.177 163.927 153.888 164.102C153.598 164.278 153.358 164.525 153.192 164.82C153.026 165.114 152.938 165.447 152.938 165.785V170.905C152.938 175.071 156.325 178.449 160.504 178.449H170.115C170.374 178.449 170.631 178.398 170.87 178.299C171.11 178.2 171.327 178.055 171.511 177.872C171.694 177.689 171.839 177.472 171.938 177.233C172.038 176.995 172.088 176.739 172.088 176.48V170.478C172.088 169.572 171.467 168.782 170.585 168.567Z" fill="#932626"/>
<mask id="mask11_28_13638" style="mask-type:luminance" maskUnits="userSpaceOnUse" x="152" y="163" width="21" height="16">
<path d="M170.585 168.567L162.513 166.592C160.283 166.045 158.053 165.194 155.823 164.038C155.522 163.882 155.186 163.806 154.847 163.817C154.508 163.829 154.177 163.927 153.888 164.102C153.598 164.278 153.358 164.525 153.192 164.82C153.026 165.114 152.938 165.447 152.938 165.785V170.905C152.938 175.071 156.325 178.449 160.504 178.449H170.115C170.374 178.449 170.631 178.398 170.87 178.299C171.11 178.2 171.327 178.055 171.511 177.872C171.694 177.689 171.839 177.472 171.938 177.233C172.038 176.995 172.088 176.739 172.088 176.48V170.478C172.088 169.572 171.467 168.782 170.585 168.567Z" fill="#FF4B4B"/>
</mask>
<g mask="url(#mask11_28_13638)">
<path d="M156.134 188.391C151.844 188.391 148.366 184.917 148.366 180.631C148.366 176.345 151.844 172.871 156.134 172.871C160.425 172.871 163.903 176.345 163.903 180.631C163.903 184.917 160.425 188.391 156.134 188.391Z" fill="#FF4B4B"/>
</g>
<mask id="mask12_28_13638" style="mask-type:luminance" maskUnits="userSpaceOnUse" x="152" y="163" width="21" height="16">
<path d="M170.585 168.567L162.513 166.592C160.283 166.045 158.053 165.194 155.823 164.038C155.522 163.882 155.186 163.806 154.847 163.817C154.508 163.829 154.177 163.927 153.888 164.102C153.598 164.278 153.358 164.525 153.192 164.82C153.026 165.114 152.938 165.447 152.938 165.785V170.905C152.938 175.071 156.325 178.449 160.504 178.449H170.115C170.374 178.449 170.631 178.398 170.87 178.299C171.11 178.2 171.327 178.055 171.511 177.872C171.694 177.689 171.839 177.472 171.938 177.233C172.038 176.995 172.088 176.739 172.088 176.48V170.478C172.088 169.572 171.467 168.782 170.585 168.567Z" fill="white"/>
</mask>
<g mask="url(#mask12_28_13638)">
<path d="M158.527 160.406H173.726C175.543 160.406 177.015 161.875 177.015 163.686V167.718C177.015 169.53 175.543 170.998 173.726 170.998H158.527C156.71 170.998 155.238 169.53 155.238 167.718V163.686C155.238 161.875 156.71 160.406 158.527 160.406Z" fill="white"/>
</g>
<path d="M180.035 139.41H180.034C175.953 139.41 172.645 142.709 172.645 146.778V152.71C172.645 156.779 175.953 160.078 180.034 160.078H180.035C184.116 160.078 187.424 156.779 187.424 152.71V146.778C187.424 142.709 184.116 139.41 180.035 139.41Z" fill="white"/>
<path d="M160.656 139.41H160.657C164.738 139.41 168.046 142.709 168.046 146.778V152.71C168.046 156.779 164.738 160.078 160.657 160.078H160.656C156.575 160.078 153.266 156.779 153.266 152.71V146.778C153.266 142.709 156.575 139.41 160.656 139.41Z" fill="white"/>
<path d="M158.85 147.77C158.85 146.051 160.247 144.658 161.97 144.658C163.693 144.658 165.09 146.051 165.09 147.77V151.717C165.09 153.435 163.693 154.828 161.97 154.828C160.247 154.828 158.85 153.435 158.85 151.717V147.77Z" fill="#4B4B4B"/>
<path d="M175.6 147.77C175.6 146.051 176.997 144.658 178.72 144.658C180.443 144.658 181.84 146.051 181.84 147.77V151.717C181.84 153.435 180.443 154.828 178.72 154.828C176.997 154.828 175.6 153.435 175.6 151.717V147.77Z" fill="#4B4B4B"/>
<path d="M150.64 156.797C155.895 158.091 159.617 159.731 161.806 161.718" stroke="#A56644" stroke-width="6.556"/>
<path fill-rule="evenodd" clip-rule="evenodd" d="M170.345 148.596C170.867 148.596 171.369 148.792 171.752 149.146C172.135 149.499 172.369 149.984 172.409 150.503L173.299 162.148C173.33 162.553 173.276 162.961 173.141 163.344C173.007 163.728 172.794 164.08 172.517 164.378C172.239 164.676 171.903 164.914 171.53 165.076C171.156 165.239 170.753 165.323 170.345 165.323C169.937 165.323 169.534 165.239 169.161 165.076C168.787 164.914 168.451 164.676 168.174 164.378C167.896 164.08 167.684 163.728 167.549 163.344C167.414 162.961 167.361 162.553 167.391 162.148L168.281 150.503C168.321 149.984 168.556 149.5 168.939 149.146C169.321 148.793 169.824 148.596 170.345 148.596Z" fill="#8D4D2B"/>
<path d="M170.346 159.42H170.346C168.169 159.42 166.405 161.179 166.405 163.349V163.364C166.405 165.534 168.169 167.293 170.346 167.293H170.346C172.523 167.293 174.287 165.534 174.287 163.364V163.349C174.287 161.179 172.523 159.42 170.346 159.42Z" fill="#8D4D2B"/>
<path d="M162.791 110.037C162.791 106.149 159.63 102.996 155.73 102.996C151.83 102.996 148.669 106.149 148.669 110.037V131.057C148.669 134.946 151.83 138.098 155.73 138.098C159.63 138.098 162.791 134.946 162.791 131.057V110.037Z" fill="#3D3D3D"/>
<path fill-rule="evenodd" clip-rule="evenodd" d="M163.12 181.4H176.585V193.21H163.12V181.4Z" fill="#A56644"/>
<path d="M115.311 131.38C119.458 115.76 125.205 105.816 132.553 101.549M219.469 151.222C216.248 139.527 211.924 132.046 206.496 128.777" stroke="#3D3D3D" stroke-width="20.104" stroke-linecap="round" stroke-linejoin="round"/>
<path d="M196.785 145.643H196.784C194.154 145.643 192.022 147.768 192.022 150.391V155.328C192.022 157.951 194.154 160.077 196.784 160.077H196.785C199.415 160.077 201.547 157.951 201.547 155.328V150.391C201.547 147.768 199.415 145.643 196.785 145.643Z" fill="#A56644"/>
<path d="M143.25 145.643H143.25C140.62 145.643 138.488 147.768 138.488 150.391V155.328C138.488 157.951 140.62 160.077 143.25 160.077H143.25C145.88 160.077 148.012 157.951 148.012 155.328V150.391C148.012 147.768 145.88 145.643 143.25 145.643Z" fill="#A56644"/>
<path fill-rule="evenodd" clip-rule="evenodd" d="M157.868 183.369H182.823C183.732 183.369 184.468 184.104 184.468 185.01V198.46C184.468 198.675 184.426 198.889 184.343 199.088C184.26 199.287 184.139 199.468 183.987 199.62C183.834 199.772 183.652 199.893 183.453 199.976C183.253 200.058 183.039 200.101 182.823 200.101H157.868C157.652 200.101 157.438 200.058 157.238 199.976C157.039 199.893 156.857 199.772 156.705 199.62C156.552 199.468 156.431 199.287 156.348 199.088C156.266 198.889 156.223 198.675 156.223 198.46V185.01C156.223 184.104 156.96 183.369 157.868 183.369Z" fill="#FFB100"/>
<path d="M190.386 325.418H214.021C215.838 325.418 217.311 326.887 217.311 328.698C217.311 330.51 215.838 331.979 214.021 331.979H190.386C188.569 331.979 187.096 330.51 187.096 328.698C187.096 326.887 188.569 325.418 190.386 325.418Z" fill="#FF4B4B"/>
<path fill-rule="evenodd" clip-rule="evenodd" d="M198.602 311.313H187.842C187.551 311.312 187.264 311.377 187.001 311.5C186.738 311.624 186.506 311.804 186.32 312.027C186.135 312.251 186.002 312.512 185.93 312.793C185.858 313.074 185.849 313.367 185.904 313.652L188.431 326.775C188.517 327.224 188.758 327.629 189.111 327.921C189.465 328.212 189.91 328.372 190.369 328.372H201.13C201.42 328.372 201.707 328.308 201.97 328.184C202.233 328.061 202.466 327.881 202.651 327.658C202.836 327.434 202.969 327.173 203.041 326.892C203.113 326.611 203.122 326.318 203.068 326.033L200.541 312.91C200.455 312.461 200.214 312.056 199.86 311.764C199.506 311.473 199.062 311.313 198.603 311.313L198.602 311.313Z" fill="#FF4B4B"/>
<path d="M151.63 325.418H170.34C172.157 325.418 173.63 326.887 173.63 328.698C173.63 330.51 172.157 331.979 170.34 331.979H151.63C149.814 331.979 148.341 330.51 148.341 328.698C148.341 326.887 149.814 325.418 151.63 325.418Z" fill="#FF4B4B"/>
<path fill-rule="evenodd" clip-rule="evenodd" d="M169.067 311.641H158.236C157.974 311.641 157.714 311.693 157.472 311.794C157.23 311.895 157.011 312.044 156.827 312.23C156.643 312.417 156.499 312.639 156.402 312.882C156.305 313.125 156.257 313.385 156.263 313.647L156.514 326.443C156.524 326.958 156.737 327.448 157.105 327.809C157.474 328.169 157.97 328.371 158.487 328.371H169.318C169.581 328.371 169.841 328.319 170.082 328.218C170.324 328.116 170.543 327.968 170.727 327.781C170.911 327.594 171.055 327.373 171.152 327.13C171.249 326.887 171.296 326.627 171.291 326.365L171.041 313.569C171.03 313.054 170.818 312.564 170.449 312.203C170.08 311.842 169.584 311.641 169.067 311.641Z" fill="#FF4B4B"/>
<path fill-rule="evenodd" clip-rule="evenodd" d="M153.565 224.705H172.79L175.598 306.586C175.616 307.114 175.527 307.64 175.337 308.133C175.147 308.626 174.859 309.076 174.491 309.455C174.123 309.835 173.682 310.137 173.195 310.344C172.707 310.55 172.183 310.656 171.653 310.657H157.215C156.695 310.657 156.181 310.554 155.701 310.356C155.221 310.157 154.785 309.866 154.418 309.499C154.052 309.132 153.761 308.696 153.564 308.217C153.366 307.738 153.265 307.224 153.267 306.706L153.565 224.705Z" fill="#1CB0F6"/>
<path fill-rule="evenodd" clip-rule="evenodd" d="M187.048 224.705H167.718L181.582 307.369C181.736 308.288 182.212 309.123 182.925 309.724C183.637 310.326 184.541 310.657 185.475 310.657H199.899C200.484 310.656 201.063 310.526 201.592 310.276C202.121 310.025 202.587 309.66 202.958 309.208C203.328 308.755 203.592 308.226 203.732 307.659C203.871 307.092 203.883 306.501 203.765 305.928L187.048 224.705Z" fill="#1CB0F6"/>
<path d="M173.297 299.83H151.63C149.813 299.83 148.341 301.298 148.341 303.11V310.985C148.341 312.796 149.813 314.264 151.63 314.264H173.297C175.113 314.264 176.586 312.796 176.586 310.985V303.11C176.586 301.298 175.113 299.83 173.297 299.83Z" fill="#42C2FF"/>
<path d="M203.512 299.83H181.846C180.029 299.83 178.557 301.298 178.557 303.11V310.985C178.557 312.796 180.029 314.264 181.846 314.264H203.512C205.329 314.264 206.801 312.796 206.801 310.985V303.11C206.801 301.298 205.329 299.83 203.512 299.83Z" fill="#42C2FF"/>
<path fill-rule="evenodd" clip-rule="evenodd" d="M154.254 223.393H186.185C186.652 223.393 187.055 223.719 187.151 224.175L188.047 228.44C188.077 228.584 188.074 228.732 188.04 228.874C188.005 229.016 187.94 229.149 187.847 229.262C187.755 229.376 187.638 229.467 187.506 229.53C187.373 229.593 187.228 229.626 187.082 229.626H154.254C153.993 229.626 153.742 229.523 153.557 229.338C153.372 229.153 153.268 228.903 153.268 228.642V224.377C153.268 223.833 153.709 223.393 154.254 223.393H154.254Z" fill="#3D3D3D"/>
<path fill-rule="evenodd" clip-rule="evenodd" d="M184.14 193.211L206.591 207.837C211.305 210.908 212.631 217.209 209.55 221.91C209.246 222.376 208.903 222.815 208.526 223.224L195.2 237.706C195.035 237.885 194.825 238.015 194.591 238.081C194.357 238.148 194.109 238.148 193.875 238.083C193.641 238.018 193.43 237.889 193.265 237.711C193.099 237.533 192.987 237.313 192.939 237.076L184.14 193.211Z" fill="#FFB100"/>
<path fill-rule="evenodd" clip-rule="evenodd" d="M188.286 219.395L193.199 220.806C194.09 221.062 194.874 221.6 195.432 222.339C195.99 223.078 196.292 223.978 196.292 224.904V235.35C196.291 236.034 196.126 236.709 195.809 237.316C195.492 237.924 195.034 238.446 194.472 238.839C193.91 239.233 193.261 239.485 192.58 239.576C191.9 239.666 191.207 239.592 190.562 239.36L182.826 236.572V223.493C182.826 222.832 182.98 222.18 183.276 221.589C183.572 220.998 184.001 220.483 184.531 220.086C185.06 219.688 185.675 219.419 186.327 219.299C186.978 219.179 187.649 219.212 188.286 219.395Z" fill="#A56644"/>
<path d="M186.597 219.127H182.995C181.269 219.127 179.87 220.522 179.87 222.243V222.572C179.87 224.293 181.269 225.688 182.995 225.688H186.597C188.323 225.688 189.722 224.293 189.722 222.572V222.243C189.722 220.522 188.323 219.127 186.597 219.127Z" fill="#A56644"/>
<path d="M184.955 223.721H179.055C176.966 223.721 175.272 225.409 175.272 227.493V227.494C175.272 229.577 176.966 231.266 179.055 231.266H184.955C187.044 231.266 188.737 229.577 188.737 227.494V227.493C188.737 225.409 187.044 223.721 184.955 223.721Z" fill="#A56644"/>
<path fill-rule="evenodd" clip-rule="evenodd" d="M181.082 231.423L184.526 229.516C184.942 229.286 185.398 229.14 185.87 229.086C186.342 229.032 186.819 229.072 187.276 229.202C187.732 229.332 188.159 229.551 188.53 229.846C188.902 230.141 189.211 230.506 189.441 230.92L189.443 230.924C189.907 231.761 190.02 232.747 189.755 233.665C189.491 234.584 188.872 235.361 188.034 235.825L184.588 237.733C184.173 237.962 183.717 238.108 183.245 238.162C182.773 238.216 182.296 238.176 181.839 238.046C181.383 237.915 180.957 237.696 180.585 237.402C180.214 237.107 179.904 236.742 179.674 236.328L179.672 236.324C179.208 235.488 179.096 234.502 179.36 233.583C179.624 232.664 180.243 231.886 181.082 231.423Z" fill="#A56644"/>
<path d="M229.126 150.598C233.694 150.598 237.397 146.905 237.397 142.351C237.397 137.796 233.694 134.104 229.126 134.104C224.558 134.104 220.855 137.796 220.855 142.351C220.855 146.905 224.558 150.598 229.126 150.598Z" fill="#E79B7E"/>
<path d="M291.529 150.598C296.097 150.598 299.8 146.905 299.8 142.351C299.8 137.796 296.097 134.104 291.529 134.104C286.962 134.104 283.259 137.796 283.259 142.351C283.259 146.905 286.962 150.598 291.529 150.598Z" fill="#E79B7E"/>
<path fill-rule="evenodd" clip-rule="evenodd" d="M245.103 223.32H275.928C276.028 223.32 276.124 223.36 276.194 223.43C276.265 223.5 276.305 223.595 276.305 223.695V327.529C276.305 327.629 276.265 327.724 276.195 327.794C276.124 327.865 276.028 327.904 275.928 327.904H245.103C245.003 327.904 244.907 327.865 244.837 327.794C244.766 327.724 244.727 327.629 244.727 327.529V223.696C244.727 223.596 244.766 223.501 244.837 223.43C244.907 223.36 245.003 223.32 245.103 223.32Z" fill="#2B70C9"/>
<path fill-rule="evenodd" clip-rule="evenodd" d="M227.203 193.919C231.789 195.861 233.93 201.143 231.983 205.717L209.078 259.548C208.688 260.462 207.95 261.185 207.026 261.558C206.102 261.93 205.068 261.921 204.15 261.532L194.462 257.43C194.008 257.238 193.596 256.958 193.25 256.607C192.904 256.256 192.631 255.84 192.446 255.384C192.261 254.927 192.168 254.439 192.172 253.947C192.176 253.454 192.278 252.968 192.47 252.514L215.376 198.685C217.322 194.111 222.617 191.977 227.203 193.919Z" fill="#E79B7E"/>
<path fill-rule="evenodd" clip-rule="evenodd" d="M203.01 251.545L208.939 257.061C209.631 257.704 210.188 258.476 210.58 259.334C210.972 260.191 211.191 261.117 211.224 262.059C211.257 263.001 211.104 263.94 210.773 264.823C210.442 265.705 209.941 266.514 209.297 267.203L203.769 273.116C203.125 273.805 202.351 274.361 201.492 274.751C200.632 275.142 199.704 275.36 198.76 275.393C197.815 275.425 196.874 275.272 195.989 274.942C195.104 274.612 194.293 274.111 193.602 273.468L187.673 267.952C186.981 267.31 186.424 266.537 186.032 265.68C185.64 264.822 185.421 263.896 185.388 262.954C185.355 262.012 185.508 261.073 185.839 260.191C186.17 259.308 186.671 258.499 187.315 257.81L192.843 251.898C193.487 251.208 194.261 250.653 195.12 250.262C195.98 249.871 196.908 249.654 197.852 249.621C198.796 249.588 199.738 249.741 200.623 250.072C201.508 250.402 202.319 250.903 203.01 251.545Z" fill="#E79B7E"/>
<path d="M203.254 262.077C203.179 259.923 204.867 258.116 207.026 258.042C209.185 257.967 210.996 259.652 211.072 261.806L211.381 270.579C211.456 272.733 209.768 274.54 207.609 274.614C205.45 274.689 203.639 273.004 203.563 270.85L203.254 262.077Z" fill="#E79B7E"/>
<path fill-rule="evenodd" clip-rule="evenodd" d="M230.685 185.922C235.272 187.864 237.412 193.145 235.466 197.719L212.707 251.204L196.099 244.171L218.857 190.687C220.803 186.113 226.099 183.98 230.685 185.922Z" fill="#1CB0F6"/>
<path d="M219.407 234.495L201.758 227.024C200.229 226.376 198.464 227.087 197.815 228.612L193.116 239.652C192.467 241.177 193.18 242.937 194.709 243.585L212.358 251.056C213.887 251.703 215.653 250.992 216.302 249.467L221.001 238.427C221.65 236.902 220.936 235.142 219.407 234.495Z" fill="#42C2FF"/>
<path d="M245.573 180.961H260.515C284.08 180.961 303.182 200.009 303.182 223.506V317.127C303.182 318.618 302.588 320.048 301.531 321.103C300.473 322.157 299.039 322.75 297.544 322.75H223.487C221.992 322.75 220.558 322.157 219.5 321.103C218.443 320.048 217.849 318.618 217.849 317.127V208.606C217.849 193.339 230.261 180.961 245.573 180.961Z" fill="#1CB0F6"/>
<mask id="mask13_28_13638" style="mask-type:luminance" maskUnits="userSpaceOnUse" x="217" y="180" width="87" height="143">
<path d="M245.573 180.961H260.515C284.08 180.961 303.182 200.009 303.182 223.506V317.127C303.182 318.618 302.588 320.048 301.531 321.103C300.473 322.157 299.039 322.75 297.544 322.75H223.487C221.992 322.75 220.558 322.157 219.5 321.103C218.443 320.048 217.849 318.618 217.849 317.127V208.606C217.849 193.339 230.261 180.961 245.573 180.961Z" fill="#189AE8"/>
</mask>
<g mask="url(#mask13_28_13638)">
<path fill-rule="evenodd" clip-rule="evenodd" d="M264.574 192.449L269.458 217.009C269.608 217.761 269.544 218.541 269.274 219.26C269.003 219.978 268.537 220.607 267.927 221.076L261.998 225.635C261.735 225.837 261.412 225.947 261.08 225.947C260.748 225.947 260.425 225.837 260.162 225.635L254.233 221.076C253.623 220.608 253.157 219.978 252.886 219.26C252.616 218.541 252.552 217.762 252.702 217.009L257.607 192.338C257.09 192.151 256.616 191.862 256.213 191.489C255.809 191.116 255.485 190.667 255.257 190.167L253.715 186.774C253.43 186.148 253.307 185.46 253.357 184.774C253.408 184.087 253.63 183.425 254.004 182.846C254.378 182.268 254.891 181.792 255.497 181.463C256.103 181.134 256.782 180.961 257.472 180.961H265.066C265.756 180.961 266.435 181.133 267.041 181.463C267.647 181.792 268.16 182.268 268.534 182.846C268.908 183.424 269.13 184.087 269.181 184.773C269.231 185.46 269.109 186.148 268.824 186.774L267.281 190.166C267.028 190.723 266.653 191.217 266.185 191.612C265.717 192.007 265.167 192.293 264.574 192.449Z" fill="#189AE8"/>
</g>
<mask id="mask14_28_13638" style="mask-type:luminance" maskUnits="userSpaceOnUse" x="217" y="180" width="87" height="143">
<path d="M245.573 180.961H260.515C284.08 180.961 303.182 200.009 303.182 223.506V317.127C303.182 318.618 302.588 320.048 301.531 321.103C300.473 322.157 299.039 322.75 297.544 322.75H223.487C221.992 322.75 220.558 322.157 219.5 321.103C218.443 320.048 217.849 318.618 217.849 317.127V208.606C217.849 193.339 230.261 180.961 245.573 180.961Z" fill="#2B70C9"/>
</mask>
<g mask="url(#mask14_28_13638)">
<path d="M315.213 242.156H207.698C206.037 242.156 204.691 243.499 204.691 245.155V347.865C204.691 349.521 206.037 350.864 207.698 350.864H315.213C316.874 350.864 318.22 349.521 318.22 347.865V245.155C318.22 243.499 316.874 242.156 315.213 242.156Z" fill="#2B70C9"/>
</g>
<mask id="mask15_28_13638" style="mask-type:luminance" maskUnits="userSpaceOnUse" x="217" y="180" width="87" height="143">
<path d="M245.573 180.961H260.515C284.08 180.961 303.182 200.009 303.182 223.506V317.127C303.182 318.618 302.588 320.048 301.531 321.103C300.473 322.157 299.039 322.75 297.544 322.75H223.487C221.992 322.75 220.558 322.157 219.5 321.103C218.443 320.048 217.849 318.618 217.849 317.127V208.606C217.849 193.339 230.261 180.961 245.573 180.961Z" fill="#3D3D3D"/>
</mask>
<g mask="url(#mask15_28_13638)">
<path d="M315.213 232.785H207.698C206.037 232.785 204.691 234.128 204.691 235.784V239.158C204.691 240.814 206.037 242.157 207.698 242.157H315.213C316.874 242.157 318.22 240.814 318.22 239.158V235.784C318.22 234.128 316.874 232.785 315.213 232.785Z" fill="#3D3D3D"/>
</g>
<mask id="mask16_28_13638" style="mask-type:luminance" maskUnits="userSpaceOnUse" x="217" y="180" width="87" height="143">
<path d="M245.573 180.961H260.515C284.08 180.961 303.182 200.009 303.182 223.506V317.127C303.182 318.618 302.588 320.048 301.531 321.103C300.473 322.157 299.039 322.75 297.544 322.75H223.487C221.992 322.75 220.558 322.157 219.5 321.103C218.443 320.048 217.849 318.618 217.849 317.127V208.606C217.849 193.339 230.261 180.961 245.573 180.961Z" fill="#938579"/>
</mask>
<g mask="url(#mask16_28_13638)">
<path fill-rule="evenodd" clip-rule="evenodd" d="M250.742 232.785H269.82V242.157H250.742V232.785Z" fill="#938579"/>
</g>
<mask id="mask17_28_13638" style="mask-type:luminance" maskUnits="userSpaceOnUse" x="217" y="180" width="87" height="143">
<path d="M245.573 180.961H260.515C284.08 180.961 303.182 200.009 303.182 223.506V317.127C303.182 318.618 302.588 320.048 301.531 321.103C300.473 322.157 299.039 322.75 297.544 322.75H223.487C221.992 322.75 220.558 322.157 219.5 321.103C218.443 320.048 217.849 318.618 217.849 317.127V208.606C217.849 193.339 230.261 180.961 245.573 180.961Z" fill="#1B5EB4"/>
</mask>
<g mask="url(#mask17_28_13638)">
<path d="M263.241 263.382C263.241 262.01 262.126 260.898 260.751 260.898C259.375 260.898 258.26 262.01 258.26 263.382V324.952C258.26 326.324 259.375 327.435 260.751 327.435C262.126 327.435 263.241 326.324 263.241 324.952V263.382Z" fill="#1B5EB4"/>
</g>
<path d="M234.445 138.919C227.04 138.919 221.038 132.993 221.038 125.681C221.038 118.371 227.04 112.443 234.445 112.443C241.848 112.443 247.851 118.371 247.851 125.682C247.851 132.993 241.848 138.921 234.445 138.921V138.919ZM284.189 138.919C276.785 138.919 270.783 132.993 270.783 125.681C270.783 118.371 276.785 112.443 284.19 112.443C291.594 112.443 297.596 118.371 297.596 125.682C297.596 132.993 291.594 138.921 284.19 138.921L284.189 138.919Z" fill="#807A7A"/>
<mask id="mask18_28_13638" style="mask-type:luminance" maskUnits="userSpaceOnUse" x="221" y="112" width="77" height="27">
<path d="M234.445 138.919C227.04 138.919 221.038 132.993 221.038 125.681C221.038 118.371 227.04 112.443 234.445 112.443C241.848 112.443 247.851 118.371 247.851 125.682C247.851 132.993 241.848 138.921 234.445 138.921V138.919ZM284.189 138.919C276.785 138.919 270.783 132.993 270.783 125.681C270.783 118.371 276.785 112.443 284.19 112.443C291.594 112.443 297.596 118.371 297.596 125.682C297.596 132.993 291.594 138.921 284.19 138.921L284.189 138.919Z" fill="#3D3D3D"/>
</mask>
<g mask="url(#mask18_28_13638)">
<path d="M309.199 100.742H214.09C212.429 100.742 211.083 102.085 211.083 103.741V123.608C211.083 125.264 212.429 126.607 214.09 126.607H309.199C310.86 126.607 312.206 125.264 312.206 123.608V103.741C312.206 102.085 310.86 100.742 309.199 100.742Z" fill="#3D3D3D"/>
</g>
<path d="M245.18 121.849C252.389 121.849 258.233 116.078 258.233 108.959C258.233 101.84 252.389 96.0684 245.18 96.0684C237.97 96.0684 232.126 101.84 232.126 108.959C232.126 116.078 237.97 121.849 245.18 121.849Z" fill="#3D3D3D"/>
<path d="M260.141 103.365C274.57 103.365 286.267 115.029 286.267 129.417V184.333H234.014V129.417C234.014 115.029 245.711 103.365 260.141 103.365V103.365Z" fill="#E79B7E"/>
<path d="M243.599 130.917C243.599 127.294 246.545 124.357 250.178 124.357C253.811 124.357 256.757 127.294 256.757 130.917V136.166C256.757 139.789 253.811 142.726 250.178 142.726C246.545 142.726 243.599 139.789 243.599 136.166V130.917Z" fill="white"/>
<path fill-rule="evenodd" clip-rule="evenodd" d="M251.4 128.105C249.635 128.105 248.204 129.546 248.204 131.322V135.384C248.204 137.161 249.635 138.601 251.4 138.601C253.164 138.601 254.595 137.161 254.595 135.384V131.322C254.595 129.546 253.164 128.105 251.4 128.105Z" fill="#4B4B4B"/>
<path d="M276.68 130.917C276.68 127.294 273.735 124.357 270.102 124.357C266.468 124.357 263.523 127.294 263.523 130.917V136.166C263.523 139.789 266.468 142.726 270.102 142.726C273.735 142.726 276.68 139.789 276.68 136.166V130.917Z" fill="white"/>
<path fill-rule="evenodd" clip-rule="evenodd" d="M268.88 128.105C270.644 128.105 272.075 129.546 272.075 131.322V135.384C272.075 137.161 270.645 138.601 268.88 138.601C267.115 138.601 265.685 137.161 265.685 135.384V131.322C265.685 129.546 267.115 128.105 268.88 128.105Z" fill="#4B4B4B"/>
<path d="M242.94 138.264C248.097 138.461 252.134 139.133 255.05 140.279" stroke="#E79B7E" stroke-width="10.989" stroke-linecap="round" stroke-linejoin="round"/>
<path fill-rule="evenodd" clip-rule="evenodd" d="M260.14 123.607C260.788 123.608 261.41 123.864 261.868 124.321C262.326 124.778 262.584 125.398 262.584 126.044V142.913C262.589 143.237 262.53 143.558 262.41 143.859C262.29 144.159 262.111 144.433 261.883 144.664C261.656 144.895 261.384 145.078 261.085 145.203C260.786 145.328 260.465 145.393 260.14 145.393C259.816 145.393 259.494 145.328 259.195 145.203C258.896 145.078 258.624 144.895 258.397 144.664C258.17 144.433 257.99 144.159 257.87 143.859C257.75 143.558 257.691 143.237 257.697 142.913V126.044C257.697 125.398 257.954 124.778 258.412 124.321C258.871 123.864 259.492 123.607 260.14 123.607Z" fill="#C75E49"/>
<path d="M277.579 139.539C272.526 140.612 268.718 142.106 266.154 144.022" stroke="#E79B7E" stroke-width="5.994"/>
<path d="M250.366 145.35L250.661 145.722C254.812 150.945 262.424 151.823 267.662 147.684C268.514 147.01 269.272 146.225 269.914 145.35" stroke="#D87E64" stroke-width="3.746" stroke-linecap="round" stroke-linejoin="round"/>
<path d="M285.217 201.079C281.948 197.329 282.346 191.646 286.107 188.387C289.867 185.127 295.566 185.524 298.835 189.274L318.442 211.765C321.711 215.515 321.313 221.198 317.552 224.457C313.792 227.717 308.093 227.32 304.824 223.57L285.217 201.079Z" fill="#1CB0F6"/>
<path fill-rule="evenodd" clip-rule="evenodd" d="M231.46 179.837H291.45C292.116 179.837 292.657 180.375 292.657 181.04V185.719C292.657 186.219 292.348 186.666 291.879 186.844L276.806 192.564L260.955 183.96L245.604 192.564L231.019 186.849C230.794 186.76 230.6 186.606 230.463 186.406C230.327 186.207 230.254 185.971 230.254 185.729V181.04C230.254 180.375 230.794 179.837 231.46 179.837Z" fill="#42C2FF"/>
<path d="M268.17 121.282C278.107 121.282 286.163 113.328 286.163 103.515C286.163 93.7027 278.107 85.748 268.17 85.748C258.233 85.748 250.178 93.7027 250.178 103.515C250.178 113.328 258.233 121.282 268.17 121.282Z" fill="#3D3D3D"/>
<path d="M296.51 322.094H224.521C221.718 322.094 219.446 324.359 219.446 327.154C219.446 329.949 221.718 332.215 224.521 332.215H296.51C299.313 332.215 301.585 329.949 301.585 327.154C301.585 324.359 299.313 322.094 296.51 322.094Z" fill="#4B4B4B"/>
<path fill-rule="evenodd" clip-rule="evenodd" d="M325.47 184.706L320.385 188.396C319.621 188.951 318.973 189.65 318.479 190.455C317.985 191.259 317.654 192.152 317.505 193.083C317.357 194.015 317.394 194.966 317.613 195.882C317.833 196.799 318.232 197.663 318.786 198.425L322.474 203.495C323.029 204.258 323.728 204.903 324.533 205.395C325.338 205.887 326.232 206.216 327.164 206.362C328.097 206.509 329.05 206.471 329.968 206.25C330.887 206.029 331.753 205.63 332.517 205.075L337.602 201.385C338.366 200.831 339.014 200.131 339.508 199.327C340.002 198.523 340.333 197.63 340.482 196.698C340.63 195.767 340.593 194.816 340.374 193.899C340.154 192.983 339.755 192.119 339.201 191.357L335.513 186.286C334.958 185.524 334.259 184.878 333.454 184.386C332.649 183.895 331.755 183.566 330.822 183.419C329.89 183.272 328.937 183.31 328.019 183.531C327.1 183.752 326.234 184.151 325.47 184.706Z" fill="#E79B7E"/>
<path d="M324.832 183.32C324.872 181.164 323.155 179.388 320.998 179.352C318.841 179.316 317.061 181.034 317.021 183.19L316.861 191.969C316.822 194.125 318.538 195.901 320.695 195.937C322.852 195.973 324.633 194.255 324.672 192.099L324.832 183.32Z" fill="#E79B7E"/>
<path d="M332.302 177.563C333.831 176.039 336.308 176.037 337.834 177.559C339.36 179.081 339.358 181.55 337.829 183.075L331.602 189.285C330.073 190.809 327.596 190.811 326.07 189.29C324.544 187.768 324.546 185.298 326.075 183.773L332.302 177.563Z" fill="#E79B7E"/>
<path d="M339.812 182.718C341.626 181.544 344.048 182.055 345.224 183.86C346.399 185.665 345.882 188.081 344.069 189.256L336.683 194.04C334.87 195.214 332.447 194.703 331.272 192.898C330.097 191.093 330.614 188.677 332.427 187.502L339.812 182.718Z" fill="#E79B7E"/>
<path d="M342.981 190.73C344.971 189.887 347.267 190.81 348.11 192.791C348.953 194.773 348.023 197.062 346.033 197.905L337.927 201.339C335.937 202.182 333.64 201.259 332.797 199.278C331.955 197.297 332.885 195.007 334.875 194.164L342.981 190.73Z" fill="#E79B7E"/>
<path d="M311.754 202.993C314.47 198.824 320.057 197.636 324.233 200.339C328.409 203.043 329.592 208.614 326.876 212.783L321.857 220.488C319.141 224.657 313.554 225.845 309.378 223.141C305.202 220.438 304.019 214.867 306.734 210.698L311.754 202.993Z" fill="#1CB0F6"/>
<path d="M317.24 192.799L333.492 202.922C334.9 203.799 335.327 205.649 334.446 207.055L328.065 217.234C327.184 218.639 325.328 219.068 323.92 218.191L307.669 208.068C306.261 207.191 305.834 205.341 306.715 203.935L313.095 193.756C313.977 192.35 315.832 191.922 317.24 192.799Z" fill="#42C2FF"/>
<path fill-rule="evenodd" clip-rule="evenodd" d="M608.664 225.148L608.709 225.169C614.034 227.521 616.429 233.737 614.062 239.044C614.06 239.047 614.06 239.049 614.051 239.048L596.813 277.608C594.435 282.906 588.205 285.29 582.883 282.938L582.838 282.918C577.513 280.565 575.118 274.349 577.486 269.043C577.486 269.04 577.488 269.038 577.496 269.039L594.735 230.479C597.113 225.181 603.342 222.796 608.664 225.148Z" fill="#FFB5A1"/>
<path fill-rule="evenodd" clip-rule="evenodd" d="M582.287 269.848L592.097 270.877C592.834 270.954 593.549 271.175 594.2 271.528C594.852 271.881 595.427 272.358 595.893 272.933C596.359 273.507 596.707 274.168 596.917 274.877C597.127 275.586 597.194 276.329 597.116 277.064L596.12 286.38C595.962 287.862 595.221 289.22 594.059 290.157C592.897 291.094 591.41 291.532 589.924 291.377L580.114 290.35C579.377 290.272 578.662 290.051 578.01 289.698C577.359 289.345 576.784 288.868 576.318 288.293C575.852 287.719 575.504 287.058 575.294 286.349C575.084 285.64 575.017 284.897 575.095 284.162L576.091 274.845C576.249 273.364 576.991 272.006 578.152 271.069C579.314 270.132 580.801 269.694 582.287 269.849L582.287 269.848Z" fill="#FFB5A1"/>
<path fill-rule="evenodd" clip-rule="evenodd" d="M571.528 275.993L579.338 266.026C579.679 265.59 580.104 265.226 580.586 264.954C581.069 264.682 581.601 264.508 582.152 264.441C582.702 264.375 583.261 264.418 583.795 264.567C584.329 264.716 584.828 264.969 585.264 265.311C586.146 266.003 586.717 267.016 586.852 268.127C586.987 269.239 586.675 270.358 585.984 271.241L578.175 281.209C577.833 281.645 577.409 282.009 576.926 282.281C576.443 282.553 575.911 282.727 575.361 282.793C574.81 282.86 574.252 282.817 573.718 282.668C573.184 282.519 572.685 282.266 572.249 281.924C571.366 281.232 570.795 280.219 570.66 279.107C570.525 277.995 570.837 276.876 571.528 275.993ZM647.454 222.302L647.419 222.337C643.293 226.437 643.292 233.095 647.409 237.203C647.412 237.205 647.414 237.208 647.422 237.203L664.414 254.124C668.539 258.219 675.212 258.218 679.335 254.121L679.37 254.085C683.496 249.986 683.497 243.328 679.38 239.22C679.377 239.217 679.375 239.215 679.367 239.22L662.376 222.299C658.25 218.204 651.578 218.205 647.454 222.302Z" fill="#FFB5A1"/>
<path fill-rule="evenodd" clip-rule="evenodd" d="M679.318 220.175L694.222 227.102L682.377 252.38C679.904 257.635 673.633 259.908 668.353 257.466L668.309 257.445C663.025 255 660.74 248.743 663.201 243.479C663.202 243.476 663.204 243.473 663.214 243.474L673.07 222.44C673.599 221.316 674.554 220.446 675.725 220.021C676.896 219.597 678.188 219.652 679.318 220.175Z" fill="#FFB5A1"/>
<path fill-rule="evenodd" clip-rule="evenodd" d="M669.791 216.945C670.161 216.723 670.57 216.576 670.997 216.513C671.423 216.449 671.858 216.47 672.277 216.574C672.695 216.678 673.089 216.863 673.435 217.119C673.782 217.375 674.074 217.696 674.296 218.065L678.168 224.501C678.616 225.246 678.749 226.138 678.538 226.981C678.327 227.824 677.789 228.549 677.043 228.997C676.673 229.219 676.263 229.365 675.837 229.429C675.41 229.493 674.975 229.472 674.557 229.368C674.139 229.264 673.745 229.078 673.398 228.823C673.052 228.567 672.759 228.245 672.537 227.876L668.666 221.441C668.217 220.696 668.084 219.804 668.295 218.961C668.506 218.117 669.044 217.392 669.791 216.945Z" fill="#FFB5A1"/>
<path fill-rule="evenodd" clip-rule="evenodd" d="M684.651 209.957C685.066 210.159 685.437 210.44 685.743 210.785C686.049 211.13 686.284 211.532 686.434 211.968C686.585 212.403 686.647 212.864 686.619 213.324C686.59 213.784 686.471 214.234 686.269 214.647L682.141 223.075C681.731 223.912 681.004 224.552 680.122 224.855C679.239 225.158 678.271 225.099 677.432 224.691C677.017 224.489 676.646 224.207 676.339 223.862C676.033 223.517 675.799 223.115 675.648 222.68C675.498 222.244 675.435 221.783 675.464 221.323C675.492 220.864 675.611 220.414 675.814 220L679.942 211.572C680.352 210.735 681.078 210.095 681.961 209.793C682.844 209.49 683.811 209.549 684.651 209.957Z" fill="#FFB5A1"/>
<path fill-rule="evenodd" clip-rule="evenodd" d="M693.023 212.968C693.396 213.238 693.713 213.58 693.954 213.973C694.196 214.365 694.357 214.802 694.429 215.257C694.502 215.712 694.483 216.176 694.375 216.624C694.267 217.072 694.072 217.494 693.8 217.867L688.543 225.073C687.994 225.826 687.167 226.331 686.245 226.476C685.322 226.621 684.38 226.396 683.625 225.848C683.251 225.578 682.934 225.236 682.693 224.843C682.451 224.45 682.29 224.014 682.218 223.559C682.146 223.104 682.164 222.639 682.272 222.191C682.38 221.743 682.576 221.321 682.848 220.948L688.105 213.743C688.654 212.99 689.481 212.486 690.403 212.34C691.325 212.195 692.267 212.421 693.023 212.968Z" fill="#FFB5A1"/>
<path fill-rule="evenodd" clip-rule="evenodd" d="M698.47 220.014C698.773 220.362 699.004 220.766 699.151 221.203C699.298 221.64 699.356 222.101 699.324 222.561C699.292 223.02 699.169 223.469 698.962 223.881C698.756 224.293 698.47 224.661 698.121 224.963L691.373 230.805C690.668 231.415 689.749 231.722 688.817 231.657C687.886 231.591 687.019 231.16 686.406 230.457C686.103 230.11 685.871 229.706 685.725 229.269C685.578 228.832 685.519 228.371 685.552 227.911C685.584 227.451 685.707 227.003 685.913 226.591C686.12 226.178 686.405 225.811 686.754 225.509L693.502 219.667C694.208 219.056 695.127 218.75 696.058 218.815C696.99 218.88 697.857 219.312 698.47 220.014Z" fill="#FFB5A1"/>
<path d="M630.855 142.303C648.281 142.303 662.406 156.389 662.406 173.763V194.764C662.406 212.14 648.281 226.225 630.856 226.225C613.431 226.225 599.305 212.14 599.305 194.764V173.763C599.305 156.389 613.431 142.303 630.855 142.303Z" fill="#E5A259"/>
<path d="M658.042 188.113C662.12 188.113 665.426 184.82 665.426 180.758C665.426 176.696 662.12 173.402 658.042 173.402C653.964 173.402 650.658 176.696 650.658 180.758C650.658 184.82 653.964 188.113 658.042 188.113Z" fill="#FFB5A1"/>
<path d="M602.996 188.113C607.074 188.113 610.38 184.82 610.38 180.758C610.38 176.696 607.074 173.402 602.996 173.402C598.918 173.402 595.612 176.696 595.612 180.758C595.612 184.82 598.918 188.113 602.996 188.113Z" fill="#FFB5A1"/>
<path d="M660.256 192.121H600.112C593.178 192.121 587.557 197.726 587.557 204.641V204.678C587.557 211.592 593.178 217.197 600.112 217.197H660.256C667.19 217.197 672.811 211.592 672.811 204.678V204.641C672.811 197.726 667.19 192.121 660.256 192.121Z" fill="#E5A259"/>
<path fill-rule="evenodd" clip-rule="evenodd" d="M595.621 229.264L588.819 243.793C585.529 250.821 588.576 259.178 595.625 262.458L595.634 262.463C602.692 265.741 611.078 262.697 614.372 255.662L621.173 241.134C624.463 234.106 621.416 225.749 614.368 222.468C614.365 222.467 614.362 222.465 614.358 222.463C607.301 219.185 598.914 222.229 595.621 229.264ZM665.39 229.264L672.191 243.793C675.482 250.821 672.435 259.178 665.387 262.458L665.377 262.463C658.319 265.741 649.932 262.697 646.639 255.662L639.838 241.134C636.548 234.106 639.595 225.749 646.642 222.468L646.652 222.463C653.71 219.185 662.097 222.229 665.39 229.264Z" fill="#FF7878"/>
<path fill-rule="evenodd" clip-rule="evenodd" d="M630.421 207.836H630.617C652.252 207.836 669.79 225.325 669.79 246.898V255.038C669.79 276.611 652.252 294.099 630.617 294.099H630.421C608.787 294.099 591.248 276.611 591.248 255.038V246.898C591.248 225.325 608.787 207.836 630.421 207.836Z" fill="#FF7878"/>
<path fill-rule="evenodd" clip-rule="evenodd" d="M629.452 147.986H631.588C645.086 147.986 656.029 158.898 656.029 172.358V217.197H605.011V172.358C605.011 158.898 615.953 147.986 629.452 147.986Z" fill="#FFB5A1"/>
<path d="M617.214 192.969H637.514C638.138 192.969 638.643 193.472 638.643 194.093V199.763C638.643 203.515 635.592 206.557 631.829 206.557H622.9C619.137 206.557 616.087 203.515 616.087 199.763V194.093C616.087 193.472 616.591 192.969 617.214 192.969Z" fill="#932626"/>
<mask id="mask19_28_13638" style="mask-type:luminance" maskUnits="userSpaceOnUse" x="616" y="192" width="23" height="15">
<path d="M617.214 192.969H637.514C638.138 192.969 638.643 193.472 638.643 194.093V199.763C638.643 203.515 635.592 206.557 631.829 206.557H622.9C619.137 206.557 616.087 203.515 616.087 199.763V194.093C616.087 193.472 616.591 192.969 617.214 192.969Z" fill="white"/>
</mask>
<g mask="url(#mask19_28_13638)">
<path d="M634.131 188.439H612.139C611.516 188.439 611.012 188.943 611.012 189.564V196.94C611.012 197.561 611.516 198.065 612.139 198.065H634.131C634.754 198.065 635.258 197.561 635.258 196.94V189.564C635.258 188.943 634.754 188.439 634.131 188.439Z" fill="white"/>
</g>
<mask id="mask20_28_13638" style="mask-type:luminance" maskUnits="userSpaceOnUse" x="616" y="192" width="23" height="15">
<path d="M617.214 192.969H637.514C638.138 192.969 638.643 193.472 638.643 194.093V199.763C638.643 203.515 635.592 206.557 631.829 206.557H622.9C619.137 206.557 616.087 203.515 616.087 199.763V194.093C616.087 193.472 616.591 192.969 617.214 192.969Z" fill="#EA2B2B"/>
</mask>
<g mask="url(#mask20_28_13638)">
<path d="M620.034 200.895H620.033C615.362 200.895 611.575 204.671 611.575 209.329V209.446C611.575 214.104 615.362 217.88 620.033 217.88H620.034C624.705 217.88 628.492 214.104 628.492 209.446V209.329C628.492 204.671 624.705 200.895 620.034 200.895Z" fill="#EA2B2B"/>
</g>
<path d="M641.043 164.705H641.006C636.845 164.705 633.473 168.068 633.473 172.217V178.257C633.473 182.406 636.845 185.769 641.006 185.769H641.043C645.204 185.769 648.576 182.406 648.576 178.257V172.217C648.576 168.068 645.204 164.705 641.043 164.705Z" fill="white"/>
<path d="M619.996 164.705H620.033C624.194 164.705 627.566 168.068 627.566 172.217V178.257C627.566 182.406 624.194 185.769 620.033 185.769H619.996C615.835 185.769 612.463 182.406 612.463 178.257V172.217C612.463 168.068 615.835 164.705 619.996 164.705Z" fill="white"/>
<path d="M621.348 170.055H621.364C623.121 170.055 624.545 171.475 624.545 173.226V177.248C624.545 179 623.121 180.42 621.364 180.42H621.348C619.592 180.42 618.168 179 618.168 177.248V173.226C618.168 171.475 619.592 170.055 621.348 170.055Z" fill="#4B4B4B"/>
<path d="M639.34 170.055H639.356C641.112 170.055 642.536 171.475 642.536 173.226V177.248C642.536 179 641.112 180.42 639.356 180.42H639.34C637.583 180.42 636.159 179 636.159 177.248V173.226C636.159 171.475 637.583 170.055 639.34 170.055Z" fill="#4B4B4B"/>
<path d="M642.603 167.714C651.686 167.714 659.049 160.379 659.049 151.33C659.049 142.282 651.686 134.947 642.603 134.947C633.52 134.947 626.156 142.282 626.156 151.33C626.156 160.379 633.52 167.714 642.603 167.714Z" fill="#E5A259"/>
<path fill-rule="evenodd" clip-rule="evenodd" d="M591.918 259.326H669.12C669.297 259.326 669.468 259.397 669.593 259.522C669.719 259.647 669.79 259.817 669.79 259.994V317.843C669.79 318.817 669.402 319.751 668.711 320.44C668.02 321.129 667.084 321.516 666.107 321.516H594.931C593.954 321.516 593.017 321.129 592.327 320.44C591.636 319.751 591.248 318.817 591.248 317.843V259.994C591.248 259.817 591.319 259.647 591.444 259.522C591.57 259.397 591.74 259.326 591.918 259.326Z" fill="#E85A5A"/>
<path d="M611.656 182.426C617.907 182.872 622.494 184.655 625.417 187.776" stroke="#FFB5A1" stroke-width="5.338" stroke-linecap="round" stroke-linejoin="round"/>
<path fill-rule="evenodd" clip-rule="evenodd" d="M630.687 168.383C630.973 168.382 631.257 168.438 631.522 168.547C631.787 168.657 632.028 168.817 632.231 169.019C632.433 169.221 632.594 169.461 632.704 169.725C632.813 169.99 632.869 170.273 632.869 170.558V188.006C632.869 188.292 632.813 188.575 632.704 188.839C632.594 189.104 632.434 189.344 632.231 189.546C632.028 189.748 631.787 189.908 631.522 190.018C631.258 190.127 630.973 190.183 630.687 190.182C630.4 190.183 630.116 190.127 629.851 190.018C629.586 189.908 629.345 189.748 629.143 189.546C628.94 189.344 628.779 189.104 628.67 188.839C628.56 188.575 628.504 188.292 628.505 188.006V170.558C628.504 170.273 628.561 169.989 628.67 169.725C628.78 169.461 628.94 169.221 629.143 169.019C629.346 168.817 629.587 168.656 629.852 168.547C630.117 168.438 630.4 168.382 630.687 168.383Z" fill="#E47A65"/>
<path d="M631.368 183.695H630.007C627.88 183.695 626.156 185.414 626.156 187.535V187.546C626.156 189.667 627.88 191.386 630.007 191.386H631.368C633.495 191.386 635.219 189.667 635.219 187.546V187.535C635.219 185.414 633.495 183.695 631.368 183.695Z" fill="#E47A65"/>
<path fill-rule="evenodd" clip-rule="evenodd" d="M630.184 217.198H656.364L649.131 224.761C644.941 229.143 637.983 229.308 633.59 225.13C632.513 224.106 631.657 222.875 631.071 221.512C630.485 220.148 630.184 218.681 630.184 217.198Z" fill="white"/>
<path fill-rule="evenodd" clip-rule="evenodd" d="M631.191 217.197H605.011L612.145 224.66C616.355 229.064 623.349 229.231 627.765 225.032C629.882 223.02 631.113 220.252 631.187 217.335L631.191 217.197Z" fill="white"/>
<path d="M630.52 245.284C632.559 245.284 634.212 243.637 634.212 241.606C634.212 239.575 632.559 237.928 630.52 237.928C628.48 237.928 626.827 239.575 626.827 241.606C626.827 243.637 628.48 245.284 630.52 245.284Z" fill="white"/>
<path d="M647.987 321.516H612.718C609.759 321.516 607.36 323.907 607.36 326.858V326.873C607.36 329.823 609.759 332.215 612.718 332.215H647.987C650.945 332.215 653.344 329.823 653.344 326.873V326.858C653.344 323.907 650.945 321.516 647.987 321.516Z" fill="#FF4B4B"/>
<path fill-rule="evenodd" clip-rule="evenodd" d="M459.647 232.842H485.138V333.453H459.647V232.842Z" fill="#3D3D3D"/>
<path d="M499.235 230.967H445.549C442.954 230.967 440.851 233.064 440.851 235.652V270.665C440.851 273.252 442.954 275.35 445.549 275.35H499.235C501.83 275.35 503.934 273.252 503.934 270.665V235.652C503.934 233.064 501.83 230.967 499.235 230.967Z" fill="#58A700"/>
<path fill-rule="evenodd" clip-rule="evenodd" d="M405.467 245.321L438.624 188.018C438.932 187.484 439.342 187.017 439.831 186.642C440.321 186.267 440.879 185.992 441.475 185.832C442.071 185.673 442.692 185.632 443.304 185.712C443.916 185.792 444.506 185.991 445.04 186.299C445.04 186.299 445.042 186.3 445.041 186.303L464.177 197.327C465.255 197.95 466.042 198.974 466.364 200.174C466.687 201.374 466.519 202.652 465.898 203.729L432.741 261.034C432.433 261.568 432.023 262.035 431.533 262.41C431.044 262.785 430.486 263.06 429.89 263.22C429.294 263.38 428.672 263.421 428.061 263.34C427.449 263.26 426.859 263.061 426.325 262.753C426.325 262.753 426.323 262.752 426.324 262.749L407.187 251.725C406.108 251.102 405.322 250.078 404.999 248.878C404.677 247.678 404.845 246.399 405.466 245.322L405.467 245.321Z" fill="#78C800"/>
<path d="M444.645 145.515C448.373 145.515 451.395 142.499 451.395 138.78C451.395 135.06 448.373 132.045 444.645 132.045C440.917 132.045 437.895 135.06 437.895 138.78C437.895 142.499 440.917 145.515 444.645 145.515Z" fill="#A56644"/>
<path d="M496.947 145.515C500.675 145.515 503.697 142.499 503.697 138.78C503.697 135.06 500.675 132.045 496.947 132.045C493.219 132.045 490.196 135.06 490.196 138.78C490.196 142.499 493.219 145.515 496.947 145.515Z" fill="#A56644"/>
<path fill-rule="evenodd" clip-rule="evenodd" d="M534.072 256.068L528.904 247.137C528.5 246.438 527.834 245.928 527.052 245.719C526.271 245.51 525.438 245.619 524.737 246.022L524.736 246.023C524.035 246.427 523.523 247.092 523.314 247.872C523.104 248.652 523.214 249.483 523.619 250.182L528.787 259.113C529.191 259.812 529.857 260.322 530.638 260.531C531.42 260.74 532.252 260.631 532.953 260.228L532.955 260.226C533.656 259.822 534.167 259.157 534.377 258.378C534.586 257.598 534.477 256.767 534.072 256.068Z" fill="#A56644"/>
<path fill-rule="evenodd" clip-rule="evenodd" d="M529.843 258.88L524.675 249.949C524.271 249.251 523.605 248.741 522.823 248.532C522.042 248.323 521.209 248.432 520.508 248.835L520.507 248.836C519.806 249.239 519.294 249.904 519.085 250.684C518.875 251.464 518.985 252.295 519.389 252.995L524.558 261.926C524.758 262.272 525.025 262.575 525.343 262.818C525.66 263.061 526.023 263.24 526.41 263.343C526.797 263.447 527.201 263.473 527.598 263.421C527.996 263.368 528.379 263.239 528.726 263.039C529.427 262.635 529.938 261.97 530.148 261.19C530.357 260.41 530.248 259.579 529.843 258.88H529.843Z" fill="#A56644"/>
<path fill-rule="evenodd" clip-rule="evenodd" d="M525.614 261.222L520.447 252.291C520.042 251.592 519.376 251.082 518.595 250.873C517.813 250.664 516.981 250.773 516.28 251.177L516.278 251.177C515.577 251.581 515.066 252.246 514.856 253.026C514.646 253.806 514.756 254.637 515.161 255.337L520.329 264.267C520.734 264.966 521.4 265.476 522.181 265.685C522.962 265.894 523.795 265.784 524.496 265.381H524.497C525.198 264.977 525.71 264.312 525.919 263.532C526.129 262.752 526.019 261.921 525.614 261.222Z" fill="#A56644"/>
<path fill-rule="evenodd" clip-rule="evenodd" d="M533.274 250.017L529.757 243.929C529.541 243.555 529.254 243.227 528.911 242.965C528.569 242.702 528.177 242.509 527.76 242.397C527.342 242.286 526.907 242.257 526.478 242.313C526.049 242.369 525.636 242.509 525.262 242.725L513.066 249.747C512.311 250.182 511.76 250.898 511.534 251.737C511.308 252.577 511.426 253.471 511.861 254.225L515.377 260.314C515.593 260.688 515.881 261.015 516.223 261.278C516.566 261.54 516.957 261.733 517.375 261.845C517.793 261.957 518.228 261.985 518.657 261.929C519.085 261.873 519.499 261.733 519.873 261.517L532.069 254.495C532.824 254.06 533.375 253.344 533.601 252.505C533.827 251.665 533.709 250.771 533.274 250.017Z" fill="#58A700"/>
<path fill-rule="evenodd" clip-rule="evenodd" d="M533.445 239.085L503.626 187.549C503.318 187.015 502.908 186.548 502.418 186.173C501.929 185.798 501.371 185.523 500.775 185.363C500.179 185.204 499.558 185.163 498.946 185.243C498.334 185.323 497.745 185.522 497.21 185.83C497.21 185.83 497.209 185.83 497.209 185.833L478.073 196.858C476.995 197.48 476.209 198.504 475.886 199.704C475.564 200.904 475.731 202.183 476.353 203.259L506.171 254.797C507.983 257.937 512.006 259.013 515.154 257.203C515.154 257.203 515.156 257.202 515.155 257.198L531.036 248.049C532.545 247.177 533.646 245.744 534.098 244.064C534.549 242.384 534.314 240.593 533.444 239.086L533.445 239.085Z" fill="#78C800"/>
<path fill-rule="evenodd" clip-rule="evenodd" d="M453.565 89.9648H488.026C489.896 89.9648 491.689 90.7053 493.01 92.0234C494.332 93.3415 495.075 95.1292 495.075 96.9932V117.269C495.075 117.864 494.838 118.435 494.416 118.856C493.994 119.277 493.421 119.513 492.825 119.513H448.767C448.17 119.513 447.598 119.277 447.176 118.856C446.754 118.435 446.517 117.864 446.517 117.269V96.9932C446.517 96.0702 446.699 95.1562 447.053 94.3034C447.407 93.4506 447.927 92.6758 448.581 92.0231C449.236 91.3705 450.013 90.8528 450.868 90.4996C451.723 90.1465 452.639 89.9647 453.565 89.9648Z" fill="#3D3D3D"/>
<path fill-rule="evenodd" clip-rule="evenodd" d="M468.683 176.914H473.48C494.19 176.914 510.979 193.655 510.979 214.306V264.083C510.979 265.174 510.544 266.22 509.771 266.991C508.997 267.762 507.948 268.196 506.854 268.196H435.309C434.215 268.196 433.166 267.762 432.393 266.991C431.619 266.22 431.185 265.174 431.185 264.083V214.306C431.185 193.655 447.973 176.914 468.683 176.914Z" fill="#78C800"/>
<path fill-rule="evenodd" clip-rule="evenodd" d="M446.517 114.73H495.075V162.524H446.517V114.73Z" fill="#A56644"/>
<path d="M480.152 125.127H480.096C476.135 125.127 472.924 128.329 472.924 132.278V137.843C472.924 141.792 476.135 144.994 480.096 144.994H480.152C484.113 144.994 487.324 141.792 487.324 137.843V132.278C487.324 128.329 484.113 125.127 480.152 125.127Z" fill="white"/>
<path d="M460.916 125.127H460.973C464.934 125.127 468.145 128.329 468.145 132.278V137.843C468.145 141.792 464.934 144.994 460.973 144.994H460.916C456.955 144.994 453.744 141.792 453.744 137.843V132.278C453.744 128.329 456.955 125.127 460.916 125.127Z" fill="white"/>
<path d="M462.212 130.172H462.237C463.909 130.172 465.265 131.524 465.265 133.191V136.929C465.265 138.596 463.909 139.948 462.237 139.948H462.212C460.54 139.948 459.184 138.596 459.184 136.929V133.191C459.184 131.524 460.54 130.172 462.212 130.172Z" fill="#4B4B4B"/>
<path d="M478.512 130.172H478.537C480.209 130.172 481.564 131.524 481.564 133.191V136.929C481.564 138.596 480.209 139.948 478.537 139.948H478.512C476.84 139.948 475.484 138.596 475.484 136.929V133.191C475.484 131.524 476.84 130.172 478.512 130.172Z" fill="#4B4B4B"/>
<path fill-rule="evenodd" clip-rule="evenodd" d="M470.795 126.992C471.115 126.992 471.432 127.055 471.727 127.177C472.023 127.299 472.292 127.478 472.518 127.704C472.744 127.929 472.924 128.197 473.046 128.492C473.169 128.787 473.232 129.103 473.232 129.422V149.996C473.232 150.641 472.975 151.259 472.518 151.714C472.061 152.17 471.441 152.426 470.795 152.426C470.149 152.426 469.529 152.17 469.072 151.714C468.615 151.259 468.358 150.641 468.358 149.996V129.422C468.358 129.103 468.421 128.787 468.544 128.492C468.666 128.198 468.845 127.93 469.072 127.704C469.298 127.478 469.567 127.299 469.862 127.177C470.158 127.055 470.475 126.992 470.795 126.992Z" fill="#8D4D2B"/>
<path d="M471.543 145.693H470.047C467.665 145.693 465.734 147.619 465.734 149.994V149.995C465.734 152.37 467.665 154.295 470.047 154.295H471.543C473.925 154.295 475.856 152.37 475.856 149.995V149.994C475.856 147.619 473.925 145.693 471.543 145.693Z" fill="#8D4D2B"/>
<path d="M488.95 173.943H470.113C468.664 173.943 467.488 175.115 467.488 176.561V224.063C467.488 225.508 468.664 226.68 470.113 226.68H488.95C490.399 226.68 491.575 225.508 491.575 224.063V176.561C491.575 175.115 490.399 173.943 488.95 173.943Z" fill="#ADE756"/>
<path d="M499.101 158.727H442.489C440.004 158.727 437.989 160.736 437.989 163.214V182.822C437.989 185.3 440.004 187.309 442.489 187.309H499.101C501.587 187.309 503.601 185.3 503.601 182.822V163.214C503.601 160.736 501.587 158.727 499.101 158.727Z" fill="#ADE756"/>
<path d="M489.953 324.463H455.399C452.993 324.463 451.042 326.408 451.042 328.807C451.042 331.206 452.993 333.151 455.399 333.151H489.953C492.359 333.151 494.31 331.206 494.31 328.807C494.31 326.408 492.359 324.463 489.953 324.463Z" fill="#FF4B4B"/>
<path d="M471.631 231.121V238.371M479.149 231.121V238.371M486.668 231.121V238.371" stroke="#ADE756" stroke-width="6.868" stroke-linecap="round"/>
<path d="M452.287 88.5586V95.8684L463.643 89.9643" stroke="#3D3D3D" stroke-width="14.984" stroke-linecap="round"/>
<path fill-rule="evenodd" clip-rule="evenodd" d="M406.844 130.262C425.227 130.262 440.389 144.624 441.331 162.931L441.761 171.307L443.63 189.725C443.673 190.144 443.627 190.567 443.495 190.967C443.363 191.367 443.149 191.735 442.866 192.047C442.583 192.359 442.237 192.609 441.851 192.78C441.465 192.951 441.048 193.039 440.626 193.039H373.062C372.64 193.039 372.222 192.951 371.836 192.78C371.45 192.609 371.105 192.359 370.822 192.047C370.538 191.735 370.324 191.367 370.193 190.967C370.061 190.567 370.015 190.144 370.057 189.725L371.925 171.306L372.357 162.931C373.298 144.624 388.459 130.262 406.844 130.262Z" fill="#303030"/>
<path fill-rule="evenodd" clip-rule="evenodd" d="M390.554 155.631H423.133C423.591 155.631 424.03 155.812 424.353 156.135C424.677 156.458 424.858 156.895 424.858 157.352V184.458C424.858 194.379 416.793 202.422 406.844 202.422C396.894 202.422 388.829 194.379 388.829 184.458V157.352C388.829 156.895 389.011 156.458 389.334 156.135C389.658 155.812 390.097 155.631 390.554 155.631Z" fill="#FFC6B7"/>
<path d="M413.321 180.191C412.962 181.52 412.09 182.652 410.895 183.339C409.7 184.026 408.28 184.212 406.947 183.856" stroke="#EE9583" stroke-width="2.866" stroke-linecap="round"/>
<path d="M384.405 173.021H384.391C380.58 173.021 377.491 176.102 377.491 179.901C377.491 183.701 380.58 186.781 384.391 186.781H384.405C388.215 186.781 391.304 183.701 391.304 179.901C391.304 176.102 388.215 173.021 384.405 173.021Z" fill="#FFC6B7"/>
<path d="M428.433 173.021H428.419C424.608 173.021 421.52 176.102 421.52 179.901C421.52 183.701 424.608 186.781 428.419 186.781H428.433C432.244 186.781 435.333 183.701 435.333 179.901C435.333 176.102 432.244 173.021 428.433 173.021Z" fill="#FFC6B7"/>
<path d="M399.939 153.52H386.12C383.976 153.52 382.238 155.253 382.238 157.391V172.437C382.238 174.575 383.976 176.308 386.12 176.308H399.939C402.083 176.308 403.821 174.575 403.821 172.437V157.391C403.821 155.253 402.083 153.52 399.939 153.52Z" fill="white"/>
<path d="M409.002 162.512C409.002 161.086 407.842 159.93 406.412 159.93C404.982 159.93 403.822 161.086 403.822 162.512V176.696C403.822 178.123 404.982 179.279 406.412 179.279C407.842 179.279 409.002 178.123 409.002 176.696V162.512Z" fill="#EE9583"/>
<path d="M399.29 162.08H399.289C397.501 162.08 396.052 163.525 396.052 165.308V168.741C396.052 170.524 397.501 171.969 399.289 171.969H399.29C401.077 171.969 402.527 170.524 402.527 168.741V165.308C402.527 163.525 401.077 162.08 399.29 162.08Z" fill="#4B4B4B"/>
<path d="M426.703 153.52H412.884C410.74 153.52 409.002 155.253 409.002 157.391V172.437C409.002 174.575 410.74 176.308 412.884 176.308H426.703C428.847 176.308 430.585 174.575 430.585 172.437V157.391C430.585 155.253 428.847 153.52 426.703 153.52Z" fill="white"/>
<path d="M408.698 173.518H404.126C402.661 173.518 401.473 174.702 401.473 176.163C401.473 177.625 402.661 178.809 404.126 178.809H408.698C410.164 178.809 411.352 177.625 411.352 176.163C411.352 174.702 410.164 173.518 408.698 173.518Z" fill="#EE9583"/>
<path d="M414.398 162.08H414.397C412.609 162.08 411.16 163.525 411.16 165.308V168.741C411.16 170.524 412.609 171.969 414.397 171.969H414.398C416.186 171.969 417.635 170.524 417.635 168.741V165.308C417.635 163.525 416.186 162.08 414.398 162.08Z" fill="#4B4B4B"/>
<path fill-rule="evenodd" clip-rule="evenodd" d="M390.575 206.639H422.644C425.531 206.639 428.339 207.574 430.647 209.303C432.955 211.032 434.637 213.462 435.44 216.227L447.966 259.356C448.41 260.884 448.314 262.517 447.694 263.983C447.074 265.449 445.967 266.657 444.56 267.406C443.152 268.154 441.53 268.398 439.964 268.095C438.398 267.793 436.983 266.962 435.958 265.744L429.518 258.091L406.61 281.519L383.702 258.091L377.261 265.744C376.235 266.962 374.821 267.791 373.256 268.094C371.69 268.396 370.068 268.152 368.661 267.404C367.254 266.656 366.147 265.448 365.527 263.983C364.907 262.517 364.81 260.884 365.254 259.357L377.78 216.227C378.583 213.462 380.265 211.033 382.572 209.304C384.88 207.575 387.688 206.64 390.575 206.639V206.639Z" fill="#FFC6B7"/>
<path d="M378.82 262.836L378.82 262.836C377.491 261.8 375.571 262.035 374.533 263.361L366.432 273.7C365.394 275.025 365.629 276.939 366.959 277.974L366.959 277.975C368.288 279.01 370.208 278.775 371.246 277.45L379.347 267.111C380.385 265.786 380.15 263.872 378.82 262.836Z" fill="#FFC6B7"/>
<path d="M371.544 258.513L371.543 258.513C370.113 259.404 369.678 261.283 370.572 262.71L377.544 273.836C378.438 275.263 380.322 275.696 381.753 274.805L381.753 274.805C383.184 273.913 383.619 272.034 382.725 270.608L375.752 259.482C374.859 258.055 372.974 257.621 371.544 258.513Z" fill="#FFC6B7"/>
<path d="M376.454 261.48L376.453 261.479C375.462 260.119 373.552 259.817 372.187 260.806L361.543 268.518C360.178 269.506 359.876 271.411 360.867 272.771L360.867 272.772C361.859 274.133 363.769 274.434 365.134 273.446L375.778 265.734C377.143 264.745 377.445 262.841 376.454 261.48Z" fill="#FFC6B7"/>
<path d="M374.424 258.548L374.424 258.548C373.658 257.049 371.819 256.453 370.316 257.217L358.592 263.173C357.089 263.937 356.492 265.771 357.258 267.269L357.258 267.27C358.024 268.769 359.863 269.364 361.366 268.601L373.089 262.644C374.592 261.881 375.19 260.047 374.424 258.548Z" fill="#FFC6B7"/>
<path d="M434.155 262.836L434.156 262.836C435.485 261.8 437.404 262.035 438.443 263.361L446.543 273.7C447.582 275.025 447.346 276.939 446.017 277.974L446.016 277.975C444.687 279.01 442.768 278.775 441.729 277.45L433.629 267.111C432.59 265.786 432.826 263.872 434.155 262.836Z" fill="#FFC6B7"/>
<path d="M441.432 258.513L441.432 258.513C442.863 259.404 443.298 261.283 442.404 262.71L435.432 273.836C434.538 275.263 432.653 275.696 431.223 274.805L431.222 274.805C429.792 273.913 429.357 272.034 430.251 270.608L437.223 259.482C438.117 258.055 440.001 257.621 441.432 258.513Z" fill="#FFC6B7"/>
<path d="M436.522 261.48L436.522 261.479C437.514 260.119 439.424 259.817 440.788 260.806L451.433 268.518C452.798 269.506 453.1 271.411 452.109 272.771L452.108 272.772C451.117 274.133 449.207 274.434 447.842 273.446L437.197 265.734C435.833 264.745 435.53 262.841 436.522 261.48Z" fill="#FFC6B7"/>
<path d="M438.552 258.548L438.552 258.548C439.318 257.049 441.157 256.453 442.66 257.217L454.383 263.173C455.886 263.937 456.484 265.771 455.718 267.269L455.718 267.27C454.952 268.769 453.113 269.364 451.61 268.601L439.886 262.644C438.383 261.881 437.786 260.047 438.552 258.548Z" fill="#FFC6B7"/>
<path d="M390.658 237.645H422.56C430.462 237.645 436.869 244.033 436.869 251.912C436.869 252.971 436.751 254.027 436.517 255.06L420.696 324.825H392.523L376.703 255.06C374.958 247.373 379.794 239.734 387.502 237.996C388.538 237.762 389.596 237.644 390.658 237.645V237.645Z" fill="#9069CD"/>
<mask id="mask21_28_13638" style="mask-type:luminance" maskUnits="userSpaceOnUse" x="376" y="237" width="61" height="88">
<path d="M390.658 237.645H422.56C430.462 237.645 436.869 244.033 436.869 251.912C436.869 252.971 436.751 254.027 436.517 255.06L420.696 324.825H392.523L376.703 255.06C374.958 247.373 379.794 239.734 387.502 237.996C388.538 237.762 389.596 237.644 390.658 237.645V237.645Z" fill="#FFC6B7"/>
</mask>
<g mask="url(#mask21_28_13638)">
<path d="M433.569 296.75H382.12C374.763 296.75 368.799 302.697 368.799 310.034V332.229C368.799 339.565 374.763 345.512 382.12 345.512H433.569C440.926 345.512 446.89 339.565 446.89 332.229V310.034C446.89 302.697 440.926 296.75 433.569 296.75Z" fill="#FFC6B7"/>
</g>
<path d="M423.679 205.701H389.539C383.544 205.701 378.684 210.547 378.684 216.525C378.684 222.503 383.544 227.349 389.539 227.349H423.679C429.674 227.349 434.534 222.503 434.534 216.525C434.534 210.547 429.674 205.701 423.679 205.701Z" fill="#CE82FF"/>
<path d="M425.519 227.277H387.7C386.883 227.277 386.22 227.938 386.22 228.754V236.661C386.22 237.477 386.883 238.138 387.7 238.138H425.519C426.337 238.138 427 237.477 427 236.661V228.754C427 227.938 426.337 227.277 425.519 227.277Z" fill="#6F4EA1"/>
<path d="M422.973 322.857H390.743C388.245 322.857 386.22 324.877 386.22 327.368C386.22 329.859 388.245 331.878 390.743 331.878H422.973C425.471 331.878 427.496 329.859 427.496 327.368C427.496 324.877 425.471 322.857 422.973 322.857Z" fill="#3D3D3D"/>
<path d="M416.208 198.674H397.01C394.675 198.674 392.781 200.562 392.781 202.891C392.781 205.22 394.675 207.108 397.01 207.108H416.208C418.544 207.108 420.437 205.22 420.437 202.891C420.437 200.562 418.544 198.674 416.208 198.674Z" fill="#CE82FF"/>
<path opacity="0.3" d="M693.533 332.215H24.6937C22.4229 332.215 20.582 334.05 20.582 336.315V336.316C20.582 338.581 22.4229 340.416 24.6937 340.416H693.533C695.804 340.416 697.645 338.581 697.645 336.316V336.315C697.645 334.05 695.804 332.215 693.533 332.215Z" fill="#AFAFAF"/>
<path fill-rule="evenodd" clip-rule="evenodd" d="M80.3381 136.822C86.5142 136.822 92.5404 138.72 97.5967 142.256C102.653 145.793 106.494 150.797 108.596 156.588L135.184 229.807C146.245 260.27 130.448 293.905 99.8982 304.935C93.4769 307.254 86.6999 308.439 79.8707 308.439C47.5459 308.439 21.3423 282.309 21.3423 250.077C21.3423 243.208 22.5584 236.393 24.9346 229.945L51.9842 156.553C54.1171 150.766 57.9796 145.771 63.0501 142.243C68.1206 138.714 74.1549 136.822 80.3381 136.822Z" fill="#A56644"/>
<path d="M88.1521 258.828H72.6366C71.6195 258.828 70.7949 259.65 70.7949 260.665V330.581C70.7949 331.595 71.6195 332.418 72.6366 332.418H88.1521C89.1692 332.418 89.9938 331.595 89.9938 330.581V260.665C89.9938 259.65 89.1692 258.828 88.1521 258.828Z" fill="#FFB59F"/>
<path fill-rule="evenodd" clip-rule="evenodd" d="M94.4307 211.104L111.901 230.202C113.448 231.894 114.307 234.101 114.307 236.391C114.307 238.681 113.448 240.889 111.901 242.58L90.2385 266.259C86.8103 270.007 80.9849 270.274 77.227 266.856C76.132 265.86 75.2941 264.615 74.7847 263.227L63.5479 232.613L55.6363 240.443C54.4765 241.591 52.9148 242.244 51.281 242.265C49.6472 242.286 48.0692 241.673 46.8801 240.556C45.6979 239.445 45.0009 237.915 44.9395 236.296C44.8781 234.677 45.4572 233.099 46.552 231.902L65.5785 211.103C72.8459 203.159 85.1959 202.593 93.1625 209.839C93.6041 210.241 94.027 210.663 94.4299 211.103L94.4307 211.104Z" fill="#FFB59F"/>
<path d="M45.0459 212.829C43.6808 210.038 40.305 208.879 37.506 210.24C34.707 211.602 33.5447 214.968 34.9098 217.759L45.2097 238.816C46.5748 241.607 49.9505 242.766 52.7495 241.405C55.5486 240.044 56.7109 236.678 55.3457 233.887L45.0459 212.829Z" fill="#FFB59F"/>
<path d="M45.6187 208.814C43.627 203.897 38.0126 201.522 33.0787 203.511C28.1447 205.499 25.7597 211.098 27.7514 216.015C29.7432 220.933 35.3576 223.307 40.2915 221.319C45.2254 219.33 47.6105 213.732 45.6187 208.814Z" fill="#FFB59F"/>
<path d="M37.8636 191.384L37.8629 191.384C36.0479 191.384 34.5762 192.853 34.5757 194.664L34.572 207.315C34.5715 209.126 36.0424 210.594 37.8573 210.593L37.858 210.593C39.673 210.592 41.1447 209.124 41.1452 207.313L41.1489 194.662C41.1494 192.851 39.6785 191.383 37.8636 191.384Z" fill="#FFB59F"/>
<path d="M27.1115 195.55L27.1109 195.55C25.6789 196.666 25.4245 198.727 26.5426 200.154L34.3526 210.123C35.4707 211.55 37.538 211.803 38.97 210.687L38.9706 210.686C40.4026 209.571 40.657 207.509 39.5389 206.082L31.7289 196.114C30.6108 194.687 28.5435 194.434 27.1115 195.55Z" fill="#FFB59F"/>
<path d="M80.3517 204.439H80.4367C91.2204 204.439 99.963 213.156 99.963 223.909V275.366C99.963 276.535 99.4973 277.656 98.6684 278.483C97.8395 279.31 96.7152 279.774 95.5428 279.774H65.2471C64.0746 279.774 62.9501 279.31 62.121 278.483C61.292 277.657 60.8262 276.535 60.8262 275.366V223.909C60.8262 213.156 69.568 204.439 80.3517 204.439Z" fill="#B15BE9"/>
<mask id="mask22_28_13638" style="mask-type:luminance" maskUnits="userSpaceOnUse" x="60" y="204" width="40" height="76">
<path d="M80.3517 204.439H80.4367C91.2204 204.439 99.963 213.156 99.963 223.909V275.366C99.963 276.535 99.4973 277.656 98.6684 278.483C97.8395 279.31 96.7152 279.774 95.5428 279.774H65.2471C64.0746 279.774 62.9501 279.31 62.121 278.483C61.292 277.657 60.8262 276.535 60.8262 275.366V223.909C60.8262 213.156 69.568 204.439 80.3517 204.439Z" fill="#CE82FF"/>
</mask>
<g mask="url(#mask22_28_13638)">
<path d="M100.341 202.969H61.5556C59.3176 202.969 57.5034 204.778 57.5034 207.009V234.019C57.5034 236.25 59.3176 238.059 61.5556 238.059H100.341C102.579 238.059 104.393 236.25 104.393 234.019V207.009C104.393 204.778 102.579 202.969 100.341 202.969Z" fill="#CE82FF"/>
</g>
<mask id="mask23_28_13638" style="mask-type:luminance" maskUnits="userSpaceOnUse" x="60" y="204" width="40" height="76">
<path d="M80.3517 204.439H80.4367C91.2204 204.439 99.963 213.156 99.963 223.909V275.366C99.963 276.535 99.4973 277.656 98.6684 278.483C97.8395 279.31 96.7152 279.774 95.5428 279.774H65.2471C64.0746 279.774 62.9501 279.31 62.121 278.483C61.292 277.657 60.8262 276.535 60.8262 275.366V223.909C60.8262 213.156 69.568 204.439 80.3517 204.439Z" fill="#9841D1"/>
</mask>
<g mask="url(#mask23_28_13638)">
<path d="M72.7097 251.161C72.7097 249.892 71.6782 248.863 70.4059 248.863C69.1335 248.863 68.1021 249.892 68.1021 251.161V281.657C68.1021 282.925 69.1335 283.954 70.4059 283.954C71.6782 283.954 72.7097 282.925 72.7097 281.657V251.161Z" fill="#9841D1"/>
</g>
<mask id="mask24_28_13638" style="mask-type:luminance" maskUnits="userSpaceOnUse" x="60" y="204" width="40" height="76">
<path d="M80.3517 204.439H80.4367C91.2204 204.439 99.963 213.156 99.963 223.909V275.366C99.963 276.535 99.4973 277.656 98.6684 278.483C97.8395 279.31 96.7152 279.774 95.5428 279.774H65.2471C64.0746 279.774 62.9501 279.31 62.121 278.483C61.292 277.657 60.8262 276.535 60.8262 275.366V223.909C60.8262 213.156 69.568 204.439 80.3517 204.439Z" fill="#9841D1"/>
</mask>
<g mask="url(#mask24_28_13638)">
<path d="M93.9059 251.161C93.9059 249.892 92.8745 248.863 91.6021 248.863C90.3298 248.863 89.2983 249.892 89.2983 251.161V281.657C89.2983 282.925 90.3298 283.954 91.6021 283.954C92.8745 283.954 93.9059 282.925 93.9059 281.657V251.161Z" fill="#9841D1"/>
</g>
<mask id="mask25_28_13638" style="mask-type:luminance" maskUnits="userSpaceOnUse" x="60" y="204" width="40" height="76">
<path d="M80.3517 204.439H80.4367C91.2204 204.439 99.963 213.156 99.963 223.909V275.366C99.963 276.535 99.4973 277.656 98.6684 278.483C97.8395 279.31 96.7152 279.774 95.5428 279.774H65.2471C64.0746 279.774 62.9501 279.31 62.121 278.483C61.292 277.657 60.8262 276.535 60.8262 275.366V223.909C60.8262 213.156 69.568 204.439 80.3517 204.439Z" fill="#9841D1"/>
</mask>
<g mask="url(#mask25_28_13638)">
<path d="M83.3073 251.161C83.3073 249.892 82.2759 248.863 81.0035 248.863C79.7312 248.863 78.6997 249.892 78.6997 251.161V281.657C78.6997 282.925 79.7312 283.954 81.0035 283.954C82.2759 283.954 83.3073 282.925 83.3073 281.657V251.161Z" fill="#9841D1"/>
</g>
<path d="M79.8409 137.924C94.0129 137.924 105.501 149.379 105.501 163.511V179.219C105.501 193.351 94.0129 204.807 79.8409 204.807C65.6688 204.807 54.1807 193.351 54.1807 179.22V163.511C54.1807 149.379 65.6688 137.924 79.8409 137.924Z" fill="#FFB59F"/>
<path d="M90.9347 154.828H90.8993C86.3212 154.828 82.6099 158.529 82.6099 163.094V169.714C82.6099 174.279 86.3212 177.98 90.8993 177.98H90.9347C95.5129 177.98 99.2242 174.279 99.2242 169.714V163.094C99.2242 158.529 95.5129 154.828 90.9347 154.828Z" fill="white"/>
<path fill-rule="evenodd" clip-rule="evenodd" d="M69.5026 154.828C74.0906 154.828 77.8101 158.53 77.8101 163.096V169.711C77.8101 174.278 74.0906 177.979 69.5026 177.979C64.9146 177.979 61.1958 174.278 61.1958 169.711V163.096C61.1958 158.53 64.9146 154.828 69.5026 154.828Z" fill="white"/>
<path fill-rule="evenodd" clip-rule="evenodd" d="M80.2105 157.768C80.5257 157.767 80.8379 157.829 81.1293 157.949C81.4206 158.069 81.6853 158.245 81.9082 158.467C82.1311 158.69 82.3078 158.953 82.4282 159.244C82.5486 159.534 82.6104 159.846 82.6099 160.16V180.363C82.6105 180.678 82.5488 180.989 82.4284 181.28C82.3081 181.57 82.1314 181.834 81.9085 182.057C81.6856 182.279 81.4208 182.455 81.1294 182.576C80.8381 182.696 80.5258 182.757 80.2105 182.757C79.895 182.757 79.5826 182.696 79.291 182.576C78.9995 182.456 78.7346 182.28 78.5115 182.057C78.2884 181.835 78.1116 181.571 77.9911 181.28C77.8707 180.989 77.809 180.678 77.8096 180.363V160.16C77.8091 159.846 77.8709 159.534 77.9914 159.244C78.1118 158.953 78.2887 158.689 78.5118 158.467C78.7348 158.244 78.9997 158.068 79.2912 157.948C79.5827 157.828 79.8951 157.767 80.2105 157.768Z" fill="#E47A65"/>
<path d="M80.5859 177.613H79.8347C77.9011 177.613 76.3335 179.176 76.3335 181.105C76.3335 183.033 77.9011 184.596 79.8347 184.596H80.5859C82.5195 184.596 84.0871 183.033 84.0871 181.105C84.0871 179.176 82.5195 177.613 80.5859 177.613Z" fill="#E47A65"/>
<path d="M89.0621 161.076H89.0779C91.0108 161.076 92.5776 162.639 92.5776 164.566V168.979C92.5776 170.906 91.0108 172.469 89.0779 172.469H89.0621C87.1292 172.469 85.5624 170.906 85.5624 168.979V164.566C85.5624 162.639 87.1292 161.076 89.0621 161.076Z" fill="#4B4B4B"/>
<path d="M71.3564 161.076H71.3406C69.4077 161.076 67.8408 162.639 67.8408 164.566V168.979C67.8408 170.906 69.4077 172.469 71.3406 172.469H71.3564C73.2892 172.469 74.8561 170.906 74.8561 168.979V164.566C74.8561 162.639 73.2892 161.076 71.3564 161.076Z" fill="#4B4B4B"/>
<mask id="mask26_28_13638" style="mask-type:luminance" maskUnits="userSpaceOnUse" x="54" y="137" width="52" height="68">
<path d="M79.8409 137.924C94.0129 137.924 105.501 149.379 105.501 163.511V179.219C105.501 193.351 94.0129 204.807 79.8409 204.807C65.6688 204.807 54.1807 193.351 54.1807 179.22V163.511C54.1807 149.379 65.6688 137.924 79.8409 137.924Z" fill="#A56644"/>
</mask>
<g mask="url(#mask26_28_13638)">
<path d="M100.563 112.199H59.5742C58.7604 112.199 58.1006 112.857 58.1006 113.669V165.853C58.1006 166.665 58.7604 167.323 59.5742 167.323H100.563C101.377 167.323 102.037 166.665 102.037 165.853V113.669C102.037 112.857 101.377 112.199 100.563 112.199Z" fill="#A56644"/>
</g>
<path d="M71.7348 184.494C72.9992 188.129 75.7787 189.946 80.0747 189.946" stroke="#EC8B75" stroke-width="3.426" stroke-linecap="round" stroke-linejoin="round"/>
<path d="M91.2466 323.736H70.0126C67.5344 323.736 65.5254 325.739 65.5254 328.21C65.5254 330.681 67.5344 332.684 70.0126 332.684H91.2466C93.7248 332.684 95.7338 330.681 95.7338 328.21C95.7338 325.739 93.7248 323.736 91.2466 323.736Z" fill="#4B4B4B"/>
<path fill-rule="evenodd" clip-rule="evenodd" d="M70.7949 293.373H89.9938V312.115H70.7949V293.373Z" fill="white"/>
<path fill-rule="evenodd" clip-rule="evenodd" d="M70.7949 309.174H89.9938V326.813H70.7949V309.174Z" fill="#4B4B4B"/>
<path d="M52.8884 183.735C56.1418 183.735 58.7793 181.111 58.7793 177.873C58.7793 174.635 56.1418 172.01 52.8884 172.01C49.635 172.01 46.9976 174.635 46.9976 177.873C46.9976 181.111 49.635 183.735 52.8884 183.735Z" fill="#FFB59F"/>
<path d="M106.961 183.735C110.215 183.735 112.852 181.111 112.852 177.873C112.852 174.635 110.215 172.01 106.961 172.01C103.708 172.01 101.07 174.635 101.07 177.873C101.07 181.111 103.708 183.735 106.961 183.735Z" fill="#FFB59F"/>
<path fill-rule="evenodd" clip-rule="evenodd" d="M80.2598 124.639C95.0527 124.639 107.044 136.596 107.044 151.347C107.044 152.466 106.599 153.538 105.806 154.329C105.012 155.12 103.937 155.564 102.815 155.564H57.7049C56.5831 155.564 55.5072 155.12 54.714 154.329C53.9207 153.538 53.4751 152.465 53.4751 151.346C53.4751 136.596 65.4675 124.639 80.2598 124.639Z" fill="#78C800"/>
<path fill-rule="evenodd" clip-rule="evenodd" d="M53.2726 148.069H107.248C107.991 148.069 108.713 148.32 109.295 148.782C109.877 149.244 110.285 149.888 110.452 150.611L111.754 156.234C111.866 156.715 111.867 157.214 111.757 157.696C111.648 158.177 111.431 158.628 111.123 159.014C110.815 159.4 110.423 159.712 109.978 159.926C109.532 160.14 109.043 160.251 108.548 160.251H51.9721C51.4773 160.251 50.9889 160.14 50.5432 159.925C50.0976 159.711 49.7061 159.399 49.3981 159.013C49.0901 158.627 48.8734 158.176 48.7642 157.695C48.655 157.214 48.6561 156.714 48.7674 156.234L50.0687 150.611C50.2358 149.888 50.6437 149.243 51.2257 148.782C51.8078 148.32 52.5296 148.068 53.2734 148.068L53.2726 148.069Z" fill="#58A700"/>
<path d="M82.6104 124.639H63.3438C61.0082 124.639 59.1147 126.527 59.1147 128.856C59.1147 131.185 61.0082 133.073 63.3438 133.073H82.6104C84.946 133.073 86.8394 131.185 86.8394 128.856C86.8394 126.527 84.946 124.639 82.6104 124.639Z" fill="#78C800"/>
</svg>
